<?xml version="1.0" encoding="utf-8"?>
<!-- Generator: Adobe Illustrator 24.2.1, SVG Export Plug-In . SVG Version: 6.00 Build 0)  -->
<svg version="1.1" id="Layer_1" xmlns="http://www.w3.org/2000/svg" xmlns:xlink="http://www.w3.org/1999/xlink" x="0px" y="0px"
	 viewBox="0 0 100 100" style="enable-background:new 0 0 100 100;" xml:space="preserve">
<style type="text/css">
	.st0{fill:#FFFFFF;stroke:#E5E8EB;}
	.st1{fill:#5E72E4;}
	.st2{fill:#2BCDE4;}
</style>
<circle class="st0" cx="50" cy="50" r="49.5"/>
<path class="st1" d="M23,25c0-1.1,0.9-2,2-2h12c1.1,0,2,0.9,2,2v12c0,1.1-0.9,2-2,2H25c-1.1,0-2-0.9-2-2V25z"/>
<path class="st2" d="M23,44c0-1.1,0.9-2,2-2h12c1.1,0,2,0.9,2,2v12c0,1.1-0.9,2-2,2H25c-1.1,0-2-0.9-2-2V44z"/>
<path class="st1" d="M23,63c0-1.1,0.9-2,2-2h12c1.1,0,2,0.9,2,2v12c0,1.1-0.9,2-2,2H25c-1.1,0-2-0.9-2-2V63z"/>
<path class="st2" d="M42,25c0-1.1,0.9-2,2-2h12c1.1,0,2,0.9,2,2v12c0,1.1-0.9,2-2,2H44c-1.1,0-2-0.9-2-2V25z"/>
<path class="st1" d="M42,44c0-1.1,0.9-2,2-2h12c1.1,0,2,0.9,2,2v12c0,1.1-0.9,2-2,2H44c-1.1,0-2-0.9-2-2V44z"/>
<path class="st2" d="M42,63c0-1.1,0.9-2,2-2h12c1.1,0,2,0.9,2,2v12c0,1.1-0.9,2-2,2H44c-1.1,0-2-0.9-2-2V63z"/>
<path class="st1" d="M61,25c0-1.1,0.9-2,2-2h12c1.1,0,2,0.9,2,2v12c0,1.1-0.9,2-2,2H63c-1.1,0-2-0.9-2-2V25z"/>
<path class="st2" d="M61,44c0-1.1,0.9-2,2-2h12c1.1,0,2,0.9,2,2v12c0,1.1-0.9,2-2,2H63c-1.1,0-2-0.9-2-2V44z"/>
<path class="st1" d="M61,63c0-1.1,0.9-2,2-2h12c1.1,0,2,0.9,2,2v12c0,1.1-0.9,2-2,2H63c-1.1,0-2-0.9-2-2V63z"/>
</svg>
