<?xml version="1.0" encoding="utf-8"?>
<!-- Generator: Adobe Illustrator 24.2.1, SVG Export Plug-In . SVG Version: 6.00 Build 0)  -->
<svg version="1.1" id="Layer_1" xmlns="http://www.w3.org/2000/svg" xmlns:xlink="http://www.w3.org/1999/xlink" x="0px" y="0px"
	 viewBox="0 0 100 100" style="enable-background:new 0 0 100 100;" xml:space="preserve">
<style type="text/css">
	.st0{fill:#FFFFFF;stroke:#E5E8EB;}
	.st1{fill-rule:evenodd;clip-rule:evenodd;fill:#2BCDE4;}
	.st2{fill:#5E72E4;}
	.st3{fill:#2BCDE4;}
	.st4{fill-rule:evenodd;clip-rule:evenodd;fill:#1868B7;}
</style>
<circle class="st0" cx="50" cy="50" r="49.5"/>
<path class="st1" d="M45.8,24.5C31,28,21.8,42.8,25.3,57.6s18.3,23.9,33.1,20.4C73.2,74.6,82.4,59.7,78.9,45
	C75.4,30.2,60.5,21,45.8,24.5z M35,42.7c-4,1-6.5,5-5.6,9c1,4,5,6.5,9,5.6c4-1,6.5-5,5.6-9C43.1,44.3,39.1,41.8,35,42.7z"/>
<path class="st2" d="M41.3,67.6c-0.9-3.6,1.4-7.3,5-8.1c3.6-0.9,7.3,1.4,8.1,5c0.9,3.6-1.4,7.3-5,8.1C45.8,73.5,42.1,71.2,41.3,67.6
	z"/>
<path class="st2" d="M57.9,62c-0.9-3.6,1.4-7.3,5-8.1c3.6-0.9,7.3,1.4,8.1,5c0.9,3.6-1.4,7.3-5,8.1C62.4,67.9,58.7,65.6,57.9,62z"/>
<path class="st2" d="M59.3,44.5c-0.8-3.4,1.3-6.8,4.7-7.6c3.4-0.8,6.8,1.3,7.6,4.7c0.8,3.4-1.3,6.8-4.7,7.6
	C63.5,50,60.1,47.9,59.3,44.5z"/>
<path class="st2" d="M43.7,37.5c-0.9-3.6,1.4-7.3,5-8.1c3.6-0.9,7.3,1.4,8.1,5c0.9,3.6-1.4,7.3-5,8.1C48.2,43.4,44.6,41.2,43.7,37.5
	z"/>
<path class="st3" d="M24.9,25.8c0.5-3.1,2.5-7.2,3.7-9.3c0.4-0.7,1.3-0.6,1.6,0c1.1,2.2,3.1,6.3,3.4,9.4c0.4,3.5-1.8,9.1-1.8,9.1
	L26.5,35C26.5,35,24.4,29.4,24.9,25.8z"/>
<path class="st2" d="M24,34.9c0-0.7,0.6-1.3,1.3-1.2l8.1,0.1c0.7,0,1.3,0.6,1.2,1.3l-0.5,36.9c0,2.9-2.4,5.3-5.4,5.2
	c-2.9,0-5.3-2.4-5.2-5.4L24,34.9z"/>
<path class="st4" d="M25.1,24.8c0.7-2.9,2.4-6.4,3.5-8.3c0.4-0.7,1.3-0.6,1.6,0c1,1.9,2.7,5.4,3.3,8.4c-1.2,0.7-2.6,1.1-4.2,1.1
	C27.8,26,26.3,25.6,25.1,24.8z"/>
</svg>
