<?xml version="1.0" encoding="utf-8"?>
<!-- Generator: Adobe Illustrator 24.2.1, SVG Export Plug-In . SVG Version: 6.00 Build 0)  -->
<svg version="1.1" id="Layer_1" xmlns="http://www.w3.org/2000/svg" xmlns:xlink="http://www.w3.org/1999/xlink" x="0px" y="0px"
	 viewBox="0 0 100 100" style="enable-background:new 0 0 100 100;" xml:space="preserve">
<style type="text/css">
	.st0{fill:#FFFFFF;stroke:#E5E8EB;}
	.st1{fill:#2BCDE4;}
	.st2{fill:#5E72E4;}
	.st3{fill-rule:evenodd;clip-rule:evenodd;fill:#5E72E4;}
</style>
<circle class="st0" cx="50" cy="50" r="49.5"/>
<path class="st1" d="M26.3,26.8c0-5.4,4.4-9.8,9.8-9.8c5.4,0,9.8,4.4,9.8,9.8V54c0,0.6-0.5,1.1-1.1,1.1H27.4c-0.6,0-1.1-0.5-1.1-1.1
	V26.8z"/>
<path class="st2" d="M32.5,28.5c0-2,1.6-3.6,3.6-3.6s3.6,1.6,3.6,3.6v20.8c0,2-1.6,3.6-3.6,3.6s-3.6-1.6-3.6-3.6V28.5z"/>
<path class="st1" d="M54.1,26.8c0-5.4,4.4-9.8,9.8-9.8c5.4,0,9.8,4.4,9.8,9.8V54c0,0.6-0.5,1.1-1.1,1.1H55.2c-0.6,0-1.1-0.5-1.1-1.1
	V26.8z"/>
<path class="st2" d="M60.3,28.5c0-2,1.6-3.6,3.6-3.6s3.6,1.6,3.6,3.6v20.8c0,2-1.6,3.6-3.6,3.6s-3.6-1.6-3.6-3.6V28.5z"/>
<path class="st1" d="M22.3,62.7c2.7-9.2,7.4-18.3,16.7-20.5C42,41.5,45.7,41,50,41s8,0.5,10.9,1.2c9.3,2.2,14,11.3,16.7,20.5
	C80.8,73.3,72.9,84,61.8,84H38.2C27.1,84,19.2,73.3,22.3,62.7z"/>
<path class="st2" d="M68.6,66c0,2-1.6,3.6-3.6,3.6c-2,0-3.6-1.6-3.6-3.6c0-2,1.6-3.6,3.6-3.6C66.9,62.4,68.6,64,68.6,66z"/>
<path class="st2" d="M37.6,66c0,2-1.6,3.6-3.6,3.6c-2,0-3.6-1.6-3.6-3.6c0-2,1.6-3.6,3.6-3.6C36,62.4,37.6,64,37.6,66z"/>
<path class="st3" d="M49.9,71.4L49.9,71.4L49.9,71.4L49.9,71.4C49.9,71.4,49.9,71.4,49.9,71.4C49.9,71.4,49.9,71.4,49.9,71.4
	C49.9,71.4,49.9,71.4,49.9,71.4C49.9,71.4,49.9,71.4,49.9,71.4z M50,71.6C50,71.6,50,71.6,50,71.6c-0.1-0.1-0.1-0.2-0.1-0.2
	c0,0,0,0,0,0c-0.3-1-1.5-1.6-2.5-1.3c-1.1,0.3-1.6,1.5-1.3,2.5L48,72c-1.9,0.6-1.9,0.6-1.9,0.6l0,0l0,0l0,0l0,0c0,0,0,0.1,0,0.1
	c0,0.1,0.1,0.2,0.1,0.3c0.1,0.3,0.3,0.6,0.5,1c0.4,0.6,1.4,1.9,3.2,1.9c1.7,0,2.8-1.3,3.2-1.9c0.2-0.4,0.4-0.7,0.5-1
	c0.1-0.1,0.1-0.2,0.1-0.3c0,0,0-0.1,0-0.1l0,0l0,0l0,0l0,0c0,0,0,0-1.9-0.6l1.9,0.6c0.3-1.1-0.3-2.2-1.3-2.5c-1-0.3-2.2,0.2-2.5,1.3
	c0,0,0,0,0,0C50.1,71.4,50.1,71.5,50,71.6C50,71.6,50,71.6,50,71.6z"/>
</svg>
