<?xml version="1.0" encoding="utf-8"?>
<!-- Generator: Adobe Illustrator 24.2.1, SVG Export Plug-In . SVG Version: 6.00 Build 0)  -->
<svg version="1.1" id="Layer_1" xmlns="http://www.w3.org/2000/svg" xmlns:xlink="http://www.w3.org/1999/xlink" x="0px" y="0px"
	 viewBox="0 0 33 34" style="enable-background:new 0 0 33 34;" xml:space="preserve">
<style type="text/css">
	.st0{fill:#5E72E4;}
	.st1{fill:#2BCDE4;}
</style>
<path class="st0" d="M7.4,19.4c0.4-0.7,1.4-0.7,1.8,0l6.6,12.2c0.4,0.7-0.1,1.6-0.9,1.6H1.7c-0.8,0-1.3-0.9-0.9-1.6L7.4,19.4z"/>
<path class="st1" d="M1.3,3c0-1.2,0.9-2.1,2.1-2.1h9.8c1.2,0,2.1,0.9,2.1,2.1v9.8c0,1.2-0.9,2.1-2.1,2.1H3.4c-1.2,0-2.1-0.9-2.1-2.1
	V3z"/>
<path class="st1" d="M18.8,21.2c0-1.2,0.9-2.1,2.1-2.1h9.8c1.2,0,2.1,0.9,2.1,2.1V31c0,1.2-0.9,2.1-2.1,2.1h-9.8
	c-1.2,0-2.1-0.9-2.1-2.1V21.2z"/>
<path class="st0" d="M32.8,7.9c0,3.9-3.1,7-7,7s-7-3.1-7-7c0-3.9,3.1-7,7-7S32.8,4,32.8,7.9z"/>
</svg>
