<?xml version="1.0" encoding="utf-8"?>
<!-- Generator: Adobe Illustrator 24.2.1, SVG Export Plug-In . SVG Version: 6.00 Build 0)  -->
<svg version="1.1" id="Layer_1" xmlns="http://www.w3.org/2000/svg" xmlns:xlink="http://www.w3.org/1999/xlink" x="0px" y="0px"
	 viewBox="0 0 100 100" style="enable-background:new 0 0 100 100;" xml:space="preserve">
<style type="text/css">
	.st0{fill:#FFFFFF;stroke:#E5E8EB;}
	.st1{fill:#2BCDE4;}
	.st2{fill:#5E72E4;}
</style>
<circle class="st0" cx="50" cy="50" r="49.5"/>
<path class="st1" d="M15,40c0-1.7,1.3-3,3-3h65c1.7,0,3,1.3,3,3v21c0,1.7-1.3,3-3,3H18c-1.7,0-3-1.3-3-3V40z"/>
<path class="st2" d="M62,50.6c0,2.2-1.8,4-4,4c-2.2,0-4-1.8-4-4c0-2.2,1.8-4,4-4C60.2,46.6,62,48.4,62,50.6z"/>
<path class="st2" d="M19.8,50.6c0-2.2,1.8-4,4-4h21.8c2.2,0,4,1.8,4,4c0,2.2-1.8,4-4,4H23.8C21.6,54.6,19.8,52.8,19.8,50.6z"/>
<path class="st2" d="M66.2,50.6c0-2.2,1.8-4,4-4h6.9c2.2,0,4,1.8,4,4c0,2.2-1.8,4-4,4h-6.9C68,54.6,66.2,52.8,66.2,50.6z"/>
</svg>
