<?xml version="1.0" encoding="utf-8"?>
<!-- Generator: Adobe Illustrator 24.2.1, SVG Export Plug-In . SVG Version: 6.00 Build 0)  -->
<svg version="1.1" id="Layer_1" xmlns="http://www.w3.org/2000/svg" xmlns:xlink="http://www.w3.org/1999/xlink" x="0px" y="0px"
	 viewBox="0 0 100 100" style="enable-background:new 0 0 100 100;" xml:space="preserve">
<style type="text/css">
	.st0{fill:#FFFFFF;stroke:#E5E8EB;}
	.st1{fill:#5E72E4;}
	.st2{fill:#2BCDE4;}
</style>
<circle class="st0" cx="50" cy="50" r="49.5"/>
<path class="st1" d="M49.8,27.9h6.6v23.2h-6.6V27.9z"/>
<path class="st2" d="M56.5,51.2c0,4.6-3.7,8.3-8.3,8.3c-4.6,0-8.3-3.7-8.3-8.3s3.7-8.3,8.3-8.3C52.7,42.9,56.5,46.6,56.5,51.2z"/>
<path class="st1" d="M25,31.3h6.6v23.2H25V31.3z"/>
<path class="st2" d="M25,25.5c0-1.5,1.1-2.7,2.5-3l25.5-4c1.8-0.3,3.5,1.1,3.5,3v9.8l-31.5,5V25.5z"/>
<path class="st2" d="M31.6,54.5c0,4.6-3.7,8.3-8.3,8.3S15,59.1,15,54.5s3.7-8.3,8.3-8.3S31.6,49.9,31.6,54.5z"/>
<path class="st1" d="M64.8,51.2h6.6v23.2h-6.6V51.2z"/>
<path class="st2" d="M64.8,44.6c0-1,0.7-1.8,1.7-2l14.7-2.5c1.8-0.3,3.5,1.1,3.5,3v7.2c0,1.5-1.1,2.7-2.5,3l-17.4,2.9V44.6z"/>
<path class="st2" d="M71.4,74.4c0,4.6-3.7,8.3-8.3,8.3s-8.3-3.7-8.3-8.3s3.7-8.3,8.3-8.3S71.4,69.8,71.4,74.4z"/>
</svg>
