<?xml version="1.0" encoding="utf-8"?>
<!-- Generator: Adobe Illustrator 24.2.1, SVG Export Plug-In . SVG Version: 6.00 Build 0)  -->
<svg version="1.1" id="Layer_1" xmlns="http://www.w3.org/2000/svg" xmlns:xlink="http://www.w3.org/1999/xlink" x="0px" y="0px"
	 viewBox="0 0 31 30" style="enable-background:new 0 0 31 30;" xml:space="preserve">
<style type="text/css">
	.st0{fill:#2BCDE4;}
	.st1{fill:#5E72E4;}
	.st2{fill-rule:evenodd;clip-rule:evenodd;fill:#5E72E4;}
</style>
<path class="st0" d="M0.6,2.4c0-1.2,0.9-2.1,2.1-2.1h26c1.2,0,2.1,0.9,2.1,2.1v24.8c0,1.2-0.9,2.1-2.1,2.1h-26
	c-1.2,0-2.1-0.9-2.1-2.1V2.4z"/>
<path class="st1" d="M26.1,9c0,2.2-1.8,4.1-4.1,4.1S18,11.3,18,9c0-2.2,1.8-4.1,4.1-4.1S26.1,6.8,26.1,9z"/>
<path class="st2" d="M30.8,25.4v2.5c0,0.8-0.6,1.4-1.4,1.4H2c-0.8,0-1.4-0.6-1.4-1.4v-1.6l7.8-14.2c0.9-1.6,3.2-1.6,4.1,0l7,12.7
	l3.4-6c0.9-1.5,3.1-1.5,4,0L30.8,25.4z"/>
</svg>
