<?xml version="1.0" encoding="utf-8"?>
<!-- Generator: Adobe Illustrator 24.2.1, SVG Export Plug-In . SVG Version: 6.00 Build 0)  -->
<svg version="1.1" id="Layer_1" xmlns="http://www.w3.org/2000/svg" xmlns:xlink="http://www.w3.org/1999/xlink" x="0px" y="0px"
	 viewBox="0 0 42 44" style="enable-background:new 0 0 42 44;" xml:space="preserve">
<style type="text/css">
	.st0{fill:#5E72E4;}
	.st1{fill-rule:evenodd;clip-rule:evenodd;fill:#2BCDE4;}
</style>
<path class="st0" d="M3.2,21.9c-0.1-0.3-0.1-0.7,0.1-1L9.1,8.9c0.4-0.8,1.3-1,2-0.6l11.4,7.1c0.3,0.2,0.5,0.5,0.6,0.8l5.9,20.3
	c0.2,0.7-0.2,1.5-1,1.7l-17.2,5c-0.7,0.2-1.5-0.2-1.7-1L3.2,21.9z"/>
<path class="st1" d="M9.6,22.8c0,0.5,0.3,0.9,0.6,1.3l15.7,15.4c0.8,0.8,2.2,0.8,3,0l11.5-11.8c0.8-0.8,0.8-2.2,0-3L24.7,9.3
	c-0.4-0.3-0.8-0.6-1.3-0.6l-12.8-1c-1.3-0.1-2.4,1-2.3,2.3L9.6,22.8z M15.9,15.2c0.8-0.8,0.8-2.1,0-2.9c-0.8-0.8-2.1-0.8-2.9,0
	c-0.8,0.8-0.8,2.1,0,2.9C13.8,16,15.1,16,15.9,15.2z"/>
</svg>
