<?xml version="1.0" encoding="utf-8"?>
<!-- Generator: Adobe Illustrator 24.2.1, SVG Export Plug-In . SVG Version: 6.00 Build 0)  -->
<svg version="1.1" id="Layer_1" xmlns="http://www.w3.org/2000/svg" xmlns:xlink="http://www.w3.org/1999/xlink" x="0px" y="0px"
	 viewBox="0 0 100 100" style="enable-background:new 0 0 100 100;" xml:space="preserve">
<style type="text/css">
	.st0{fill:#FFFFFF;stroke:#E5E8EB;}
	.st1{fill:#2BCDE4;}
	.st2{fill:url(#SVGID_1_);}
	.st3{fill:url(#SVGID_2_);}
	.st4{fill:#5E72E4;}
	.st5{fill-rule:evenodd;clip-rule:evenodd;fill:#5E72E4;}
</style>
<circle class="st0" cx="50" cy="50" r="49.5"/>
<path class="st1" d="M79.7,49.9c0,16.5-13.4,29.9-29.9,29.9C33.4,79.7,20,66.3,20,49.9C20,33.4,33.4,20,49.9,20
	C66.3,20,79.7,33.4,79.7,49.9z"/>
<linearGradient id="SVGID_1_" gradientUnits="userSpaceOnUse" x1="16.0645" y1="73.5509" x2="50.4165" y2="48.7409" gradientTransform="matrix(1 0 0 -1 0 99)">
	<stop  offset="0" style="stop-color:#1B70C4"/>
	<stop  offset="1" style="stop-color:#2081E2;stop-opacity:0"/>
</linearGradient>
<path class="st2" d="M79.7,49.9c0,16.5-13.4,29.9-29.9,29.9C33.4,79.7,20,66.3,20,49.9C20,33.4,33.4,20,49.9,20
	C66.3,20,79.7,33.4,79.7,49.9z"/>
<path class="st1" d="M79.7,49.9c0,16.5-13.4,29.9-29.9,29.9C33.4,79.7,20,66.3,20,49.9C20,33.4,33.4,20,49.9,20
	C66.3,20,79.7,33.4,79.7,49.9z"/>
<linearGradient id="SVGID_2_" gradientUnits="userSpaceOnUse" x1="16.0645" y1="73.5509" x2="50.4165" y2="48.7409" gradientTransform="matrix(1 0 0 -1 0 99)">
	<stop  offset="0" style="stop-color:#1B70C4"/>
	<stop  offset="1" style="stop-color:#2081E2;stop-opacity:0"/>
</linearGradient>
<path class="st3" d="M79.7,49.9c0,16.5-13.4,29.9-29.9,29.9C33.4,79.7,20,66.3,20,49.9C20,33.4,33.4,20,49.9,20
	C66.3,20,79.7,33.4,79.7,49.9z"/>
<path class="st1" d="M79.7,49.9c0,16.5-13.4,29.9-29.9,29.9C33.4,79.7,20,66.3,20,49.9C20,33.4,33.4,20,49.9,20
	C66.3,20,79.7,33.4,79.7,49.9z"/>
<path class="st4" d="M48.3,39.2c1-0.7,2.4-0.7,3.4,0l4.1,2.8l4,3c1,0.8,1.4,2.1,1.1,3.3L59.4,53l-1.6,4.7c-0.4,1.2-1.5,2-2.8,2
	l-5,0.1l-5-0.1c-1.3,0-2.4-0.8-2.8-2L40.6,53l-1.4-4.7c-0.4-1.2,0.1-2.5,1.1-3.3l4-3L48.3,39.2z"/>
<path class="st5" d="M48.3,31.8c1,0.7,2.4,0.7,3.4,0l4.1-2.8l4-3c1-0.8,1.4-2.1,1.1-3.3L60.6,22c-3.3-1.3-7-2-10.7-2
	c-3.7,0-7.2,0.7-10.4,1.9l-0.3,0.8c-0.4,1.2,0.1,2.5,1.1,3.3l4,3L48.3,31.8z"/>
<path class="st5" d="M66.7,43.2c-0.4,1.2,0,2.5,1,3.3l3.9,3.1l4,2.9c1,0.7,2.4,0.8,3.4,0.1l0.6-0.4c0.3-3.6-0.1-7.2-1.2-10.9
	c-1.1-3.5-2.7-6.7-4.8-9.4l-0.9,0c-1.3,0-2.4,0.8-2.8,2l-1.7,4.7L66.7,43.2z"/>
<path class="st5" d="M32.9,43.2c0.4,1.2,0,2.5-1,3.3l-3.9,3.1l-4,2.9c-1,0.7-2.4,0.8-3.4,0.1L20,52.2c-0.3-3.6,0.1-7.2,1.2-10.9
	c1.1-3.5,2.7-6.7,4.8-9.4l0.9,0c1.3,0,2.4,0.8,2.8,2l1.7,4.7L32.9,43.2z"/>
<path class="st5" d="M38.3,63.8c1.3,0,2.4,0.8,2.8,2l1.7,4.7l1.5,4.7c0.4,1.2,0,2.5-1,3.3l-0.6,0.5c-3.5-0.9-6.8-2.4-9.9-4.5
	c-3-2.1-5.5-4.6-7.5-7.5l0.3-0.8c0.4-1.2,1.5-2,2.7-2.1l5-0.2L38.3,63.8z"/>
<path class="st5" d="M61.4,63.7c-1.3,0-2.4,0.8-2.8,2l-1.7,4.7l-1.5,4.7c-0.4,1.2,0,2.5,1,3.3l0.6,0.5c3.5-0.9,6.8-2.4,9.9-4.5
	c3-2.1,5.5-4.6,7.5-7.5L74,66c-0.4-1.2-1.5-2-2.7-2.1l-5-0.2L61.4,63.7z"/>
</svg>
