<?xml version="1.0" encoding="utf-8"?>
<!-- Generator: Adobe Illustrator 24.2.1, SVG Export Plug-In . SVG Version: 6.00 Build 0)  -->
<svg version="1.1" id="Layer_1" xmlns="http://www.w3.org/2000/svg" xmlns:xlink="http://www.w3.org/1999/xlink" x="0px" y="0px"
	 viewBox="0 0 100 100" style="enable-background:new 0 0 100 100;" xml:space="preserve">
<style type="text/css">
	.st0{fill:#FFFFFF;stroke:#E5E8EB;}
	.st1{fill:#5E72E4;}
	.st2{fill:#2BCDE4;}
</style>
<circle class="st0" cx="50" cy="50" r="49.5"/>
<path class="st1" d="M35,30c0-1.7,1.3-3,3-3h32c1.7,0,3,1.3,3,3v48c0,1.7-1.3,3-3,3H38c-1.7,0-3-1.3-3-3V30z"/>
<path class="st2" d="M27,22c0-1.7,1.3-3,3-3h32c1.7,0,3,1.3,3,3v48c0,1.7-1.3,3-3,3H30c-1.7,0-3-1.3-3-3V22z"/>
<path class="st1" d="M32,26c0-1.1,0.9-2,2-2h24c1.1,0,2,0.9,2,2v26c0,1.1-0.9,2-2,2H34c-1.1,0-2-0.9-2-2V26z"/>
<path class="st1" d="M32,62.5c0-1.9,1.6-3.5,3.5-3.5h10c1.9,0,3.5,1.6,3.5,3.5S47.4,66,45.5,66h-10C33.6,66,32,64.4,32,62.5z"/>
</svg>
