<?xml version="1.0" encoding="utf-8"?>
<!-- Generator: Adobe Illustrator 24.2.1, SVG Export Plug-In . SVG Version: 6.00 Build 0)  -->
<svg version="1.1" id="Layer_1" xmlns="http://www.w3.org/2000/svg" xmlns:xlink="http://www.w3.org/1999/xlink" x="0px" y="0px"
	 viewBox="0 0 100 100" style="enable-background:new 0 0 100 100;" xml:space="preserve">
<style type="text/css">
	.st0{fill:#FFFFFF;stroke:#E5E8EB;}
	.st1{fill:#5E72E4;}
	.st2{fill:#2BCDE4;}
</style>
<circle class="st0" cx="50" cy="50" r="49.5"/>
<path class="st1" d="M26.2,37.9c0-2.4,1.3-4.6,4.4-5.4c3.1-0.8,32.7-7.5,32.7-7.5c2.4,0,4.4,1.9,4.4,4.3v16.1v16.1
	c0,2.4-2,4.3-4.4,4.3l-32.7,6.4c-2.4,2.1-4.4,0.2-4.4-2.1V37.9z"/>
<path class="st2" d="M26,38.4c0-2.8,2.2-5,5-5h36c2.8,0,5,2.2,5,5v31c0,2.8-2.2,5-5,5H31c-2.8,0-5-2.2-5-5V38.4z"/>
<path class="st1" d="M49,49.4c0-2.8,2.2-5,5-5h16c2.8,0,5,2.2,5,5v8c0,2.8-2.2,5-5,5H54c-2.8,0-5-2.2-5-5V49.4z"/>
<path class="st2" d="M61,53.7c0,1.8-1.5,3.3-3.3,3.3c-1.8,0-3.3-1.5-3.3-3.3c0-1.8,1.5-3.3,3.3-3.3C59.5,50.4,61,51.9,61,53.7z"/>
</svg>
