<?xml version="1.0" encoding="utf-8"?>
<!-- Generator: Adobe Illustrator 24.2.1, SVG Export Plug-In . SVG Version: 6.00 Build 0)  -->
<svg version="1.1" id="Layer_1" xmlns="http://www.w3.org/2000/svg" xmlns:xlink="http://www.w3.org/1999/xlink" x="0px" y="0px"
	 viewBox="0 0 100 100" style="enable-background:new 0 0 100 100;" xml:space="preserve">
<style type="text/css">
	.st0{fill:#FFFFFF;stroke:#E5E8EB;}
	.st1{fill:#2BCDE4;}
	.st2{fill:url(#SVGID_1_);}
	.st3{fill:url(#SVGID_2_);}
	.st4{fill-rule:evenodd;clip-rule:evenodd;fill:#5E72E4;}
</style>
<circle class="st0" cx="50" cy="50" r="49.5"/>
<path class="st1" d="M79.7,49.9c0,16.5-13.4,29.9-29.9,29.9C33.4,79.7,20,66.3,20,49.9C20,33.4,33.4,20,49.9,20
	C66.3,20,79.7,33.4,79.7,49.9z"/>
<linearGradient id="SVGID_1_" gradientUnits="userSpaceOnUse" x1="16.0645" y1="73.5509" x2="50.4165" y2="48.7409" gradientTransform="matrix(1 0 0 -1 0 99)">
	<stop  offset="0" style="stop-color:#1B70C4"/>
	<stop  offset="1" style="stop-color:#2081E2;stop-opacity:0"/>
</linearGradient>
<path class="st2" d="M79.7,49.9c0,16.5-13.4,29.9-29.9,29.9C33.4,79.7,20,66.3,20,49.9C20,33.4,33.4,20,49.9,20
	C66.3,20,79.7,33.4,79.7,49.9z"/>
<path class="st1" d="M79.7,49.9c0,16.5-13.4,29.9-29.9,29.9C33.4,79.7,20,66.3,20,49.9C20,33.4,33.4,20,49.9,20
	C66.3,20,79.7,33.4,79.7,49.9z"/>
<linearGradient id="SVGID_2_" gradientUnits="userSpaceOnUse" x1="16.0645" y1="73.5509" x2="50.4165" y2="48.7409" gradientTransform="matrix(1 0 0 -1 0 99)">
	<stop  offset="0" style="stop-color:#1B70C4"/>
	<stop  offset="1" style="stop-color:#2081E2;stop-opacity:0"/>
</linearGradient>
<path class="st3" d="M79.7,49.9c0,16.5-13.4,29.9-29.9,29.9C33.4,79.7,20,66.3,20,49.9C20,33.4,33.4,20,49.9,20
	C66.3,20,79.7,33.4,79.7,49.9z"/>
<path class="st1" d="M79.7,49.9c0,16.5-13.4,29.9-29.9,29.9C33.4,79.7,20,66.3,20,49.9C20,33.4,33.4,20,49.9,20
	C66.3,20,79.7,33.4,79.7,49.9z"/>
<path class="st4" d="M72.1,29.9H58.2c-2.8,0-5-2.2-5-5v-4.8C60.7,21,67.3,24.6,72.1,29.9z"/>
<path class="st4" d="M36.3,23.2c0.2,0.5,0.3,1.1,0.3,1.7v4.9c0,2.8,2.2,5,5,5h6.6c2.8,0,5,2.2,5,5v4.9c0,2.8-2.2,5-5,5h-3.3
	c-2.8,0-5,2.2-5,5v4.9c0,2.8-2.2,5-5,5H24c-2.5-4.4-4-9.5-4-14.9C20,38.2,26.6,28.2,36.3,23.2z"/>
<path class="st4" d="M66.4,74.7c8-5.3,13.3-14.5,13.3-24.9c0-1.7-0.1-3.4-0.4-5h-6.2c-2.8,0-5,2.2-5,5v4.9c0,2.8-2.2,5-5,5h-6.6
	c-2.8,0-5,2.2-5,5v4.9c0,2.8,2.2,5,5,5H66.4z"/>
</svg>
