<svg width="17" height="25" viewBox="0 0 17 25" fill="none" xmlns="http://www.w3.org/2000/svg">
<path d="M0.239014 13.9206L0.817936 13.6657L8.00401 10.5427L15.769 13.9206L12.8531 19.9436L5.72019 20.9527L0.35586 15.1635L0.239014 13.9206Z" fill="#133444"/>
<path d="M14.1545 10.2028C12.8745 8.6572 11.0528 7.65338 9.06636 7.38782C9.02387 7.38251 8.98138 7.3772 8.93889 7.37188C8.31748 7.29753 7.69076 7.29753 7.06934 7.37188C7.02685 7.3772 6.98436 7.38251 6.94187 7.38782C4.95017 7.65338 3.13374 8.6572 1.85373 10.2028L1.52975 10.7392L0.993316 11.6315L0.600287 12.2848C0.594975 12.3007 0.584353 12.3219 0.579042 12.3379L0.57373 12.3485L1.44477 12.8637L6.94187 16.1195L8.00412 16.7462V8.96525L6.94187 9.44857V8.28541L8.00412 7.80209L9.06636 8.28541L14.4785 10.7445L14.1545 10.2028Z" fill="#C42370"/>
<path d="M16.008 15.854C16.008 18.4459 14.7758 20.8678 12.8691 22.4293C12.1202 23.0454 11.2598 23.5234 10.3409 23.8315C9.58674 24.0811 8.80068 24.2086 8.00931 24.2086C3.58507 24.2086 0 20.2783 0 15.854C0 15.2007 0.0796682 14.5528 0.233693 13.9154L8.004 18.5149L15.769 13.9207C15.9283 14.5528 16.008 15.206 16.008 15.854Z" fill="#1C4D6B"/>
<path d="M7.06912 7.37727L8.00389 7.80217L6.94165 8.28549V7.31885L7.06912 7.37727Z" fill="black"/>
<path d="M6.94165 9.44858L8.00389 8.96526V16.7515L6.94165 16.1195V9.44858Z" fill="black"/>
<path d="M8.00415 8.96526V16.7515L15.4452 12.3485L8.00415 8.96526Z" fill="#1D4259"/>
<path d="M8.00415 -6.10352e-05V8.96527L15.4452 12.3485L8.00415 -6.10352e-05Z" fill="#4B6B9A"/>
<path d="M8.00418 8.9653V16.7462L6.94194 16.1195L0.568484 12.3485L0.557861 12.3432L0.573795 12.3379C0.579106 12.322 0.589729 12.3007 0.59504 12.2848L1.5245 10.7392L6.94194 8.28546V9.45393L8.00418 8.9653Z" fill="#343535"/>
<path d="M8.004 8.96526V16.7515L6.94176 16.1195L0.568299 12.3538L0.562988 12.3485L0.573611 12.3432L6.94176 9.44858L8.004 8.96526Z" fill="#3E5578"/>
<path d="M8.004 -6.10352e-05V8.96527L0.562988 12.3485L8.004 -6.10352e-05Z" fill="#6DB2D8"/>
<path d="M4.99243 23.5712C5.10397 23.619 5.2155 23.6668 5.32704 23.7093C5.2155 23.6668 5.10397 23.6243 4.99243 23.5712Z" fill="#335F8A"/>
<path d="M5.32715 23.7091C5.43868 23.7516 5.55553 23.7941 5.67238 23.8313C5.55553 23.7941 5.43868 23.7569 5.32715 23.7091Z" fill="#335F8A"/>
<path d="M5.9646 23.927C6.05489 23.9535 6.13987 23.9748 6.23016 23.996C6.14518 23.9748 6.05489 23.9482 5.9646 23.927Z" fill="#335F8A"/>
<path d="M0.239005 13.9207L8.004 18.5149C7.89778 19.216 7.71188 19.8958 7.44632 20.5544C6.82491 22.0575 5.57146 23.6456 3.13893 22.4346C1.22689 20.8731 0 18.4459 0 15.854C0 15.206 0.0796682 14.5528 0.239005 13.9207Z" fill="#6DB2D8"/>
<path d="M12.8638 22.4344L12.8425 22.4503C12.8 22.4822 12.7628 22.5141 12.7203 22.5459L12.7097 22.5565C12.6672 22.5937 12.6194 22.6256 12.5769 22.6575C12.5291 22.6946 12.4813 22.7318 12.4282 22.7637C12.3751 22.7955 12.3273 22.8327 12.2795 22.8699C12.2317 22.9071 12.1892 22.9283 12.1467 22.9602L12.1202 22.9761C12.0724 23.008 12.0246 23.0346 11.9821 23.0664C11.9768 23.0717 11.9715 23.0717 11.9662 23.077C11.9184 23.1089 11.8706 23.1355 11.8228 23.162C11.775 23.1886 11.7165 23.2258 11.6634 23.2523C11.6103 23.2842 11.5572 23.3107 11.5041 23.3373L11.4988 23.3426C11.4457 23.3692 11.3925 23.3957 11.3394 23.4223C11.2863 23.4488 11.2332 23.4754 11.1748 23.5019C11.1164 23.5285 11.0633 23.5551 11.0101 23.5763C10.8986 23.6241 10.7871 23.6719 10.6755 23.7144C10.564 23.7569 10.4471 23.7994 10.3303 23.8365C10.2825 23.8525 10.24 23.8684 10.1922 23.879C10.1444 23.895 10.086 23.9109 10.0382 23.9268C9.9479 23.9534 9.86292 23.9746 9.77263 23.9959C9.74076 24.0065 9.70358 24.0118 9.67171 24.0224L9.61329 24.0331C9.56549 24.0437 9.51769 24.0543 9.46989 24.0649C9.42209 24.0756 9.38491 24.0809 9.33711 24.0915C9.28931 24.1021 9.25744 24.1074 9.21495 24.1127C9.17246 24.118 9.12466 24.1287 9.08217 24.134C9.06092 24.1393 9.03968 24.1393 9.01843 24.1446L8.91752 24.1552L8.8591 24.1605C8.82192 24.1658 8.78474 24.1712 8.74756 24.1712C8.69976 24.1765 8.65727 24.1818 8.60947 24.1818C8.57229 24.1818 8.54042 24.1871 8.50325 24.1924C8.46607 24.1924 8.43951 24.1977 8.40764 24.1977H8.40233C8.36515 24.1977 8.32798 24.203 8.29611 24.203C8.24831 24.203 8.1952 24.2083 8.14739 24.2083C8.09959 24.2083 8.04648 24.2083 7.99337 24.2083C7.94026 24.2083 7.89246 24.2083 7.83934 24.2083C7.78623 24.2083 7.73843 24.2083 7.69063 24.203C7.65345 24.203 7.61627 24.1977 7.57909 24.1977H7.57378C7.54192 24.1977 7.51005 24.1924 7.47818 24.1924C7.44631 24.1924 7.40914 24.1871 7.37196 24.1818C7.32416 24.1765 7.28167 24.1765 7.23387 24.1712C7.19669 24.1658 7.15951 24.1658 7.12233 24.1605L7.06922 24.1552C7.03735 24.1499 7.00017 24.1446 6.96831 24.1446C6.94706 24.1446 6.92582 24.1393 6.90457 24.134C6.86208 24.1287 6.81428 24.1234 6.77179 24.1127C6.7293 24.1074 6.69212 24.0968 6.64963 24.0915C6.60714 24.0862 6.56465 24.0756 6.51685 24.0649C6.47436 24.0543 6.42125 24.0437 6.37345 24.0331L6.31503 24.0224C6.28316 24.0171 6.24598 24.0065 6.21411 23.9959C6.12382 23.9746 6.03884 23.9481 5.94855 23.9268L5.78922 23.879C5.74142 23.8631 5.69893 23.8525 5.65112 23.8365C5.53428 23.7994 5.42274 23.7569 5.3059 23.7144C5.18905 23.6719 5.07751 23.6241 4.97129 23.5763C4.91818 23.5497 4.85975 23.5285 4.80664 23.5019C4.75353 23.4754 4.69511 23.4488 4.64199 23.4223C4.58888 23.3957 4.53577 23.3692 4.48266 23.3426L4.47735 23.3373C4.42423 23.3107 4.37112 23.2789 4.31801 23.2523C4.2649 23.2258 4.21179 23.1939 4.15867 23.162C4.10556 23.1302 4.06307 23.1036 4.01527 23.077L3.99934 23.0664C3.95154 23.0399 3.90374 23.008 3.86125 22.9761L3.83469 22.9602C3.7922 22.9336 3.7444 22.9018 3.70191 22.8699C3.65942 22.838 3.601 22.8009 3.5532 22.7637C3.50539 22.7265 3.45759 22.6946 3.40448 22.6575C3.35668 22.6203 3.31419 22.5884 3.2717 22.5565L3.26108 22.5459C3.21859 22.5141 3.18141 22.4822 3.13892 22.4503L3.11768 22.4344C5.5449 23.6453 6.80366 22.052 7.42507 20.5542C7.69063 19.9009 7.87652 19.2158 7.98275 18.5147C8.08897 19.2158 8.27486 19.8956 8.54042 20.5542C9.18308 22.052 10.4365 23.64 12.8638 22.4344Z" fill="#529BBA"/>
<path d="M9.77271 23.996C9.863 23.9748 9.95329 23.9482 10.0383 23.927C9.95329 23.9535 9.863 23.9748 9.77271 23.996Z" fill="#335F8A"/>
<path d="M10.3357 23.8366C10.4525 23.7994 10.5641 23.757 10.6809 23.7145C10.5694 23.757 10.4525 23.7941 10.3357 23.8366Z" fill="#335F8A"/>
<path d="M10.6809 23.7093C10.7924 23.6668 10.904 23.619 11.0155 23.5712C10.9093 23.6243 10.7924 23.6668 10.6809 23.7093Z" fill="#335F8A"/>
<path d="M16.0082 15.854C16.0082 18.4459 14.7759 20.8678 12.8692 22.4346C10.442 23.6456 9.18324 22.0522 8.56183 20.5544C8.29627 19.9012 8.11037 19.216 8.00415 18.5149L15.7691 13.9207C15.9285 14.5528 16.0082 15.206 16.0082 15.854Z" fill="#4B6B9A"/>
</svg>
