<?xml version="1.0" encoding="utf-8"?>
<!-- Generator: Adobe Illustrator 24.2.1, SVG Export Plug-In . SVG Version: 6.00 Build 0)  -->
<svg version="1.1" id="Layer_1" xmlns="http://www.w3.org/2000/svg" xmlns:xlink="http://www.w3.org/1999/xlink" x="0px" y="0px"
	 viewBox="0 0 35 36" style="enable-background:new 0 0 35 36;" xml:space="preserve">
<style type="text/css">
	.st0{fill:#5E72E4;}
	.st1{fill:#2BCDE4;}
</style>
<path class="st0" d="M0.3,9.5c0-1.7,0.9-3.2,3.1-3.8c2.2-0.6,22.9-5.2,22.9-5.2c1.7,0,3.1,1.3,3.1,3v11.3V26c0,1.7-1.4,3-3.1,3
	L3.4,33.5C1.7,35,0.3,33.7,0.3,32V9.5z"/>
<path class="st1" d="M0.2,9.9c0-1.9,1.6-3.5,3.5-3.5h25.2c1.9,0,3.5,1.6,3.5,3.5v21.7c0,1.9-1.6,3.5-3.5,3.5H3.7
	c-1.9,0-3.5-1.6-3.5-3.5V9.9z"/>
<path class="st0" d="M16.3,17.6c0-1.9,1.6-3.5,3.5-3.5H31c1.9,0,3.5,1.6,3.5,3.5v5.6c0,1.9-1.6,3.5-3.5,3.5H19.8
	c-1.9,0-3.5-1.6-3.5-3.5V17.6z"/>
<path class="st1" d="M24.7,20.6c0,1.3-1,2.3-2.3,2.3s-2.3-1-2.3-2.3c0-1.3,1-2.3,2.3-2.3S24.7,19.3,24.7,20.6z"/>
</svg>
