<svg xmlns="http://www.w3.org/2000/svg" xmlns:xlink="http://www.w3.org/1999/xlink" width="140" height="140" viewBox="0 0 140 140">
  <defs>
    <clipPath id="clip-path">
      <rect id="Rectángulo_1062" data-name="Rectángulo 1062" width="140" height="140" transform="translate(4664.5 2261.5)" fill="none" stroke="#707070" stroke-width="1"/>
    </clipPath>
  </defs>
  <g id="fanatics" transform="translate(-4664.5 -2261.5)" clip-path="url(#clip-path)">
    <g id="Grupo_1202" data-name="Grupo 1202" transform="translate(3831.443 1713.203)">
      <path id="Trazado_1941" data-name="Trazado 1941" d="M975.395,629.908c3.265,0,5.43,2.5,5.43,6.254v6.956a.2.2,0,0,1-.183.183h-3.2a.2.2,0,0,1-.183-.183v-6.925c0-1.464-.7-3.02-2.685-3.02h-.061A2.99,2.99,0,0,0,971.7,636.1v7.017a.2.2,0,0,1-.183.183h-3.173a.2.2,0,0,1-.183-.183V630.243a.176.176,0,0,1,.183-.183H971.4a.2.2,0,0,1,.183.183V631.4a5.6,5.6,0,0,1,3.813-1.5m48.537,11.044a.188.188,0,0,0,.031.244,7.481,7.481,0,0,0,5.735,2.135c2.5,0,4.393-.976,5.156-2.623a3.825,3.825,0,0,0,.366-1.647c0-3.386-2.929-4.027-5.46-4.179-2.044-.122-2.044-.854-2.044-1.068,0-.854,1.373-.946,1.983-.946a3.938,3.938,0,0,1,2.715.885.187.187,0,0,0,.244,0l1.8-2.105a.159.159,0,0,0-.03-.244,7.878,7.878,0,0,0-8.329-.671,3.571,3.571,0,0,0-1.861,3.2c0,2.349,1.891,3.813,5.308,4.058,1.922.122,2.166.671,2.166,1.159,0,.7-.946,1.068-1.861,1.068h-.091a5.709,5.709,0,0,1-3.875-1.495.186.186,0,0,0-.244,0v.031Zm-32-2.166a3.705,3.705,0,0,0,.763-2.38,3.4,3.4,0,1,0-3.447,3.478,3.569,3.569,0,0,0,2.684-1.1m.671-8.573a.2.2,0,0,1,.183-.183h3.173a.2.2,0,0,1,.183.183v12.874a.2.2,0,0,1-.183.183h-3.173a.2.2,0,0,1-.183-.183v-.976a4.888,4.888,0,0,1-3.57,1.068h-.183a6.516,6.516,0,0,1-4.637-1.708,6.818,6.818,0,0,1-1.861-5.034c0-4.027,2.593-6.65,6.559-6.65h.061a5.563,5.563,0,0,1,3.631.976Zm-39.232-3.356v-3.112a.209.209,0,0,0-.214-.214h-11.47a.209.209,0,0,0-.214.214v19.311a.209.209,0,0,0,.214.214H944.8a.209.209,0,0,0,.214-.214v-7.871a.209.209,0,0,1,.213-.214h5.766a.208.208,0,0,0,.214-.213h0v-3.112a.209.209,0,0,0-.214-.213h-5.766a.209.209,0,0,1-.213-.214v-3.9a.208.208,0,0,1,.213-.213h7.932a.259.259,0,0,0,.214-.244h0m67.512,12.294a.189.189,0,0,0-.244-.031,3.328,3.328,0,0,1-2.166.793,3.388,3.388,0,0,1,0-6.773,3.5,3.5,0,0,1,2.166.793.186.186,0,0,0,.244,0l2.044-2.166a.185.185,0,0,0,0-.244,6.044,6.044,0,0,0-4.515-1.769c-4.149,0-6.8,2.654-6.8,6.8s2.684,6.772,6.8,6.772a6,6,0,0,0,4.484-1.8.186.186,0,0,0,0-.244Zm-16.474,4.149a.2.2,0,0,0,.183-.183v-2.9a.176.176,0,0,0-.183-.183h-1.556c-.915-.031-1.342-.488-1.342-1.464V633.63h2.9a.176.176,0,0,0,.183-.183h0v-3.2a.176.176,0,0,0-.183-.183h-2.867v-2.807a.2.2,0,0,0-.183-.183h-3.2a.2.2,0,0,0-.183.183v11.288c0,2.99,1.678,4.729,4.668,4.729l1.769.03Zm-42.282-4.515a3.706,3.706,0,0,0,.763-2.38,3.4,3.4,0,1,0-3.447,3.478,3.57,3.57,0,0,0,2.685-1.1m.671-8.573a.2.2,0,0,1,.183-.183h3.173a.176.176,0,0,1,.183.183h0v12.874a.2.2,0,0,1-.183.183h-3.173a.176.176,0,0,1-.183-.183h0v-.976a4.887,4.887,0,0,1-3.569,1.068h-.183a6.518,6.518,0,0,1-4.637-1.708,6.819,6.819,0,0,1-1.861-5.034c0-4.027,2.563-6.65,6.559-6.65h.061a5.561,5.561,0,0,1,3.63.976Zm43.717,13.087h3.2a.2.2,0,0,0,.183-.183v-12.9a.176.176,0,0,0-.183-.183h-3.2a.176.176,0,0,0-.183.183h0v12.874a.2.2,0,0,0,.183.213m3.6-17.175a1.968,1.968,0,0,0-3.935,0,1.968,1.968,0,0,0,3.935,0" transform="translate(-67.393 -12.209)" fill="#fbfbfc"/>
      <path id="Trazado_1942" data-name="Trazado 1942" d="M868.679,607.6l-3.295,5.125a.237.237,0,0,1-.305.092c-7.626-3.844-16.443,3.2-24.192,1.526a.636.636,0,0,1-.183-.122l-5.034-7.688a.311.311,0,0,1,.092-.458.328.328,0,0,1,.244-.061,48.335,48.335,0,0,0,5.888.977c11.806.641,18.182-6.437,26.724.274C868.74,607.326,868.74,607.479,868.679,607.6Zm-9.64,14.735c.061.031.122,0,.183-.061l4.027-6.223a.122.122,0,0,0-.061-.183h-.031c-5.8-1.983-11.2,1.83-19.463,2.044a.366.366,0,0,0-.336.366.233.233,0,0,0,.061.153l8.939,13.759a.237.237,0,0,0,.305.091.257.257,0,0,0,.122-.213l-1.922-8.725a.217.217,0,0,1,.092-.183C851.595,622.915,856.659,621.207,859.039,622.335Z" fill="#fbfbfc"/>
      <path id="Trazado_1943" data-name="Trazado 1943" d="M1201.67,635.6a1.159,1.159,0,1,1-2.319,0h0a1.159,1.159,0,0,1,2.319,0Zm-1.159.976a.9.9,0,0,0,.946-.885V635.6a.946.946,0,1,0-1.891,0h0a.9.9,0,0,0,.854.976Zm.183-.854a.374.374,0,0,0,.3-.427.367.367,0,0,0-.4-.3h-.549v1.19h.183v-.427h.244l.367.427h.183v-.031Zm-.061-.58a.213.213,0,1,1,0,.427h-.366v-.427Z" transform="translate(-231.555 -19.157)" fill="#fbfbfc"/>
    </g>
  </g>
</svg>
