<svg xmlns="http://www.w3.org/2000/svg" xmlns:xlink="http://www.w3.org/1999/xlink" width="140" height="140" viewBox="0 0 140 140">
  <defs>
    <clipPath id="clip-path">
      <rect id="Rectangle_835" data-name="Rectangle 835" width="140" height="140" transform="translate(0.102)" fill="#1c1c21"/>
    </clipPath>
  </defs>
  <g id="Mask_Group_208" data-name="Mask Group 208" transform="translate(-0.102)" clip-path="url(#clip-path)">
    <g id="Group_981" data-name="Group 981" transform="translate(24.86 49.498)">
      <path id="Path" d="M376.685,44.087l3.244-10.759a3.815,3.815,0,0,1,2.194-2.346,2.831,2.831,0,0,1,3.609.948c.18.391.763.136.763.136l3.741-1.146c2.915-.825,3.7,1.579,3.7,1.579l1.549,3.308a4.455,4.455,0,0,1-.12,2.7,5.986,5.986,0,0,1-1.579,2.044c3.292-.421,4.194,3.59,4.194,3.59.992.21,1.877,2.615,1.877,2.615.347.763.527.763.527.763-1.459-6.957,2.074-10.112,2.074-10.112a4.638,4.638,0,0,1,3.628-1.755c3.472,0,3.8,3.817,3.8,3.817.044.916,1.216.345,1.216.345a2.168,2.168,0,0,0,1.322-1.637l1.953-7.169a2.034,2.034,0,0,1,1.9-1.533h2.581c1.024.074,1.7,1.849,1.7,1.849l1.336,3.052,2.645-8.161a2.287,2.287,0,0,1,3.306-1.2l1.713,1.2a4.209,4.209,0,0,1,1.006,1.639l1.322,2.945a6.121,6.121,0,0,1-.254,3.126l-.375,1.5c1.022.555,1.817,3.741,1.817,3.741,3.232-7.017,7.409-6.582,7.409-6.582,3.186.287,3.771,3.623,3.771,3.623.751.1,1.609,2.042,1.609,2.042a35.222,35.222,0,0,1,3.065-6.746c.962-1.563,3.262-1.068,3.262-1.068.705.166,1.683,1.443,1.683,1.443a21.81,21.81,0,0,1,1.441,3.142c.617-1.2,2.45-.842,2.45-.842l1.893.481c.9.3,1.413,1.589,1.413,1.589l1.517,3.426a5.031,5.031,0,0,1-.148,2.39l-5.71,13.589c-.319.707-1.052,2.511-1.052,2.511a8.094,8.094,0,0,0-.4,1.4c-1.128,3.066-3.653,2.7-3.653,2.7-3.156.06-4-1.938-4-1.938l-1.489-3.021a2.236,2.236,0,0,1,.212-2.3,3.074,3.074,0,0,1,1.713-1.024c.435-.12.555-.705.555-.705l.286-.9a5.048,5.048,0,0,1-1.352-1.144c-2.721,3.5-5.636,2.148-5.636,2.148a4.254,4.254,0,0,1-6.147.451,10.747,10.747,0,0,1-2.629-4.069c-3.232,8.143-8.612,7.858-8.612,7.858-2.989-.09-3.863-1.591-3.863-1.591-2.659,3.953-8.267,2.571-8.267,2.571a2.854,2.854,0,0,1-2.044.691,2.483,2.483,0,0,1-2.781,1.8,8.476,8.476,0,0,1-6.1-2.525c-2.7,4.31-5.752,2.7-5.752,2.7a4.312,4.312,0,0,1-5.56,1.024,5.449,5.449,0,0,1-1.789-1.939,15.783,15.783,0,0,1-10.295,5.576,3.437,3.437,0,0,1-3.29-1.547l-1.923-4.013a7.487,7.487,0,0,1,0-4.418l2-6.866c-2.344-3.005,1.248-4.3,1.248-4.3a.916.916,0,0,0,.585-.707" transform="translate(-372.5 -24.704)" fill="#1a0b08"/>
      <path id="Path-2" d="M387.031,56.249c-4.324,4.48-6.852-.763-6.852-.763C377.941,51.2,381.5,45.163,381.5,45.163c3.005-5.2,5.847-4.374,5.847-4.374,2.587.313,2.855,3.406,2.855,3.406,2.18.319,1.308,3.172,1.308,3.172a20.5,20.5,0,0,0-1.591,4.929,9.989,9.989,0,0,0,2.825-3.771c3.168,3.172,3.168,2.751,3.168,2.751.271-.319-.705-1.879-.705-1.879-3.368-6.582.345-11.3.345-11.3,2.661-3.863,5.366-1.639,5.366-1.639,1.954,1.591,1.112,6.642,1.112,6.642-.663,2.39-2.344,1.264-2.344,1.264-.106-.888-.509-.858-.509-.858-1.384.465-.587,3.771-.587,3.771a29.242,29.242,0,0,0,1.457,3.412,6.555,6.555,0,0,1,.751,1.757c2.316-1.907,3.426-8.219,3.426-8.219a2.351,2.351,0,0,0-.8-1.984c-1.2-1.264-.27-1.835-.27-1.835a1.948,1.948,0,0,1,.96-.347,2.57,2.57,0,0,0,1.954-1.819c1.759-6.492,2.06-7.377,2.06-7.377a1.621,1.621,0,0,1,1.383-1.156,8.445,8.445,0,0,1,2.18,0,1.331,1.331,0,0,1,.829,1.689l0,.008-1.353,5.44c-.24.962-.15,1.082-.15,1.082.062.254.391.15.391.15a4.79,4.79,0,0,1,2.27-.03,1.1,1.1,0,0,1,.527.721L418.26,26.2a1.669,1.669,0,0,1,1.983-1.04,7.1,7.1,0,0,1,1.863,1.188,2.037,2.037,0,0,1,.467,2.194l-1.863,6.235c4.208-1.2,4.418,4.494,4.418,4.494.014,5.788-3.849,10.445-3.849,10.445-5.35,6.237-9.3,1.156-9.3,1.156a7.314,7.314,0,0,1-8.355,2.827,3.392,3.392,0,0,1-2.571.842c-.319,2.268-2.689,1.713-2.689,1.713a10.561,10.561,0,0,1-5.636-2.855c-3.412,5.139-5.7,2.855-5.7,2.855" transform="translate(-365.535 -24.304)" fill="#fff"/>
      <path id="Path-3" d="M386.658,49.378c-2.164,3.32-4.314,2.058-4.314,2.058-3.322-1.8-2.416-6.355-2.416-6.355,1.378-7.546,5.632-9.183,5.632-9.183,3.606-.932,3.606,3.306,3.606,3.306.647,0,1.308.166,1.353,1.128a5.778,5.778,0,0,1-.585,2.511C388.671,46,388.7,46.9,388.7,46.9c0,1.382,1.1.421,1.1.421a10.541,10.541,0,0,0,2.811-3.156c2.841,2.959,3.38,1.938,3.38,1.938.811-.932-.541-2.7-.541-2.7-3.29-6.357.393-10.731.393-10.731,2.028-2.615,3.544-1.743,3.544-1.743,1.972.842,1.743,4.194,1.743,4.194.2,3.861-1.292,3.1-1.292,3.1-.9-2.36-2.058-.509-2.058-.509a5.663,5.663,0,0,0-.2,4.282,40.346,40.346,0,0,0,1.909,4.224c1.186,2.735-.03,3.516-.03,3.516-3.382,1.068-7.155-3.1-7.155-3.1-3.951,6.161-5.65,2.751-5.65,2.751" transform="translate(-365.159 -18.603)" fill="#fff"/>
      <path id="Path-4" d="M392.828,52.578c-1.683,1.352-2.841.707-2.841.707,3.382-2.585,4.39-9.319,4.39-9.319a2.8,2.8,0,0,0-1.158-2.735c-.585-.481-.03-.675-.03-.675,2.451-.541,2.841-1.863,2.841-1.863,1.1-3.546,2.09-7.68,2.09-7.68a1.353,1.353,0,0,1,1.1-.992,5.807,5.807,0,0,1,1.292,0c1.068.03.721,1.128.721,1.128l-1.447,5.514c-.421,1.833.541,1.757.541,1.757l2.12-.2c.781.03.361.467.361.467a7.472,7.472,0,0,1-.763.465,11.005,11.005,0,0,0-2.33,1.4,10.712,10.712,0,0,0-2.615,4.913,30.422,30.422,0,0,0-.705,2.975c-.331,2.314,1.623,1.623,1.623,1.623a8.549,8.549,0,0,0,4-4.418l6.237-19.385a1.117,1.117,0,0,1,.932-.8c.631.03,1.743,1.008,1.743,1.008a1.722,1.722,0,0,1,.391,1.517l-2.328,7.83c2.1-1.517,3.216-.509,3.216-.509,2.434,1.729,1.459,5.891,1.459,5.891a16.393,16.393,0,0,1-4.825,9.092,4.94,4.94,0,0,1-3.456,1.441c-3.456-.18-3.757-2.661-3.757-2.661-3.713,5.816-8.792,3.5-8.792,3.5" transform="translate(-354.95 -23.939)" fill="#fff"/>
      <path id="Path-5" d="M410.043,45.55c-3.891,4.164-6.582-.287-6.582-.287-2.721-5.123,1.473-11.481,1.473-11.481,3.306-4.735,6.025-3.621,6.025-3.621,2.136.645,2.3,3.366,2.3,3.366,2.18.391,1.429,2.929,1.429,2.929a13.853,13.853,0,0,1-.8,2.436c-.946,2.118-.8,2.7-.8,2.7.4.074,1.727-2.134,1.727-2.134a13.941,13.941,0,0,0,1.473-3.576,41.675,41.675,0,0,1,3.021-6.991,2.15,2.15,0,0,1,2.226-1.022,3.845,3.845,0,0,1,1.954,2.03,2.319,2.319,0,0,1-.271,2.226,39.357,39.357,0,0,0-3.065,7.109c-.391,1.308-.046,1.577-.046,1.577.647.27,1.639-.9,1.639-.9A5.244,5.244,0,0,0,422.77,38.1l2.543-5.366a1.762,1.762,0,0,1,1.639-1.144,6.077,6.077,0,0,1,2.448.675c1.232.918.451,2.781.451,2.781l-6.267,14.895a15.106,15.106,0,0,0-.841,2.3,3.009,3.009,0,0,1-3.426,2.494c-2.989-.361-2.735-1.893-2.735-1.893.044-.763.916-1.112.916-1.112a9.486,9.486,0,0,0,1.112-.437c.391-.194.557-.9.557-.9,1.262-3.741,1.817-5.516,1.817-5.516-3.727,1.308-5.151-1.623-5.151-1.623-3.967,4.478-5.788,2.3-5.788,2.3" transform="translate(-342.349 -21.554)" fill="#fff"/>
      <path id="Path-6" d="M409.744,44c-2.074,3.1-4.133,2.15-4.133,2.15-4.011-1.789-2.462-7.439-2.462-7.439,1.893-7.95,6.6-8.293,6.6-8.293,2.45-.393,2.587,3.528,2.587,3.528,2.192-.361,1.018,2.767,1.018,2.767-2.18,5.68-.916,5.56-.916,5.56,1.743-.09,3.681-5.169,3.681-5.169,2.514-6.718,3.655-8.417,3.655-8.417a1.171,1.171,0,0,1,1.635-.254,1.55,1.55,0,0,1,.124.1c1.577,1.473.992,2.452.992,2.452a39.8,39.8,0,0,0-3.5,8.175c-.525,2.03.948,2.06.948,2.06C421.6,41.1,422.639,39,422.639,39c2.434-4.961,2.961-6.357,2.961-6.357a1.242,1.242,0,0,1,1.591-.633c.737.2,1.4.391,1.4.391a1.421,1.421,0,0,1,.317,1.743L421.962,50.9c-.27.707-.435,1.2-.435,1.2a2.563,2.563,0,0,1-2.751,1.549c-2.03-.481-1.893-1.068-1.893-1.068.03-.481.8-.631.8-.631,1.519-.525,1.639-1.35,1.639-1.35,1.549-4.119,2.51-7.7,2.51-7.7-4.915,3.5-6.223-1.623-6.223-1.623C411.323,47.6,409.744,44,409.744,44" transform="translate(-342.036 -21.19)" fill="#fff"/>
      <path id="Path-7" d="M383.095,43.768s-.721,1.024-1.459.767-.539-2.615-.539-2.615c1.142-4.929,3.7-6.989,3.7-6.989,1.156-.645,1.413,1.038,1.413,1.038.09,2.9-3.112,7.8-3.112,7.8" transform="translate(-363.896 -14.588)" fill="#fff"/>
      <path id="Path-8" d="M382.413,38.769C384.348,34.8,385,35.162,385,35.162c.705.763-1.022,4.478-1.022,4.478-1.907,4.057-2.374,3.833-2.374,3.833-.178-.12-.21-.495-.15-.976a11.678,11.678,0,0,1,.962-3.729" transform="translate(-363.545 -14.217)" fill="#1a0b08"/>
      <path id="Path-9" d="M399.837,32.248c-1.579,5.079-2.03,6.327-2.03,6.327-1.893,4.069-4.118,4.069-4.118,4.069-.361-.164,0-1.713,0-1.713a19.44,19.44,0,0,1,1.621-4.957,5.241,5.241,0,0,1,2.416-2.416Z" transform="translate(-351.394 -17.133)" fill="#1a0b08"/>
      <path id="Path-10" d="M375.286,45.458c-1.7-1.623-.194-2.825-.194-2.825A2.456,2.456,0,0,1,376.2,42a1.345,1.345,0,0,0,.827-1.144c2.358-8.161,3.216-10.565,3.216-10.565a3.191,3.191,0,0,1,2.825-2.312,1.919,1.919,0,0,1,1.7,1.2.7.7,0,0,0,.87.391l4.376-1.322c2.36-.495,2.661,1.2,2.661,1.2a3.756,3.756,0,0,1-.948,3.054,2.866,2.866,0,0,1-1.667.944,22.5,22.5,0,0,0-4.795,1.623c-.645.287-.705.707-.705.707l-1.308,3.8c3.442-1.306,3.863-.24,3.863-.24,1.306,1.579-.21,3.817-.21,3.817-.9,1.533-5.352,2.689-5.352,2.689l-1.5,5.562,3.729-1.112c3.11-.631,1.8,2.659,1.8,2.659a16.271,16.271,0,0,1-4.945,3.8c-3.743,1.743-4.568,1.517-4.568,1.517-4.117-.074-2.989-4.492-2.989-4.492Z" transform="translate(-372.062 -21.417)" fill="#fff"/>
      <path id="Path-11" d="M377.3,41.024l3.262-10.836c.826-2.134,2.254-1.833,2.254-1.833a1.491,1.491,0,0,1,1.068.886c.435,1.054,1.683.647,1.683.647l4.418-1.322a1.241,1.241,0,0,1,1.639.629c.016.034.03.07.044.108a2.683,2.683,0,0,1-.377,1.847,3.211,3.211,0,0,1-1.591,1.232l-3.46.932c-2.134.6-2.571,1.368-2.571,1.368l-1.7,5.544,2.765-.872a1.537,1.537,0,0,1,1.623.15c.751,1.158-.361,2.7-.361,2.7a4.225,4.225,0,0,1-2.15,1.549l-3.258,1.186-1.683,6.223c-.347.99.812.541.812.541l3.951-1.112a.89.89,0,0,1,1.158.465,1.74,1.74,0,0,1-.271,1.352A19.456,19.456,0,0,1,377,57.027c-2.645.647-3.456-.9-3.456-.9-.691-1.4.12-3.745.12-3.745l2.03-7.183c.09-.361-.046-.465-.046-.465-1.144-.677-.721-1.489-.721-1.489a2.55,2.55,0,0,1,1.4-1.068,1.735,1.735,0,0,0,.978-1.156" transform="translate(-371.733 -21.055)" fill="#fff"/>
      <path id="Path-12" d="M404.807,40.779c-1.893-1.112.828-6.748.828-6.748,2.074-4.087,3.244-3.054,3.244-3.054,1.579,1.551-1.186,6.48-1.186,6.48-1.893,3.787-2.885,3.322-2.885,3.322" transform="translate(-340.749 -18.526)" fill="#fff"/>
      <path id="Path-13" d="M405.544,34.869c1.935-3.967,2.585-3.607,2.585-3.607.705.763-1.022,4.478-1.022,4.478-1.907,4.057-2.374,3.831-2.374,3.831-.178-.12-.21-.495-.15-.976a12.114,12.114,0,0,1,.962-3.727" transform="translate(-340.33 -18.131)" fill="#1a0b08"/>
      <path id="Path-14" d="M402.048,31.3c2.3,1.2-.24,7.379-.24,7.379-2.224,4.929-3.683,4.344-3.683,4.344-1.623-.781,1.4-8.1,1.4-8.1,1.352-3.949,2.524-3.619,2.524-3.619" transform="translate(-347.263 -18.093)" fill="#fff"/>
      <path id="Path-15" d="M399.246,36.4c1.713-4.795,2.27-4.735,2.27-4.735.285.136.3.661.361,1.308a9.041,9.041,0,0,1-.751,4.1c-1.382,4.284-3.021,4.869-3.021,4.869-.1.046-.074-.451-.074-.451a14.909,14.909,0,0,1,1.216-5.1" transform="translate(-346.882 -17.721)" fill="#1a0b08"/>
      <path id="Shape-2" d="M407.388,40.7a.975.975,0,0,1,.988-.962h0a.962.962,0,0,1,0,1.923h0a.968.968,0,0,1-.992-.94Z" transform="translate(-337.486 -9.613)" fill="#1a0b08"/>
    </g>
  </g>
</svg>
