<svg xmlns="http://www.w3.org/2000/svg" width="140" height="140" viewBox="0 0 140 140">
  <g id="Group_986" data-name="Group 986" transform="translate(-0.054)">
    <path id="Fill-1" d="M141.8,240.32a.737.737,0,0,1,.71.633c.211.767-.786,2.627-4.276,4.756.1-2.493,1.592-5.388,3.567-5.388m-10.643,0c.575,0,.614.575.652.786.153,1.074-.844,2.991-4.123,4.084.345-2.3,1.86-4.871,3.471-4.871m-14.075-9.013c1.093,0,.192,3.758-3.3,9.013.786-6.961,1.956-9.013,3.3-9.013m-12.1,9.013c.326,0,.4.269.46.4.134.479-.364,2.378-4.142,5.024.192-2.531,1.745-5.427,3.682-5.427M89.3,261.644c-.383,0-.652-.249-.652-.748,0-2.263,3.528-5.35,3.567-5.369-.479,3.049-1.707,6.117-2.915,6.117m58.333-14.938a1.3,1.3,0,0,0-1.8.364,5.681,5.681,0,0,1-4.391,2.4,2.942,2.942,0,0,1-2.435-1,.583.583,0,0,1-.1-.134c.019,0,.019-.019.038-.019,6.443-3.7,6.4-6.865,6.1-8.054a3.206,3.206,0,0,0-3.222-2.339c-3.682,0-6.155,4.123-6.155,7.958a8.272,8.272,0,0,0,.115,1.4c-1.3.959-3.337,2.167-5.12,2.167a2.831,2.831,0,0,1-2.32-.92,3.3,3.3,0,0,1-.422-.71c4.947-1.438,6.807-4.583,6.462-7.095a3.062,3.062,0,0,0-2.991-2.8c-3.432,0-5.925,3.605-6.328,7.191a4.367,4.367,0,0,1-1.783-.594,10.046,10.046,0,0,0,.134-1.649,6.039,6.039,0,0,0-.652-2.934,2.938,2.938,0,0,0-2.627-1.611,1.636,1.636,0,0,0-1.438.882c-.633,1.17-.23,3.432.94,5.273a6.571,6.571,0,0,0,.748.978c-.652,2.071-1.975,4.027-3.72,4.027a2.334,2.334,0,0,1-1.841-.767,6.37,6.37,0,0,1-1.266-3.739c4.851-6.06,7.191-11.985,5.868-14.784a2.509,2.509,0,0,0-2.339-1.5c-3.356,0-5.35,4.334-6.1,13.25-.038.537-.077,1.208-.077,1.918-1.783,2.416-4.717,5.58-7.363,5.58a1.921,1.921,0,0,1-1.687-.786c-.038-.038-.058-.1-.1-.134.038-.019.058-.038.1-.058,6.5-4.2,6.4-7.344,6.06-8.514a2.9,2.9,0,0,0-2.953-2.052c-3.778,0-6.328,4.353-6.328,8.4a6.586,6.586,0,0,0,.077,1.074c-1.189.863-2.186,1.63-3.126,2.359.134-1.112.345-2.512.594-4.621h0c.058-.422.1-.767.134-.94.211-1.534-2.3-1.86-2.589-.134-.288,1.764-1.035,5.427-3.126,5.427-1.246,0-1.918-1.4-1.783-3.413.192-3.183,1.918-5.791,4.046-5.791a1.409,1.409,0,0,1,1.112.786c.671,1.227,2.761.192,2.32-1.112-.192-.575-.9-2.013-3.337-2.013-4.986,0-6.539,5.043-6.75,8.38a10.953,10.953,0,0,0,.019,1.592,3.576,3.576,0,0,1-2.339,1.572c-.786,0-1.285-.882-1-2.915.288-1.937.479-3.547.614-4.487.614-4.238-4.7-4.123-4.7-4.123s-.058-2.474-2.109-2.474a2.06,2.06,0,0,0-1.975,2.339,2.57,2.57,0,0,0,1.17,2.109h0c-.249,2.205-1.285,9.53-3.586,9.53-1.036,0-1.093-1.112-1.016-1.9.134-1.093.326-2.915.383-3.394.211-1.534-2.32-1.86-2.589-.134-.288,1.764-1.036,5.427-3.126,5.427-1.246,0-1.918-1.572-1.822-3.471.173-3.26,1.937-5.733,4.065-5.733a1.409,1.409,0,0,1,1.112.786c.556,1.208,2.742.345,2.32-1.112-.192-.633-.9-2.013-3.337-2.013-4.986,0-6.539,5.043-6.75,8.38a9.672,9.672,0,0,0,.019,1.5,3.4,3.4,0,0,1-2.378,1.668c-.748,0-1.3-.384-1.17-2.052.058-.786.978-6.136.92-7.114-.1-1.63-.844-2.339-2.646-2.339a5.717,5.717,0,0,0-3.95,1.611s.9-6.769,1.074-8.054c.173-1.361-2.435-1.381-2.608-.019-.077.594-.767,5.944-1.419,10.892-1.419,3.26-4.372,8.246-8.744,8.246-8.284,0-4.468-18.064,3.3-18.064,1.822,0,1,2.9-.211,4.679-.863,1.266,1.323,2.723,2.531.671,3.337-5.638.518-7.766-2.129-7.766-11.525,0-15.8,22.973-3.8,22.973a10.044,10.044,0,0,0,8.3-4.6c-.173,1.361-.307,2.282-.326,2.454-.211,1.419,2.454,1.3,2.589.115.1-.748.479-3.931.825-6.347.192-1.381,1.879-3.931,3.816-3.931a.736.736,0,0,1,.69.844c-.077.46-.9,6.462-.844,7.363.153,2.512,1.956,3.087,3.663,3.087a4.35,4.35,0,0,0,3.337-1.649,3.143,3.143,0,0,0,2.8,1.649,4.215,4.215,0,0,0,3.873-2.071,2.659,2.659,0,0,0,2.838,2.052c5.043,0,6.213-8.782,6.462-11.716.288.019,2.071.115,2.378,1.112.288.959-.614,4.027-.69,7.172-.038,1.668.575,3.452,3.2,3.452a5.524,5.524,0,0,0,3.778-1.572,3.134,3.134,0,0,0,2.761,1.572,4.847,4.847,0,0,0,2.991-.92l-.115.805v.057c0-.057-6.654,4.756-6.654,9.281a2.6,2.6,0,0,0,2.915,2.934c4.161,0,5.465-5.561,6.079-10.163.038-.211.058-.422.077-.614.652-.5,1.266-.959,1.841-1.419.863-.671,1.707-1.323,2.665-2.033a2.029,2.029,0,0,0,.134.211,4.453,4.453,0,0,0,3.8,1.86c3.011,0,5.81-2.32,7.824-4.583a7.173,7.173,0,0,0,1.553,3.011,4.924,4.924,0,0,0,3.758,1.592c2.876,0,4.89-2.3,5.925-4.967a7.137,7.137,0,0,0,2.589.633,6.152,6.152,0,0,0,1.131,2.455,5.362,5.362,0,0,0,4.334,1.86,11.4,11.4,0,0,0,6.1-2.282c.077.115.153.211.23.326a5.419,5.419,0,0,0,4.449,1.956,8.291,8.291,0,0,0,6.558-3.567,1.3,1.3,0,0,0-.345-1.822" transform="translate(-20.955 -176.106)" fill="#fff"/>
    <rect id="Rectangle_822" data-name="Rectangle 822" width="140" height="140" transform="translate(0.054)" fill="none"/>
  </g>
</svg>
