<svg xmlns="http://www.w3.org/2000/svg" width="140" height="140" viewBox="0 0 140 140">
  <g id="Group_988" data-name="Group 988" transform="translate(-0.021)">
    <g id="layer1" transform="translate(44.865 53.526)">
      <path id="path2998" d="M2020.09,499.143a3.587,3.587,0,0,0,2.47-3.482c0-2.616-2.6-4.387-6.09-4.387h-8.105v16.682h8.735c3.438,0,6.615-1.207,6.615-4.751C2023.715,500.81,2021.989,499.715,2020.09,499.143Zm-6.374-3.983h1.967a1.371,1.371,0,0,1,1.411,1.264,1.391,1.391,0,0,1-1.411,1.224h-1.967Zm2.439,8.956h-2.439v-3.005h2.6a1.608,1.608,0,0,1,1.667,1.475A1.638,1.638,0,0,1,2016.156,504.116Z" transform="translate(-2008.365 -490.796)" fill="#fff"/>
      <path id="path3005" d="M2030.205,542.379a3.588,3.588,0,0,0,2.469-3.483c0-2.616-2.595-4.387-6.089-4.387h-8.1v16.682h8.735c3.438,0,6.615-1.206,6.615-4.751C2033.83,544.045,2032.1,542.952,2030.205,542.379Zm-6.374-3.984h1.967a1.371,1.371,0,0,1,1.412,1.264,1.391,1.391,0,0,1-1.412,1.224h-1.967Zm2.439,8.956h-2.439v-3.005h2.6a1.608,1.608,0,0,1,1.667,1.476A1.639,1.639,0,0,1,2026.27,547.351Z" transform="translate(-2014.152 -515.529)" fill="#fff"/>
      <path id="path3007" d="M2045.216,507.952V491.27h13.457V495.3h-8.121v2.187h6.594v3.778h-6.594v2.675h8.121v4.013Z" transform="translate(-2029.446 -490.793)" fill="#fff"/>
      <path id="path3009" d="M2084.3,507.793c3.787,0,6.817-2.161,6.817-5.662,0-5.65-7.351-4.781-7.351-6.54,0-.68.715-1.04,1.448-1.04a3.539,3.539,0,0,1,2.176.832l3.162-3.011a8.488,8.488,0,0,0-5.952-2.215c-4.042,0-6.686,2.4-6.686,5.292,0,5.722,7.245,4.892,7.245,6.688,0,.63-.606,1.262-1.7,1.262a4.818,4.818,0,0,1-3-1.391l-3.181,3.033A9.421,9.421,0,0,0,2084.3,507.793Z" transform="translate(-2047.781 -490.156)" fill="#fff"/>
      <path id="path3011" d="M2113.357,507.952V495.283h-4.407V491.27h14.165v4.013h-4.407v12.669Z" transform="translate(-2065.906 -490.793)" fill="#fff"/>
      <path id="path3013" d="M2054.778,534.482h5.336v9.994a2.112,2.112,0,0,0,2.063,1.95,2.037,2.037,0,0,0,2-2v-9.941h5.319v9.872a7.361,7.361,0,0,1-14.715-.213Z" transform="translate(-2034.916 -515.513)" fill="#fff"/>
      <path id="path3015" d="M2096.155,551.164V545.2l-6.271-10.722h5.4l3.549,5.745,3.56-5.745h5.411l-6.3,10.783v5.9Z" transform="translate(-2054.999 -515.513)" fill="#fff"/>
      <path id="Path_1817" data-name="Path 1817" d="M2127.544,555.817l-3.147,3.148v4.249l3.147,3.148h13.314V555.817Zm-1.225,5.979a.708.708,0,1,1,.709-.709A.708.708,0,0,1,2126.319,561.8Z" transform="translate(-2074.742 -527.718)" fill="#fff"/>
    </g>
    <rect id="Rectangle_816" data-name="Rectangle 816" width="140" height="140" transform="translate(0.021)" fill="none"/>
  </g>
</svg>
