<svg xmlns="http://www.w3.org/2000/svg" xmlns:xlink="http://www.w3.org/1999/xlink" width="140" height="140" viewBox="0 0 140 140">
  <defs>
    <clipPath id="clip-path">
      <rect id="Rectangle_839" data-name="Rectangle 839" width="140" height="140" transform="translate(0.041)" fill="#1c1c21"/>
    </clipPath>
  </defs>
  <g id="Mask_Group_211" data-name="Mask Group 211" transform="translate(-0.041)" clip-path="url(#clip-path)">
    <g id="Group_987" data-name="Group 987" transform="translate(24.122 53.699)">
      <path id="Clip_2-2" data-name="Clip 2-2" d="M280,26h91.265V58.827H280Z" transform="translate(-280 -26)" fill="none"/>
      <rect id="Rectangle_838" data-name="Rectangle 838" width="91.265" height="32.826" fill="none"/>
      <path id="Path_1900" data-name="Path 1900" d="M344.022,51.677a1.26,1.26,0,0,0-.721-.993c-2.643-1.761-12.349-2.915-25.948-2.915s-23.64.865-26.3,2.548c-.464.288-.7.608-.7.944v.193l-.447.208c.447.3.929.624,1.426.929a28.321,28.321,0,0,0,3.01,1.634c6.3,2.979,14.5,4.627,23.1,4.627s16.8-1.648,23.1-4.627a28.016,28.016,0,0,0,2.594-1.378,16.981,16.981,0,0,0,1.489-.96Zm-26.588,5.591c-10.107,0-19.283-2.4-25.066-6.038a20.826,20.826,0,0,1,4.244-.962c3.3-.5,9.578-1.073,20.775-1.073a129.652,129.652,0,0,1,19.924,1.186A23.683,23.683,0,0,1,342.05,51.5C336.253,54.977,327.283,57.268,317.433,57.268Zm24.586-25.9c-.48-.256-.977-.511-1.489-.752-.466-.225-.946-.433-1.442-.641a61.013,61.013,0,0,0-43.309,0c-.5.208-.977.416-1.442.641-.513.241-1.009.5-1.489.752Zm-24.586-3.779a57.773,57.773,0,0,1,16.786,2.386H300.647A57.773,57.773,0,0,1,317.433,27.589Z" transform="translate(-271.828 -25.999)" fill="#fff"/>
      <path id="Path_1901" data-name="Path 1901" d="M334.964,29.572h-41.29a39.193,39.193,0,0,1,3.859-1.393h33.572A39.2,39.2,0,0,1,334.964,29.572Z" transform="translate(-268.714 -24.203)" fill="#fff"/>
      <path id="Path_1902" data-name="Path 1902" d="M342.78,40.842q-.6.411-1.25.818a23.677,23.677,0,0,0-4.74-1.121,129.653,129.653,0,0,0-19.924-1.186c-11.2,0-17.474.577-20.775,1.073a20.825,20.825,0,0,0-4.244.962c-.464-.3-.9-.593-1.314-.913,2.66-1.683,12.686-2.548,26.3-2.548S340.137,39.081,342.78,40.842Z" transform="translate(-271.307 -16.157)" fill="#fff"/>
      <path id="Path_1903" data-name="Path 1903" d="M368.224,28.179H283.015a3.039,3.039,0,0,0-2.147.9A3.1,3.1,0,0,0,280,31.3l1.891,18.692a3.186,3.186,0,0,0,3.01,3.09l9.627-.031L299.5,50.8l.239-.113.241-.111-.017-.865a4.225,4.225,0,0,1,.577-.272,20.828,20.828,0,0,1,4.244-.962c3.3-.5,9.578-1.073,20.775-1.073a129.653,129.653,0,0,1,19.924,1.186,23.681,23.681,0,0,1,4.741,1.121,3.1,3.1,0,0,1,.61.288v.9l.464.161,5.7,2,9.339.016a3.1,3.1,0,0,0,3.01-3.028l1.922-18.756v-.08A3.028,3.028,0,0,0,368.224,28.179Zm1.6,3.043-1.906,18.692a1.753,1.753,0,0,1-1.634,1.761l-9.129-.031-4.374-1.553-.591-.21a1.26,1.26,0,0,0-.721-.993c-2.643-1.761-12.349-2.915-25.948-2.915s-23.64.865-26.3,2.548c-.464.288-.7.608-.7.944v.193l-.447.208-3.925,1.793-9.273.016a1.763,1.763,0,0,1-1.619-1.761l-1.906-18.723a1.624,1.624,0,0,1,1.617-1.619h85.225a1.627,1.627,0,0,1,1.634,1.619Z" transform="translate(-279.998 -24.203)" fill="#fff"/>
      <path id="Fill_7" data-name="Fill 7" d="M301.989,40.241v-8.5c0-.35.331-.555,1.134-.559v-.812h-5.71v.812c.7,0,1.143.208,1.143.559l-.018,3.512H294.18V31.742c0-.35.436-.559,1.132-.559v-.812h-5.717v.812c.809,0,1.134.208,1.134.61V42.347c0,.537-.814.969-1.141,1.082l.007.847c2.4-.668,3.569-.92,5.721-1.358v-.807s-1.139-.022-1.137-.575V36.913h4.379l-.007,3.855c-.1.61-.367.794-1.146.951v.807c2.541-.4,3.872-.6,5.732-.794l-.005-.831s-1.117-.086-1.137-.663Z" transform="translate(-272.087 -22.393)" fill="#fffffd"/>
      <path id="Fill_8" data-name="Fill 8" d="M292.408,43.715c-2.9,3.185-6.38.5-6.38-5.336,0-2.227,1.393-6.332,3.627-6.314,2.95.026,4.518,3.129,4.518,3.129h.812V30.6h-.825a1.865,1.865,0,0,1-1.55.6c-.772-.131-1.344-1.03-2.917-1.11-3.607-.193-7.559,3.835-7.559,8.326,0,5.984,4.682,8.944,7.022,8.787,3.337-.219,2.49-1.5,5.832-2.5V40.982h-.829a11,11,0,0,1-1.752,2.733Z" transform="translate(-278.238 -22.629)" fill="#fffffd"/>
      <path id="Fill_9" data-name="Fill 9" d="M320.775,43.24h0c-2.545-.535-3.93-.75-5.535-1l-.2-.033v-.814l.095-.009c.491-.046,1.048-.1,1.053-.732V31.826c-.035-.593-.526-.643-1.026-.643h-.115v-.812h8.691a2.244,2.244,0,0,1,1.615.949,3.848,3.848,0,0,1,.823,2.4,3.12,3.12,0,0,1-1.02,2.326,3.029,3.029,0,0,1-1.493.807h-4.034v4.406a1.223,1.223,0,0,0,1.146,1.176v.8ZM319.64,31.62v3.634h2.276c.694-.005,1.181-1.186,1.181-1.825s-.4-1.809-1.185-1.809Z" transform="translate(-251.08 -22.393)" fill="#fffffd"/>
      <path id="Fill_10" data-name="Fill 10" d="M324.046,33.19c-.053-1.433,1.331-1.688,2.453-1.535a5.566,5.566,0,0,1,3.9,3.1h.818V30.619H330.4c-.115,1.245-2.483-.509-4.733-.553a3.578,3.578,0,0,0-3.928,3.021c-.827,6.445,8.444,6.445,8.444,9.209a2.992,2.992,0,0,1-3.428,2.713c-3.631-.257-4.54-5.2-4.58-5.655h-.812v5.757c2.462-.077,3.231,1.515,5.341,1.69,1.758.142,6.146-.98,6.146-5.626,0-5.726-8.694-4.8-8.807-7.986Z" transform="translate(-245.859 -22.646)" fill="#fffffd"/>
      <path id="Fill_11" data-name="Fill 11" d="M314.007,35.185l-2.953-4.814h-5.1v.812c.719,0,1.141.219,1.141.57l-.011,7.657c0,.65-1.115.734-1.115.734l.005.8c2.771.046,3.848.082,4.921.128v-.814c-.455-.049-1.1-.252-1.113-.772V34.874l3.7,6.223c.086.172.206.172.283,0l3.364-5.973v4.753c-.135.537-.619.659-1.135.745v.8c1.749.159,2.7.27,5.7.655v-.814a1.461,1.461,0,0,1-1.123-.966V31.756c0-.341.416-.575,1.132-.575v-.81h-4.956l-2.731,4.814Z" transform="translate(-258.581 -22.393)" fill="#fffffd"/>
      <path id="Fill_12" data-name="Fill 12" d="M297.392,41.665h0v-.832c.617-.088.931-.2,1.166-.653.223-.422.947-1.727,1.712-3.11h0c1.07-1.931,2.284-4.118,2.493-4.554.223-.456.266-.8.13-1.03a.794.794,0,0,0-.7-.3v-.816H307l3.948,8.944a1.851,1.851,0,0,0,1.267.807l-.005.809c-.385,0-.765-.007-1.166-.007-1.557,0-3.205.035-4.9.1l.011-.8a1.469,1.469,0,0,0,.936-.369.4.4,0,0,0,.073-.327l-.387-.929h-4.64l-.508.96a.5.5,0,0,0,.066.478,1.158,1.158,0,0,0,.894.356h.036l.007.825c-1.121.031-2.906.2-5.242.445Zm7.365-7.814-1.774,3.162H306.1Z" transform="translate(-265.645 -22.393)" fill="#fffffd"/>
      <path id="Fill_13" data-name="Fill 13" d="M298.919,43.943V42.551h.823V43.2h.624c.378-.007.445-.009.442-.356v-.363c-.011-.318-.013-.345-.371-.35h-.531a1.056,1.056,0,0,1-.553-.128.951.951,0,0,1-.429-.909v-.529a.976.976,0,0,1,.38-.865,1.006,1.006,0,0,1,.633-.155h1.634v1.353h-.818v-.606H300.1c-.248.005-.321.007-.321.349v.33c-.006.318.075.332.381.34h.464a1.172,1.172,0,0,1,.661.144.957.957,0,0,1,.382.9v.544a1.059,1.059,0,0,1-.139.635,1,1,0,0,1-.891.413h-1.716Z" transform="translate(-264.385 -14.83)" fill="#fffffd"/>
      <path id="Fill_14" data-name="Fill 14" d="M302.525,43.954h-1.544v-.747h.347V40.3h-.347v-.747h1.939c.933,0,1.061.46,1.061.958v.562a1.118,1.118,0,0,1-.243.827,1.044,1.044,0,0,1-.792.246h-.772v1.064h.352v.747Zm-.35-3.629v1.059h.644c.265,0,.321-.016.327-.392v-.35c-.011-.27-.031-.3-.354-.316Z" transform="translate(-262.683 -14.818)" fill="#fffffd"/>
      <path id="Fill_15" data-name="Fill 15" d="M304.211,44.011h0a.934.934,0,0,1-.986-.465,2.032,2.032,0,0,1-.109-.849V40.93c.013-.6.015-.694.111-.894a.935.935,0,0,1,.926-.464h.774c.507,0,1.039.086,1.039,1.108v2.247a1.025,1.025,0,0,1-.307.871,1.054,1.054,0,0,1-.778.214h-.642l-.027-.093Zm.23-3.706c-.423,0-.458,0-.458.582v1.836c0,.5,0,.515.339.524h.456c.314,0,.334-.066.334-.524v-1.84c.011-.549-.031-.568-.418-.58Z" transform="translate(-260.926 -14.805)" fill="#fffffd"/>
      <path id="Fill_16" data-name="Fill 16" d="M306.424,44.012h-1.206v-.747h.352V40.354h-.352v-.745h1.951c.643.02,1.066.2,1.066,1.04v.425a.791.791,0,0,1-.281.7c.321.135.347.392.347.716v.779h.358v.745H307.44V42.52c0-.279-.064-.332-.4-.332h-.619v1.824Zm0-3.658v1.082h.584c.372,0,.372-.069.372-.332v-.425c0-.23-.049-.327-.356-.327Z" transform="translate(-259.187 -14.769)" fill="#fffffd"/>
      <path id="Fill_17" data-name="Fill 17" d="M308.343,44.041v-.747h.356V40.383h-.418v.622h-.8V39.638h3.3v1.367h-.8v-.622h-.42v2.911h.347v.747Z" transform="translate(-257.322 -14.745)" fill="#fffffd"/>
      <path id="Fill_18" data-name="Fill 18" d="M309.813,44.043V42.652h.825v.643h.624c.378-.005.445-.007.44-.354v-.363c-.009-.319-.011-.345-.369-.35H310.8a1.066,1.066,0,0,1-.553-.13.947.947,0,0,1-.429-.907v-.531a.978.978,0,0,1,.38-.865,1.025,1.025,0,0,1,.635-.153h1.632v1.351h-.818v-.606h-.654c-.25.007-.327.009-.321.349v.33c-.005.318.073.334.382.34h.464a1.15,1.15,0,0,1,.659.146.959.959,0,0,1,.383.9V43a1.07,1.07,0,0,1-.141.633,1,1,0,0,1-.889.413Z" transform="translate(-255.394 -14.746)" fill="#fffffd"/>
      <path id="Fill_19" data-name="Fill 19" d="M311.924,40.1h-.155v-.643h.3a.49.49,0,0,1,.228.044.153.153,0,0,1,.08.15.171.171,0,0,1-.016.073.132.132,0,0,1-.044.051.217.217,0,0,1-.066.031.3.3,0,0,1-.08.013l.21.281h-.162l-.19-.274h-.1Zm0-.544v.17h.139a.3.3,0,0,0,.113-.016c.029-.009.044-.033.044-.073a.054.054,0,0,0-.016-.042.1.1,0,0,0-.04-.022.175.175,0,0,0-.051-.013h-.051Z" transform="translate(-253.779 -14.89)" fill="#fffffd"/>
      <path id="Fill_20" data-name="Fill 20" d="M312.1,40.32a.489.489,0,1,1,.489-.489h0A.49.49,0,0,1,312.1,40.32Zm0-.9a.413.413,0,1,0,.411.413v0a.414.414,0,0,0-.411-.413Z" transform="translate(-253.915 -14.989)" fill="#fffffd"/>
    </g>
  </g>
</svg>
