<svg xmlns="http://www.w3.org/2000/svg" width="140" height="140" viewBox="0 0 140 140">
  <g id="Group_989" data-name="Group 989" transform="translate(-0.007)">
    <g id="Group_924" data-name="Group 924" transform="translate(22.456 64.221)">
      <g id="Group_922" data-name="Group 922" transform="translate(13.575 17.545)">
        <path id="Path_1788" data-name="Path 1788" d="M327.235,323.51c-5.606,4.137-13.734,6.337-20.732,6.337a37.52,37.52,0,0,1-25.326-9.661c-.525-.474-.057-1.121.574-.754a50.979,50.979,0,0,0,25.34,6.723A50.412,50.412,0,0,0,326.42,322.2C327.368,321.8,328.163,322.825,327.235,323.51Z" transform="translate(-280.95 -318.316)" fill="#fff" fill-rule="evenodd"/>
        <path id="Path_1789" data-name="Path 1789" d="M426.034,318.508c-.717-.918-4.74-.435-6.547-.218-.547.066-.632-.413-.139-.759,3.209-2.254,8.467-1.6,9.078-.849s-.162,6.033-3.169,8.549c-.462.387-.9.18-.7-.331C425.237,323.21,426.752,319.427,426.034,318.508Z" transform="translate(-377.416 -315.977)" fill="#fff" fill-rule="evenodd"/>
      </g>
      <g id="Group_923" data-name="Group 923" transform="translate(0 0)">
        <path id="Path_1790" data-name="Path 1790" d="M419.687,261.927v-2.19a.541.541,0,0,1,.555-.554h9.816a.547.547,0,0,1,.566.553v1.878a3.081,3.081,0,0,1-.739,1.379l-5.085,7.26a10.893,10.893,0,0,1,5.6,1.2,1,1,0,0,1,.521.854v2.337c0,.321-.353.695-.724.5a11.3,11.3,0,0,0-10.371.02c-.341.181-.7-.186-.7-.508v-2.221a2.641,2.641,0,0,1,.366-1.505l5.891-8.452h-5.129A.546.546,0,0,1,419.687,261.927Z" transform="translate(-363.914 -258.752)" fill="#fff" fill-rule="evenodd"/>
        <path id="Path_1791" data-name="Path 1791" d="M294,274.952h-2.987a.563.563,0,0,1-.534-.5l0-15.327a.562.562,0,0,1,.576-.551h2.781a.562.562,0,0,1,.543.515v2h.056a3.94,3.94,0,0,1,3.93-2.839c1.867,0,3.038.9,3.875,2.839a4.411,4.411,0,0,1,7.583-1.161c.947,1.29.753,3.16.753,4.805l0,9.672a.563.563,0,0,1-.576.552h-2.982a.56.56,0,0,1-.536-.551v-8.126a19.6,19.6,0,0,0-.084-2.87,1.557,1.557,0,0,0-1.756-1.323,1.981,1.981,0,0,0-1.785,1.258,9.28,9.28,0,0,0-.279,2.935V274.4a.563.563,0,0,1-.576.552h-2.983a.56.56,0,0,1-.536-.551l0-8.126c0-1.709.279-4.224-1.839-4.224-2.147,0-2.063,2.451-2.063,4.224V274.4A.564.564,0,0,1,294,274.952Z" transform="translate(-274.032 -258.097)" fill="#fff" fill-rule="evenodd"/>
        <path id="Path_1792" data-name="Path 1792" d="M469.747,258.245c4.432,0,6.829,3.806,6.829,8.644,0,4.676-2.647,8.386-6.829,8.386-4.349,0-6.718-3.807-6.718-8.547C463.029,261.954,465.426,258.245,469.747,258.245Zm.027,3.129c-2.2,0-2.341,3-2.341,4.87s-.028,5.87,2.314,5.87c2.314,0,2.425-3.225,2.425-5.192a14.173,14.173,0,0,0-.446-4.064A1.869,1.869,0,0,0,469.774,261.374Z" transform="translate(-394.587 -258.097)" fill="#fff" fill-rule="evenodd"/>
        <path id="Path_1793" data-name="Path 1793" d="M518.91,274.952h-2.975a.561.561,0,0,1-.536-.551l-.005-15.332a.566.566,0,0,1,.574-.5h2.77a.569.569,0,0,1,.531.429v2.345h.056c.837-2.1,2.007-3.1,4.07-3.1a3.915,3.915,0,0,1,3.485,1.806c.781,1.226.781,3.289.781,4.773v9.645a.567.567,0,0,1-.573.482h-2.993a.563.563,0,0,1-.532-.482v-8.322c0-1.678.2-4.129-1.867-4.129a1.955,1.955,0,0,0-1.729,1.225,6.818,6.818,0,0,0-.474,2.9V274.4A.571.571,0,0,1,518.91,274.952Z" transform="translate(-431.172 -258.097)" fill="#fff" fill-rule="evenodd"/>
        <path id="Path_1794" data-name="Path 1794" d="M374.615,267.29a5.856,5.856,0,0,1-.559,3.168,2.426,2.426,0,0,1-2.067,1.357c-1.145,0-1.816-.873-1.816-2.166,0-2.544,2.281-3.006,4.442-3.006Zm3.01,7.281a.617.617,0,0,1-.705.069,7.3,7.3,0,0,1-1.712-1.99,5.919,5.919,0,0,1-4.924,2.171c-2.514,0-4.47-1.552-4.47-4.655A5.073,5.073,0,0,1,369,265.286a20.659,20.659,0,0,1,5.616-1.035v-.388a3.823,3.823,0,0,0-.363-2.165,2,2,0,0,0-1.676-.776,2.274,2.274,0,0,0-2.4,1.793.632.632,0,0,1-.519.55l-2.895-.314a.527.527,0,0,1-.446-.625c.666-3.511,3.837-4.572,6.678-4.572a6.769,6.769,0,0,1,4.5,1.487c1.453,1.357,1.313,3.168,1.313,5.14v4.652a4.076,4.076,0,0,0,1.127,2.767.563.563,0,0,1-.01.794c-.61.511-1.693,1.452-2.29,1.983Z" transform="translate(-326.667 -257.754)" fill="#fff" fill-rule="evenodd"/>
        <path id="Path_1795" data-name="Path 1795" d="M244.7,267.29a5.859,5.859,0,0,1-.558,3.168,2.426,2.426,0,0,1-2.067,1.357c-1.145,0-1.816-.873-1.816-2.166,0-2.544,2.282-3.006,4.441-3.006Zm3.011,7.281a.617.617,0,0,1-.705.069,7.266,7.266,0,0,1-1.712-1.99,5.919,5.919,0,0,1-4.924,2.171c-2.514,0-4.47-1.552-4.47-4.655a5.072,5.072,0,0,1,3.185-4.881,20.658,20.658,0,0,1,5.615-1.035v-.388a3.825,3.825,0,0,0-.362-2.165,2,2,0,0,0-1.676-.776,2.273,2.273,0,0,0-2.4,1.793.632.632,0,0,1-.519.55l-2.894-.314a.526.526,0,0,1-.446-.625c.665-3.511,3.836-4.572,6.678-4.572a6.772,6.772,0,0,1,4.5,1.487c1.452,1.357,1.313,3.168,1.313,5.14v4.652a4.076,4.076,0,0,0,1.127,2.767.564.564,0,0,1-.009.794c-.61.511-1.694,1.452-2.29,1.983Z" transform="translate(-235.902 -257.754)" fill="#fff" fill-rule="evenodd"/>
      </g>
    </g>
    <rect id="Rectangle_807" data-name="Rectangle 807" width="140" height="140" transform="translate(0.007)" fill="none"/>
  </g>
</svg>
