<svg xmlns="http://www.w3.org/2000/svg" xmlns:xlink="http://www.w3.org/1999/xlink" width="140" height="140" viewBox="0 0 140 140">
  <defs>
    <clipPath id="clip-path">
      <rect id="Rectangle_837" data-name="Rectangle 837" width="140" height="140" transform="translate(0.136)" fill="#1c1c21"/>
    </clipPath>
  </defs>
  <g id="Mask_Group_210" data-name="Mask Group 210" transform="translate(-0.136)" clip-path="url(#clip-path)">
    <g id="Grupo_21" data-name="Grupo 21" transform="translate(4.351 57.547)">
      <path id="Shape" d="M505.916,33.7l.01-.932h-.064l-.469.932h-.313l-.471-.932h-.064l.008.932h-.375V32.455h.689l.369.807.369-.807h.683V33.7Zm-2.775,0v-.928h-.553v-.317h1.5v.317h-.545V33.7Z" transform="translate(-402.171 -24.975)" fill="#fff"/>
      <g id="Grupo_20" data-name="Grupo 20" transform="translate(0 0)">
        <path id="Exclusión_7" data-name="Exclusión 7" d="M563.972,54.366h0l2.9-9.514-7.93-6.016,10.118.054,3.063-9.681,3.17,9.681,10.063-.054-7.986,6.016,2.9,9.512-8.147-5.683-8.149,5.688Zm.274-13.891L569,44.086l-1.747,5.742,4.921-3.446h0l4.873,3.446L575.3,44.086l4.758-3.611-6.018.054-1.858-5.8-1.857,5.8Zm-16.44,10.394h-1.64l-1.367-.276a1.066,1.066,0,0,1-.437-.984V49.28h1.421a.549.549,0,0,0,.128.4.642.642,0,0,0,.474.141h1.695c.347,0,.552-.141.552-.382a.365.365,0,0,0-.276-.382L546.716,49l-1.968-.276a1.377,1.377,0,0,1-.382-1.093,1.5,1.5,0,0,1,.276-1.039,2.207,2.207,0,0,1,1.586-.439h1.914a2.331,2.331,0,0,1,1.475.382,1.431,1.431,0,0,1,.276.984v.111h-1.367a.442.442,0,0,0-.118-.326.832.832,0,0,0-.593-.167h-1.531c-.3,0-.493.146-.493.382,0,.2.046.326.276.385h1.367l2.133.276c.333.163.493.556.493,1.2,0,.7-.128,1.049-.437,1.206l-1.806.276Zm-6.127,0h-1.969c-1.234,0-1.86-.571-1.86-1.7V46.219h1.369v2.624c0,.537.265.821.765.821h1.423c.5,0,.767-.285.767-.821V46.219h1.364v2.953c0,1.125-.626,1.7-1.862,1.7Zm10.337-.054h-1.53l2.459-4.6h1.747l2.514,4.6h-1.53l-.437-.821h-2.788l-.439.821Zm1.805-3.557L552.947,49h1.747Zm-16.9,1.041h-40.9V46.219h40.9V48.3Zm4.812-3.557H537.58a4.936,4.936,0,0,1-2.735-.6,2.917,2.917,0,0,1-.984-2.514V39.052a2.92,2.92,0,0,1,.984-2.514,4.434,4.434,0,0,1,2.735-.6h4.156a4.437,4.437,0,0,1,2.735.6,2.922,2.922,0,0,1,.984,2.514v2.574a2.934,2.934,0,0,1-.984,2.514,4.936,4.936,0,0,1-2.735.6Zm-3.609-6.618a1.489,1.489,0,0,0-1.314.493,1.835,1.835,0,0,0-.328,1.256v.93a2.228,2.228,0,0,0,.328,1.369c.154.254.558.385,1.206.385h3.28c.643,0,1.05-.13,1.2-.385a2.259,2.259,0,0,0,.276-1.369v-.932a2.269,2.269,0,0,0-.276-1.258,1.622,1.622,0,0,0-1.312-.491Zm-21.658,6.618h-4.208a4.936,4.936,0,0,1-2.735-.6,2.919,2.919,0,0,1-.984-2.514V39.052a2.925,2.925,0,0,1,.984-2.516,4.444,4.444,0,0,1,2.735-.6h3.059c1.788,0,2.915.232,3.446.71.474.367.713,1.212.713,2.516h-2.627v-.219c0-.552-.393-.821-1.2-.821H512.8a1.631,1.631,0,0,0-1.312.493,2.285,2.285,0,0,0-.276,1.258v.93a2.252,2.252,0,0,0,.276,1.367c.154.254.558.385,1.206.385h2.733c.7,0,1.049-.065,1.2-.219.23-.174.33-.467.33-.984h2.625v.821a2.463,2.463,0,0,1-.6,1.805,3.184,3.184,0,0,1-2.518.765Zm-31.663,0H480.65a5.064,5.064,0,0,1-2.735-.6,2.917,2.917,0,0,1-.984-2.514V39.052a2.92,2.92,0,0,1,.984-2.514,4.582,4.582,0,0,1,2.735-.6h4.156a4.428,4.428,0,0,1,2.733.6,2.908,2.908,0,0,1,.984,2.514v2.574a2.911,2.911,0,0,1-.984,2.514,4.932,4.932,0,0,1-2.733.6ZM481.2,38.124a1.624,1.624,0,0,0-1.312.493,2.237,2.237,0,0,0-.276,1.256v.93a2.26,2.26,0,0,0,.276,1.369c.154.254.558.385,1.2.385h3.337a1.5,1.5,0,0,0,1.2-.385A2.711,2.711,0,0,0,485.9,40.8v-.932a1.826,1.826,0,0,0-.328-1.258,1.54,1.54,0,0,0-1.312-.491Zm-8.86,6.618h-4.158a4.933,4.933,0,0,1-2.733-.6,2.911,2.911,0,0,1-.984-2.514V39.052a2.913,2.913,0,0,1,.984-2.514,4.431,4.431,0,0,1,2.733-.6h4.158a4.571,4.571,0,0,1,2.733.6,2.919,2.919,0,0,1,.984,2.514v2.574a2.919,2.919,0,0,1-.984,2.514,5.051,5.051,0,0,1-2.733.6Zm-3.611-6.618a1.624,1.624,0,0,0-1.312.493,2.274,2.274,0,0,0-.276,1.256v.93a2.278,2.278,0,0,0,.276,1.369c.152.252.556.382,1.2.385H471.9c.643,0,1.052-.13,1.2-.385a2.263,2.263,0,0,0,.276-1.369v-.932a2.252,2.252,0,0,0-.276-1.258,1.618,1.618,0,0,0-1.312-.491Zm80.118,6.509H546.27V36.045h3.991l4.873,6.237V36.045h2.405v8.586h-3.774L548.9,38.4h-.056v6.233Zm-49.93,0h-2.9l4.6-8.588H504l4.647,8.586h-2.9l-.819-1.532h-5.251l-.765,1.532Zm3.391-6.618-1.642,3.226H504Zm30.733,6.618h-2.461V36.045h2.461v8.588Zm-6.835,0H523.63V38.178h-3.554V36.045h9.57v2.133H526.2v6.455Zm-31.337,0h-2.574V38.178H488.9V36.045h9.625v2.133h-3.665v6.455Zm-37.242,0H455V36.045h8.86v2.023h-6.235v1.64h5.962v2.023h-5.962v2.9Z" transform="translate(-455 -29.21)" fill="#fff"/>
      </g>
    </g>
  </g>
</svg>
