<svg xmlns="http://www.w3.org/2000/svg" xmlns:xlink="http://www.w3.org/1999/xlink" width="140" height="140" viewBox="0 0 140 140">
  <defs>
    <clipPath id="clip-path">
      <rect id="Rectangle_834" data-name="Rectangle 834" width="140" height="140" transform="translate(0.149)" fill="#1c1c21"/>
    </clipPath>
  </defs>
  <g id="Mask_Group_207" data-name="Mask Group 207" transform="translate(-0.149)" clip-path="url(#clip-path)">
    <g id="Group_980" data-name="Group 980" transform="translate(19.742 39.831)">
      <g id="Group_979" data-name="Group 979" transform="translate(23.871 0)">
        <path id="Exclusion_2" data-name="Exclusion 2" d="M35.292,43.681H14.977a.834.834,0,0,1-.663-.331.825.825,0,0,1-.133-.732l.4-1.208-.341-.395c-3.627-2.163-6.751-4.065-9.836-5.984a1.125,1.125,0,0,1-.155-.125L1.722,32.346a.968.968,0,0,1-.155-.208L.094,29.233a.867.867,0,0,1-.094-.4l.049-2.108a.837.837,0,0,1,.119-.406l.748-1.262a.8.8,0,0,1,.262-.273l8.36-5.455,5.861-3a.768.768,0,0,1,.262-.084l4.51-.643,1.392-1.1v-.11l-.361-.337a.68.68,0,0,1-.12-.133L19.82,12.13a.747.747,0,0,1-.123-.264L18.285,6.7a.834.834,0,0,1,.014-.5l.67-1.861a.826.826,0,0,1,.545-.52c.138-.04.438-.248.9-1.208a.793.793,0,0,1,.356-.371L22.1,1.523l.88-.743A.823.823,0,0,1,23.437.6L25.145.449,27.124.028a1.584,1.584,0,0,1,.3-.028,3.547,3.547,0,0,1,.593.066l.042.007a4.579,4.579,0,0,1,1.885.683L31.124.711a1.024,1.024,0,0,1,.638.218l.416.387a.81.81,0,0,1,.227.345l.53,1.594a.845.845,0,0,1-.089.719,3.646,3.646,0,0,0-.515,1.366l.252.861a5.094,5.094,0,0,1,.3,1.693l.7.594a.77.77,0,0,1,.244.352l.155.42a.829.829,0,0,1-.031.629l-.2.431a.787.787,0,0,1-.353.376l-.207.119a4.455,4.455,0,0,0,.144.782.84.84,0,0,1-.085.639l-.411.708A2.225,2.225,0,0,1,33.159,14a1.881,1.881,0,0,1-1.213,1.5l.727.268a1.37,1.37,0,0,1,.183.094l.259.183a20.343,20.343,0,0,1,3.468,1.242L41.4,19.466l3.931,2.792a.832.832,0,0,1,.168.158l.827,1.029,3,2.565a.733.733,0,0,1,.138.158l2.511,3.588a.84.84,0,0,1,.133.292l.283,1.262a.846.846,0,0,1-.223.767l-3.391,3.44a.666.666,0,0,1-.189.144c-8.509,4.734-10.656,6.2-11.176,6.652a.867.867,0,0,1-.327.174l-.956.257-.01.16A.841.841,0,0,1,35.292,43.681ZM19,19.333l-.411,4.04-.667,16.206-.437,3.261h1.387l.617-9.771c.178-5.3.36-8.764.539-10.29a27.845,27.845,0,0,1,.772-3.906l.253-.361.129.361L21.2,19.9,20.512,37l-.387,2.673.105,3.163h1.41L23.492,19.8l1.154-.466L23.107,42.839h2.078L26.675,19.8l.613-.8.645.667-1.08,23.17H28.6l.386-11.26,1.258.539-.283,10.721h1.8V35.515l.486-3.243a1.034,1.034,0,0,0,.8-.589L32.4,42.839h1.154L34.3,31.38l.464-7.113a16.081,16.081,0,0,0-.794-5.5l0-.006.005,0,.945.824.668,5.272-.752,9.909-.609,8.068h1.049l.055-.742,1.54-.416c.953-.83,4.762-3.1,11.321-6.741l3.384-3.446-.282-1.256-2.51-3.6-3.109-2.673-.826-1.03-3.8-2.7-4.828-2.183a22.162,22.162,0,0,0-3.465-1.238l-.385-.257-1.62-.59c-.55-.152-.82-.3-.82-.45,0-.178.387-.368,1.183-.579.774-.257,1.158-.544,1.208-.9a1.415,1.415,0,0,0-.361-.871l.049-.461.519-.876a4.98,4.98,0,0,1-.207-1.5l.668-.356.2-.441-.153-.411-1-.846a4.914,4.914,0,0,0-.257-1.851l-.312-1.03a4.629,4.629,0,0,1,.668-1.876L31.6,1.924l-.411-.391-1.49.055A4.066,4.066,0,0,0,27.339.84l-2.081.435-1.772.154-1,.826-1.336.718c-.474.991-.91,1.5-1.41,1.648l-.664,1.852,1.41,5.172,1.258,1.8.642.589v1.109H22.08L20.486,16.4l-4.722.669-5.776,2.96L1.618,25.481.872,26.738.821,28.847l1.49,2.905,2.515,2.574c2.964,1.841,6.121,3.762,9.939,6.043l.743.852-.539,1.514h1.846a5.216,5.216,0,0,0,.387-2.158,2.932,2.932,0,0,0-.487-1.624h-2.26l-1.412-.667a26.547,26.547,0,0,0-3-1.955c-1.146-.668-2.247-1.44-3.367-2.238a16.2,16.2,0,0,1-4.287-4.628L2.1,28.331l.055-1.282.356-.7L3.929,24.99l2.363-1.341.356.129.539.8a3.852,3.852,0,0,1-2.362,1.133l-.282.361-.049.589L5.188,29.1l1.177,2.213c.322.52,2.036,1.958,5.4,4.524l1.41,1.52,1.025.1a4.273,4.273,0,0,1,2.158-1.133l.127-3.163-.717-4.732L16,20.283l.716-1a9.14,9.14,0,0,0-.055,3.089v15.1l.645,1,.386-7.2c.183-3.573.237-6.2.148-7.385l-.148-1.8.229-1.336ZM35.633,39.859v0l.026-1.847,2-.233,7.162-6.534-2.36-2.414L44,26.614l.615.05L47.653,30.6l-.183.8a44.329,44.329,0,0,1-5.084,4.142,69.266,69.266,0,0,1-6.748,4.32Zm0-2.47,0,0,.9-2.673,1.1-5.6.127-1.336a5.78,5.78,0,0,1,1.438.589,49.051,49.051,0,0,1,4.261,2.777,45.357,45.357,0,0,1-4.955,4.5,11.35,11.35,0,0,1-2.872,1.746ZM38.915,29.9h0L38.1,34.079c1.017-.822,2.052-1.743,3.078-2.738-.663-.452-1.424-.936-2.262-1.436ZM14.276,35.816h0a26.257,26.257,0,0,1-3.23-3.262A21.658,21.658,0,0,1,8.86,29.1l.178-.307c1-.662,2.036-1.253,3.107-1.852.9-.428,1.6-.729,2.21-.95l.178.228c.084,1.315.189,2.4.333,3.421l.746,5.969-.564.153-.771.05Zm-1.1-7.771c-.055.028-.114.055-.171.081l-.047.021-.149.071a.335.335,0,0,1-.041.029l-.008.005c-.659.362-1.369.759-2.088,1.2a19.454,19.454,0,0,0,1.48,2.213c.509.6,1.075,1.214,1.688,1.811l-.466-3.658C13.282,29.123,13.22,28.575,13.171,28.045Zm22.855,4.795h0l.383-5.147-.023-1.93c0-.2.047-.308.138-.311a.41.41,0,0,1,.246.133,2.768,2.768,0,0,1,.227,1.208l-.379,3.574Zm4.721-5.428h0L38.025,26.02l-1.436-2.312,4.392,2.753.305.564-.537.386Zm-7.321-.361H29.347v-.307h4.079v.307ZM10.76,26.941v0l-.205-.329.129-.386L14.147,23.5l.9-.075.051.491-.2.381-3.929,2.317-.2.329Zm22.666-.718H29.347v-.386h4.079v.386Zm8.91-.97h0l-.742-.158-4-2.5h-.643l-.668-.539-.207-.822a9.386,9.386,0,0,1,1.9.822l4.415,2.807-.049.385Zm-9.192,0h-.871l.127-4.737.9-.591-.152,5.327Zm-2.466-.03H29.317l.441-5.529.2-.053.823,1.727.049,1.183-.155,2.671ZM9.5,24.965h0l-.434-.307v-.466l5.96-3.6.025.515-4.954,3.653-.594.2ZM25.33,24.2a.178.178,0,0,1-.036,0,.3.3,0,0,1-.264-.336c0-.2.12-.307.337-.307a.126.126,0,0,1,.034,0,.158.158,0,0,1,.04,0,.277.277,0,0,1,.233.307c0,.229-.1.336-.307.336A.18.18,0,0,1,25.33,24.2Zm18.085-.519h0l-1.03-.331L38.1,20.362a14.538,14.538,0,0,0-2.055-.8l-.073-.614,1.361.178,6.414,4.346-.33.2ZM8.29,22.6v0l-.129-.408,7.192-3.862L14.992,19l-4.8,2.8-1.9.795Zm17.255-2.084c-.216,0-.305-.089-.305-.307,0-.191.1-.288.305-.288H25.6a.265.265,0,0,1,.229.288C25.829,20.441,25.76,20.516,25.545,20.516Zm.505-3.024h-.015a1.21,1.21,0,0,1-.539-.242L23.03,15.7l.051-1.49.307-.049.67-2.935L23.185,10.1l-.1-1.336.437-.485.9-.154,1.1.95h.589l.257-1.133,2.36-1.49h1.618l.288.386-.207.281-1.773.8.411.693,1.618.287,1-.208.743.644-.638.466-.516.2.516.564v.258L30.962,11l-.539.564.049.485.746-.178.312-.025.125.2-.535.263c-.075,0-.2.155-.335.589h.227l.312.594a.213.213,0,0,1-.021.144.742.742,0,0,1-.47.242l-2.36-.441-2.521.055-.971.589V14.5l1.282,1.054-.1,1.777a.214.214,0,0,1-.034.124A.1.1,0,0,1,26.05,17.492ZM23.878,9.354h0l.208.385.307.356v.01l.3-.03.157-.747-.307-.723-.95-.02-.233.461.155.361.359-.055Z" transform="translate(0)" fill="#fff" stroke="rgba(0,0,0,0)" stroke-miterlimit="10" stroke-width="1"/>
      </g>
      <path id="Exclusión_10" data-name="Exclusión 10" d="M187.211,237.179a4.967,4.967,0,0,1-3.618-1.543,4.836,4.836,0,0,1-1.541-3.627,5.112,5.112,0,0,1,1-3.035,4.756,4.756,0,0,1,4.137-2.094c.124,0,.252,0,.383.01a4.618,4.618,0,0,1,3.723,1.982,4.894,4.894,0,0,1,1.026,2.753l-6.418,1.413.743.567a1.835,1.835,0,0,0,.605.11,1.544,1.544,0,0,0,1.012-.393l.361-.411,2.951,1.9-1.23,1.312A4.887,4.887,0,0,1,187.211,237.179Zm.03-6.9a1.991,1.991,0,0,0-.543.082,1.944,1.944,0,0,0-1.1,1.184l2.847-.643a1.5,1.5,0,0,0-1.2-.623Zm-19.643,6.9a4.975,4.975,0,0,1-3.62-1.543,4.823,4.823,0,0,1-1.513-3.627,4.97,4.97,0,0,1,1.513-3.627,5.222,5.222,0,0,1,3.62-1.517,4.883,4.883,0,0,1,4.288,2.364l-3.082,1.982a1.513,1.513,0,0,0-2.739.441,1.4,1.4,0,0,0-.008.331c0,1,.5,1.491,1.541,1.491a1.341,1.341,0,0,0,1.206-.643l3.082,1.982a4.88,4.88,0,0,1-4.288,2.366Zm-11.372,0a4.972,4.972,0,0,1-3.621-1.543,4.82,4.82,0,0,1-1.489-3.627,5.116,5.116,0,0,1,8.728-3.627,5.045,5.045,0,0,1,1.491,3.627,4.822,4.822,0,0,1-1.491,3.627,4.883,4.883,0,0,1-3.619,1.543Zm-.026-6.61a1.469,1.469,0,0,0-1.028.411,1.751,1.751,0,0,0-.435,1.056c0,1.018.463,1.491,1.463,1.491a1.309,1.309,0,0,0,1.489-1.1,1.263,1.263,0,0,0,0-.389,1.3,1.3,0,0,0-1.1-1.471,1.315,1.315,0,0,0-.387,0Zm-33.27,6.61a4.972,4.972,0,0,1-3.621-1.543,4.824,4.824,0,0,1-1.515-3.627,4.972,4.972,0,0,1,1.515-3.627,5.072,5.072,0,0,1,7.187,0,4.918,4.918,0,0,1,1.517,3.627,4.977,4.977,0,0,1-1.517,3.627,4.911,4.911,0,0,1-3.57,1.543Zm0-6.636a1.349,1.349,0,0,0-1.533,1.134,1.321,1.321,0,0,0-.008.333c0,.964.517,1.465,1.541,1.491a1.308,1.308,0,0,0,1.489-1.1,1.264,1.264,0,0,0,0-.389,1.3,1.3,0,0,0-1.1-1.471,1.345,1.345,0,0,0-.391,0Zm-11.22,6.636a4.967,4.967,0,0,1-3.619-1.543,4.826,4.826,0,0,1-1.517-3.627,4.974,4.974,0,0,1,1.517-3.627,4.8,4.8,0,0,1,3.619-1.493,4.886,4.886,0,0,1,3.568,1.493,5.057,5.057,0,0,1,1.515,3.627,4.967,4.967,0,0,1-1.515,3.627,4.914,4.914,0,0,1-3.566,1.543Zm0-6.636a1.35,1.35,0,0,0-1.533,1.134,1.421,1.421,0,0,0-.008.333c0,.978.5,1.465,1.541,1.491a1.5,1.5,0,0,0,.363-2.959,1.276,1.276,0,0,0-.361,0Zm87.494,6.482c-.621,0-.924-.311-.924-.952s.3-.952.924-.952a.837.837,0,0,1,.952.7.8.8,0,0,1,0,.248.834.834,0,0,1-.7.952.763.763,0,0,1-.252,0Zm0-1.723a.676.676,0,0,0-.769.563.728.728,0,0,0,0,.208c0,.537.252.8.769.8a.7.7,0,0,0,.8-.6.647.647,0,0,0,0-.2.7.7,0,0,0-.617-.775.777.777,0,0,0-.18,0Zm-2.258,1.723h-3.621v-8.2a1.573,1.573,0,0,1,1.336-1.779,1.547,1.547,0,0,1,.461,0h4.544v3.266h-1.9a.719.719,0,0,0-.819.6.672.672,0,0,0,0,.2v5.919Zm-46.648,0h-5.392c-1.21,0-1.773-.555-1.773-1.749V223.112h3.621v9.8a.778.778,0,0,0,.669.872.756.756,0,0,0,.178,0h2.7v3.24Zm-14.376,0h-3.877a2.006,2.006,0,0,1-1.308-.515,1.754,1.754,0,0,1-.539-1.258v-4.706h-1.489v-3.268H130.2v-3.3h3.621l.05,3.3h1.386v3.268h-1.386v2.366c0,.579.268.874.8.874h1.258v3.24Zm-32.244,0h-3.671v-12.06a1.89,1.89,0,0,1,.539-1.312,1.92,1.92,0,0,1,1.334-.539v-.026h5.34v3.266H104.5c-.537,0-.823.3-.823.876V228.8h1.948v3.266h-1.948v4.963ZM176.406,237h-3.671V223.084h3.671v6.842l1.823-2.29h3.953l-3.414,4.2L183.08,237h-4.236l-2.438-2.933V237ZM199,236.564h-.154v-1.03h.487c.25,0,.361.1.361.309,0,.18-.074.262-.252.262a.563.563,0,0,1-.082-.006l.333.461h-.2l-.309-.463H199v.467Zm0-.876v.256h.206c.246,0,.359-.056.359-.18l-.283-.074Z" transform="translate(-100.006 -176.591)" fill="#fff"/>
    </g>
  </g>
</svg>
