<svg xmlns="http://www.w3.org/2000/svg" width="140" height="140" viewBox="0 0 140 140">
  <g id="Group_984" data-name="Group 984" transform="translate(-0.088)">
    <g id="Group_937" data-name="Group 937" transform="translate(28.102 57.659)">
      <path id="Path_1850" data-name="Path 1850" d="M241.05,347.769a2.473,2.473,0,0,1,1.5.6,2.055,2.055,0,0,1,.451,2.165,8.833,8.833,0,0,1-5.262,4.09,5.94,5.94,0,0,1-3.247-.12c-.451.271-.832,1.145-1.383.781-.8-.623-.107-1.6-.568-2.29-.095-.143-.334-.153-.454-.386-.632-1.383.15-2.706,1.022-3.759,1.453-1.621,5.623-3.428,7.938-1.082Zm-4.841,1.082a3.993,3.993,0,0,0-2.225,1.083c-.5.579-.812,1.143-.511,1.744,1.052-.782,1.563-1.864,2.736-2.526,0-.12.18-.21,0-.3Zm4.9.3c-2.075-.18-3.638,1.383-5.112,2.887-.09.24-.631.511-.21.782a6.826,6.826,0,0,0,5.322-1.714,1.331,1.331,0,0,0,.511-1.443,1.059,1.059,0,0,0-.511-.512Z" transform="translate(-200.046 -344.09)" fill="#fff" fill-rule="evenodd"/>
      <path id="Path_1851" data-name="Path 1851" d="M283.04,368.837c.962,2.346,1.774,6.044,0,8.3-.481.541-1.323,1.04-1.864.631-1.984-1.594-2.827-3.879-4.059-5.923-.181-.09-.181.15-.271.24-.451,2.075.391,4.781-1.022,6.4a1.082,1.082,0,0,1-1.233-.722c-.691-2.135.03-4.36.21-6.494.421-1.083.6-2.346,1.534-3.158,1.5.6,2.225,2.285,3.1,3.518a30.6,30.6,0,0,0,1.864,2.826c.632-.271.321-1.095.3-1.594a39.132,39.132,0,0,0-1.293-5.623c-.03-.481-.3-1.293.21-1.594,1.353.6,1.924,2.015,2.526,3.187Z" transform="translate(-223.994 -354.815)" fill="#fff" fill-rule="evenodd"/>
      <path id="Path_1852" data-name="Path 1852" d="M258.444,370.159a1.251,1.251,0,0,1-.662,1.083c-2.887.451-6.1.18-8.81,1.083-.09.331.3.391.511.481,2.315.361,4.751.451,7.006,1.022,1.193.3,1.624,1.714,1.714,2.887a3.072,3.072,0,0,1-1.2,2.676,8.152,8.152,0,0,1-7.878.06,3.047,3.047,0,0,1-1.744-2.225,1.8,1.8,0,0,1,.872-1.654,7.934,7.934,0,0,1,6.705.722c.12.6-.531.569-.842.781-2.075,1.2-3.638-1.353-5.562-.421-.271.181-.466.684-.15.842,2.375,1.052,5.021.3,7.367-.361.271-.09.6-.361.631-.632-.09-.962-1.173-1.173-1.864-1.443a45.189,45.189,0,0,0-6.495-.721,1.587,1.587,0,0,1-1.082-.721,2.447,2.447,0,0,1,.3-2.316c2.8-2.465,7.036-2.255,10.584-1.594.24.09.511.18.6.451Z" transform="translate(-208.479 -356.859)" fill="#fff" fill-rule="evenodd"/>
      <path id="Path_1853" data-name="Path 1853" d="M240.439,371.517a73.4,73.4,0,0,1,.361,8.6c-.06.391-.511.481-.812.632a1.508,1.508,0,0,1-1.293-.271c-.692-1.113-.451-2.616-.511-3.969a26.7,26.7,0,0,1,.662-6.435c.115-.288.451-.541.721-.361a1.863,1.863,0,0,1,.872,1.8Z" transform="translate(-203.615 -357.074)" fill="#fff" fill-rule="evenodd"/>
      <path id="Path_1854" data-name="Path 1854" d="M307.551,371.26c.146.243.3.619,0,.782-1.353.6-3.187.331-4.751.511a1.575,1.575,0,0,0-.6,1.5c.15.09.286.228.451.21.962.06,2.406-.451,3.037.451.156.268-.02,1.27-.451,1.293-1.173.15-3.1-.148-3.668.15-.722.481-.662,1.413-.932,2.165.511.331,1.047-.007,1.654-.09a9.639,9.639,0,0,1,3.458-.271c.21.391.512.812.3,1.293-1.894,1.5-4.34,3.044-6.946,1.954-.977-.439-1.413-1.924-1.083-3.187.21-.9,1.143-1.774.572-2.736a.715.715,0,0,1,.511-.872c.992,0,.782-1.233,1.293-1.8-.571-.632-2.015-.6-1.864-1.864a7.32,7.32,0,0,1,2.315-.361,18.22,18.22,0,0,1,5.563-.361c.361.073.842.782,1.143,1.233Z" transform="translate(-237.321 -357.238)" fill="#fff" fill-rule="evenodd"/>
      <path id="Path_1855" data-name="Path 1855" d="M186.128,347.947c2.775,2.268,6.375,6.134,5.923,10.584-.541,3.518-4.269,6.164-7.427,7.006a21.014,21.014,0,0,1-10.043.09c-.21.571-.421,1.263-1.082,1.5a1.41,1.41,0,0,1-1.293-.21c-.932-.872-.18-2.556-1.534-3.1a13.9,13.9,0,0,1-6.856-6.013,1.616,1.616,0,0,1,.361-1.5c2.075-1.654,4.691-2.315,7.307-2.827.15.06.09-.15.21-.21a21.381,21.381,0,0,1,.782-5.262.469.469,0,0,1,.662-.15c1.654,1.263.872,3.638,1.594,5.352,3.157.15,6.314.3,8.81,2.074a2.739,2.739,0,0,1,.782,2.767,2.3,2.3,0,0,1-1.955,1.353c-.541,0-1.564.052-1.5-.361s1.839-1.09,1.293-1.653c-.785-.811-4.716-1.293-7.151-1.594-.3-.06-.576.03-.576.361a36.232,36.232,0,0,0,.15,7.006.543.543,0,0,0,.361.361c4.3.692,8.84.3,12.208-2.165a5.157,5.157,0,0,0,1.8-4.991c-1.353-5.442-7.036-8.72-11.7-10.825a32.9,32.9,0,0,0-14.944-2.736c-.857.063-2.215.358-2.225.662s1.538.208,1.353.782-1.759.233-2.225.09-.421-.812-.3-1.232c1.173-2.075,4.445-2.243,5.923-2.315a33.373,33.373,0,0,1,21.289,7.157ZM171.394,356a18.677,18.677,0,0,0-6.194.962c-.391.15-.872.572-.572,1.083a9.949,9.949,0,0,0,2.947,2.526,11.316,11.316,0,0,0,3.7,1.564,34.9,34.9,0,0,0,.271-5.893c-.12-.06,0-.18-.151-.24Z" transform="translate(-158.835 -340.78)" fill="#fff" fill-rule="evenodd"/>
      <path id="Path_1856" data-name="Path 1856" d="M322.577,369.251c-.09,2.616-2.526,4.24-2.526,6.856.09.09.15.21.271.15,1.954-2.135,3.879-5.172,6.735-6.074a2.046,2.046,0,0,1,1.714,1.082,6.571,6.571,0,0,1-.631,6.585c-1.429,1.771-3.909,3.548-6.736,3.247a38.568,38.568,0,0,0-2.435,9.081c-.24.631-.812.06-1.173-.06-2.435-1.925-.436-7.018-.271-7.668s.817-2.177,1.293-3.458c-1.143-2.045-.421-4.51.511-6.4a12.761,12.761,0,0,1,2.887-3.488.4.4,0,0,1,.361.15Zm4.841,3.247c-.361-.06-.511.421-.812.511A16.754,16.754,0,0,0,323.148,378a5.123,5.123,0,0,0,2.526-.812,4.4,4.4,0,0,0,2.165-3.969c-.06-.271-.3-.481-.421-.722Z" transform="translate(-247.866 -356.763)" fill="#fff" fill-rule="evenodd"/>
    </g>
    <rect id="Rectangle_825" data-name="Rectangle 825" width="140" height="140" transform="translate(0.088)" fill="none"/>
  </g>
</svg>
