<svg xmlns="http://www.w3.org/2000/svg" width="140" height="140" viewBox="0 0 140 140">
  <g id="Group_985" data-name="Group 985" transform="translate(-0.074)">
    <g id="Group_939" data-name="Group 939" transform="translate(25.92 49.368)">
      <path id="Path_1860" data-name="Path 1860" d="M1674.953,417.324a10.674,10.674,0,0,0,4.376-2.863,2.792,2.792,0,0,1-.279-.281c-1.237,1.717-4.194,2.763-4.224,2.774a.2.2,0,0,0-.121.25A.2.2,0,0,0,1674.953,417.324Z" transform="translate(-1616.104 -398.786)" fill="#fff"/>
      <path id="Path_1861" data-name="Path 1861" d="M1683.092,435.188a.2.2,0,0,0,.1.378c.156-.04,3.645-.975,5.147-2.871a2.679,2.679,0,0,1-.4-.126C1686.461,434.287,1683.129,435.179,1683.092,435.188Z" transform="translate(-1624.054 -416.492)" fill="#fff"/>
      <path id="Path_1862" data-name="Path 1862" d="M1678.475,14.1a2.932,2.932,0,0,0,1.433-3.171,3.538,3.538,0,0,0,.184-4.325,4.332,4.332,0,0,0,.3-3.615h0a4.313,4.313,0,0,0-.482-.945l-.059-.086a4.331,4.331,0,0,0-6.881-.246c-.022.026-.043.053-.064.08l-.059.077-.014.018-.052.073c-.02.028-.04.057-.059.086s-.037.055-.055.083l0,.006-.044.071q-.042.067-.081.137-.018.03-.034.06l-.048.091,0,.005-.041.083-.009.019c-.013.028-.027.057-.039.085s-.029.064-.043.1l-.04.1c-.013.033-.025.066-.037.1l0,.011c-.011.03-.021.059-.031.089s-.021.064-.032.1l0,.016c-.009.027-.017.054-.024.08l-.005.019q-.014.047-.026.095c-.008.031-.016.063-.023.094l0,.016c-.006.027-.012.054-.017.081s-.017.083-.024.125-.013.071-.017.107-.011.072-.016.108-.007.061-.011.092l0,.035c0,.026,0,.052-.006.078,0,.008,0,.015,0,.023,0,.023,0,.047,0,.07s0,.032,0,.048c0,.032,0,.064,0,.1s0,.072,0,.107h0c0,.037,0,.074,0,.11s0,.1.006.151c0,.01,0,.021,0,.031,0,.05.008.1.013.149q.01.109.028.217c.005.036.011.071.018.107s.013.071.02.106c.021.106.047.21.077.313.019.069.041.137.064.2,0,0,0,0,0,0q.033.1.07.193l.028.068.031.072.013.03.02.044c.008.019.017.038.026.057s.015.032.023.048l.032.064.025.047.008.015.025.048.03.054q.046.081.1.16l.043.067.043.065.027.038,0,.005.018.026.018.025.055.075.033.043,0,0,.019.024.024.03.006.008.032.04.03.035.015.019.008.009.068.077.011.012,0,.006.026.028.042.045.016.017.026.027.014.014.049.05.068.066.009.009.025.023.011.01.009.008.006.006.016.014.009.008.006.006.019.016c.04.035.08.07.121.1s.1.077.145.115h0a3.52,3.52,0,0,0,.537,2.7,2.9,2.9,0,0,0-.054,1.628,2.463,2.463,0,0,0-.466,2.6,2.427,2.427,0,0,1-.127-.4,6.528,6.528,0,0,1-3.874,3.227.2.2,0,0,0,.108.377,6.975,6.975,0,0,0,3.95-3.074h0a2.467,2.467,0,0,0,4.684-.89Zm2.167-9.965c0,.034,0,.068.007.1C1680.647,4.2,1680.645,4.169,1680.643,4.135Zm.007.109c0,.037,0,.073,0,.11C1680.653,4.317,1680.651,4.28,1680.65,4.244Zm.006.216c0-.035,0-.071,0-.106C1680.655,4.389,1680.655,4.424,1680.655,4.459Zm-.023-.437q-.016-.157-.043-.31Q1680.618,3.868,1680.632,4.023Zm-.352,2.2c-.057.128-.12.253-.189.374h0C1680.16,6.478,1680.223,6.354,1680.28,6.227Z" transform="translate(-1611.192 -0.13)" fill="#fff"/>
      <path id="Path_1863" data-name="Path 1863" d="M115,198.117V178.085l-4.362-4.1H99.11v28.21h11.752Zm-14.973,3.16V174.894h10.249l3.811,3.586v19.256l-3.594,3.542Z" transform="translate(-99.1 -167.516)" fill="#fff"/>
      <path id="Path_1864" data-name="Path 1864" d="M101.321,969.851V968.77h.486v.728h2.337v-.99l-1.378-.758h-2.5l-1.351.758v1.672l1.526.75,1.364.068v1.11h-.486v-.728H98.85v1l1.418.751h2.606l1.405-.751v-1.694l-1.513-.759Z" transform="translate(-98.85 -931.774)" fill="#fff"/>
      <path id="Path_1865" data-name="Path 1865" d="M280.44,967.75v5.379h2.4V971.3h1.31l1.539-.734v-2.056l-1.539-.758Zm2.849,2.529h-.445V968.77h.445Z" transform="translate(-273.689 -931.774)" fill="#fff"/>
      <path id="Path_1866" data-name="Path 1866" d="M442.761,967.75l-1.431.758v3.871l1.431.751h2.593l1.4-.751v-3.871l-1.512-.758Zm1.526,4.359H443.8V968.77h.487Z" transform="translate(-428.597 -931.774)" fill="#fff"/>
      <path id="Path_1867" data-name="Path 1867" d="M625.1,967.75v5.379h2.4v-2.16h.487v2.16h2.335v-2.16l-1.04-.518,1.04-.5v-1.44l-1.405-.758Zm2.89,2.2H627.5V968.77h.487Z" transform="translate(-605.534 -931.774)" fill="#fff"/>
      <path id="Path_1868" data-name="Path 1868" d="M790.56,968.77h1.188v4.359h2.472V968.77h1.121v-1.02h-4.78Z" transform="translate(-764.842 -931.774)" fill="#fff"/>
      <rect id="Rectangle_800" data-name="Rectangle 800" width="2.47" height="5.378" transform="translate(31.402 35.976)" fill="#fff"/>
      <path id="Path_1869" data-name="Path 1869" d="M1045.308,970.045h-.094l-1.2-2.3h-1.742v5.379h2.254v-2.168h.081l1.094,2.168h1.865V967.75h-2.256Z" transform="translate(-1007.194 -931.774)" fill="#fff"/>
      <path id="Path_1870" data-name="Path 1870" d="M1220.97,967.75l-1.35.758v3.871l1.485.751h2.607l1.308-.751v-2.033h-2.713v1.021h.312v.743h-.595V968.77h.595v1.043h2.4v-1.305l-1.391-.758Z" transform="translate(-1177.95 -931.774)" fill="#fff"/>
      <path id="Path_1871" data-name="Path 1871" d="M1499.14,967.75l-1.35.758v3.871l1.485.751h2.606l1.311-.751v-2.033h-2.714v1.021h.31v.743h-.594V968.77h.594v1.043h2.4v-1.305l-1.391-.758Z" transform="translate(-1445.778 -931.774)" fill="#fff"/>
      <path id="Path_1872" data-name="Path 1872" d="M1677.561,967.75l-1.431.758v3.871l1.431.751h2.593l1.4-.751v-3.871l-1.512-.758Zm1.526,4.359h-.487V968.77h.487Z" transform="translate(-1617.487 -931.774)" fill="#fff"/>
      <path id="Path_1873" data-name="Path 1873" d="M1859.151,967.75l-1.43.758v3.871l1.43.751h2.593l1.4-.751v-3.871l-1.512-.758Zm1.526,4.359h-.486V968.77h.486Z" transform="translate(-1792.326 -931.774)" fill="#fff"/>
      <path id="Path_1874" data-name="Path 1874" d="M2042.21,967.75v5.379h4.036l1.4-.751v-3.871l-1.486-.758Zm2.969,4.359h-.5V968.77h.5Z" transform="translate(-1969.957 -931.774)" fill="#fff"/>
      <path id="Path_1875" data-name="Path 1875" d="M2215.362,969.851V968.77h.485v.728h2.337v-.99l-1.377-.758h-2.5l-1.35.758v1.672l1.526.75,1.362.068v1.11h-.485v-.728h-2.472v1l1.418.751h2.607l1.4-.751v-1.694l-1.512-.759Z" transform="translate(-2134.291 -931.774)" fill="#fff"/>
      <path id="Path_1876" data-name="Path 1876" d="M262.74,331.133h3.718V313.28H262.74Zm.912-16.942h1.893v16.028h-1.893Z" transform="translate(-256.647 -301.637)" fill="#fff"/>
      <path id="Path_1877" data-name="Path 1877" d="M572.411,173.98H565.24v28.209h7.171Zm-.914,27.3h-5.345V174.894H571.5Z" transform="translate(-547.9 -167.516)" fill="#fff"/>
      <path id="Path_1878" data-name="Path 1878" d="M807.735,198.125v-8.5h-7.168V196.1h-1.8V179.938h1.8v5.111h7.168v-6.958l-4.192-4.109h-7.683l-4.19,4.109V198.14l4.938,4.047h6.659Zm-10.8,3.151-4.351-3.567V178.474l3.651-3.58h6.936l3.651,3.58v5.664h-5.343v-5.111h-3.624v17.984h3.624v-6.471h5.343v7.185q-1.954,1.775-3.907,3.551Z" transform="translate(-765.911 -167.516)" fill="#fff"/>
      <path id="Path_1879" data-name="Path 1879" d="M1271.586,202.15l-6.715-15,5.756-13.208h-7.721l-3.369,9.227v-9.227H1252.5V202.15h7.037v-9.6l3.723,9.6Zm-12.077-12.207-.882.165v11.131h-5.212V174.855h5.212v10.894l.886.157,4.034-11.051h5.688l-5.36,12.3,6.3,14.083h-6.292Z" transform="translate(-1209.608 -167.478)" fill="#fff"/>
      <path id="Path_1880" data-name="Path 1880" d="M2007.066,183.764v-5.673l-4.151-4.111H1995.5l-4.343,4.1v8.9l4.839,4.038,4.1.321V196.1h-1.946v-3.693h-6.923l0,5.475,4.262,4.308h7.109l4.453-4.063v-9l-4.382-4.077-4.345-.61v-4.577h1.761v3.906Zm-9.651-4.82v6.282l4.845.682c.194.178,3.62,3.367,3.884,3.612v8.2l-3.894,3.551h-6.373l-3.729-3.771,0-4.187h5.1v3.693h3.77V190.5l-4.651-.364-4.287-3.577v-8.08l3.792-3.585h6.672l3.613,3.579v4.378H2001v-3.906Z" transform="translate(-1920.805 -167.516)" fill="#fff"/>
    </g>
    <rect id="Rectangle_823" data-name="Rectangle 823" width="140" height="140" transform="translate(0.074)" fill="none"/>
  </g>
</svg>
