<svg xmlns="http://www.w3.org/2000/svg" xmlns:xlink="http://www.w3.org/1999/xlink" width="140" height="140" viewBox="0 0 140 140">
  <defs>
    <clipPath id="clip-path">
      <rect id="Rectangle_836" data-name="Rectangle 836" width="140" height="140" transform="translate(0.121)" fill="#1c1c21"/>
    </clipPath>
  </defs>
  <g id="Mask_Group_209" data-name="Mask Group 209" transform="translate(-0.121)" clip-path="url(#clip-path)">
    <g id="Group_983" data-name="Group 983" transform="translate(29.165 48.393)">
      <path id="Path_1889" data-name="Path 1889" d="M393.352,483.774c-.435,2.426-.864,4.825-1.29,7.223-.112.621-.218,1.24-.311,1.863-.03.194-.114.263-.3.261-1.621,0-3.24,0-4.861,0-.259,0-.257-.13-.222-.319.17-.96.335-1.922.5-2.881q.309-1.755.625-3.51c.224-1.264.453-2.527.675-3.791q.3-1.719.6-3.442.244-1.4.485-2.809c.174-1.006.369-2.01.523-3.019.054-.361.172-.515.559-.489.535.036,1.072.008,1.609.01a2.773,2.773,0,0,1,2.647,1.661c1.19,2.4,2.37,4.809,3.56,7.209.052.108.084.3.228.284.174-.024.136-.224.16-.359q.4-2.263.8-4.53c.21-1.194.425-2.388.621-3.584.112-.679.1-.683.773-.683,1.465,0,2.929.008,4.394,0,.3,0,.355.084.3.373-.232,1.2-.439,2.41-.655,3.615q-.406,2.284-.809,4.566-.373,2.125-.745,4.252-.4,2.263-.805,4.53c-.152.866-.321,1.729-.449,2.6-.04.271-.14.329-.385.323-.559-.016-1.12,0-1.679,0a2.769,2.769,0,0,1-2.617-1.655q-1.848-3.69-3.673-7.391C393.556,483.96,393.524,483.83,393.352,483.774Z" transform="translate(-363.61 -472.862)" fill="#fff"/>
      <path id="Path_1890" data-name="Path 1890" d="M408.325,493.119c-.785,0-1.571-.01-2.356,0-.27.006-.361-.066-.309-.345q.481-2.594.942-5.191c.26-1.474.5-2.951.761-4.426s.531-2.923.792-4.386.5-2.905.757-4.358c.074-.433.17-.862.232-1.3.03-.2.1-.257.3-.255q2.413.009,4.823,0c.238,0,.321.062.275.307-.208,1.134-.407,2.27-.609,3.4q-.37,2.074-.743,4.141c-.032.176.032.24.2.24q2,0,4,0a.247.247,0,0,0,.281-.244q.574-3.339,1.16-6.674c.022-.128.066-.254.088-.383.14-.787.14-.789.954-.789,1.393,0,2.787.006,4.18,0,.295,0,.379.048.319.381-.324,1.739-.609,3.486-.916,5.231-.256,1.451-.529,2.9-.785,4.348-.212,1.194-.409,2.39-.619,3.584-.26,1.475-.527,2.947-.787,4.422-.116.655-.242,1.31-.337,1.967-.036.242-.128.321-.365.319q-2.374-.009-4.751,0c-.258,0-.327-.072-.279-.333.283-1.543.549-3.089.822-4.634.1-.585.2-1.172.315-1.755.048-.26.012-.385-.307-.381q-1.875.024-3.751,0c-.27,0-.383.09-.427.347q-.442,2.6-.9,5.2c-.076.433-.184.862-.242,1.3-.03.226-.132.26-.327.258-.8-.006-1.595,0-2.394,0Z" transform="translate(-344.243 -472.857)" fill="#fff"/>
      <path id="Path_1891" data-name="Path 1891" d="M403.625,493.117c-1.573,0-3.144-.006-4.716,0-.269,0-.359-.054-.3-.343.277-1.459.545-2.921.789-4.386.048-.285.166-.337.419-.337,1.917.008,3.835,0,5.752,0,.565,0,.619-.078.367-.591-1.435-2.925-2.865-5.855-4.318-8.774a4.033,4.033,0,0,1,2.338-5.65,3.633,3.633,0,0,1,1.122-.178q4.52.009,9.04,0c.262,0,.387.026.327.35-.268,1.451-.511,2.9-.757,4.358-.046.265-.164.369-.455.367-1.881-.014-3.763-.008-5.644-.008-.581,0-.631.072-.383.577q2.149,4.37,4.306,8.738a4,4,0,0,1-2.262,5.672,3.563,3.563,0,0,1-1.226.2C406.554,493.111,405.089,493.117,403.625,493.117Z" transform="translate(-351.326 -472.857)" fill="#fff"/>
      <path id="Path_1892" data-name="Path 1892" d="M387.24,477.934c-1.274,0-2.549.008-3.823-.006-.26,0-.393.062-.429.337-.06.449-.142.894-.236,1.334-.064.3.05.365.331.363,1.929-.008,3.857,0,5.786-.006.429,0,.435.016.357.445-.23,1.262-.461,2.525-.667,3.791-.134.833-.116.836-.97.836-1.8,0-3.6.006-5.4-.006-.285,0-.411.056-.463.371-.357,2.12-.737,4.238-1.114,6.355-.066.375-.152.745-.212,1.12-.03.19-.108.256-.3.254q-2.41-.009-4.823,0c-.249,0-.309-.084-.266-.319q.61-3.351,1.208-6.7c.307-1.731.575-3.47.908-5.2a32.569,32.569,0,0,1,.825-4.192,5.431,5.431,0,0,1,3.607-3.566,5.947,5.947,0,0,1,1.932-.274q4.217.012,8.431,0c.315,0,.409.052.345.391-.244,1.272-.457,2.549-.681,3.825l-.016.07c-.15.783-.15.783-.936.783Z" transform="translate(-375 -472.858)" fill="#fff"/>
      <path id="Path_1893" data-name="Path 1893" d="M389.027,472.871c.773,0,1.549.008,2.322-.006.268-.006.359.066.307.345q-.412,2.188-.8,4.38c-.258,1.475-.5,2.951-.761,4.426-.3,1.731-.625,3.46-.932,5.191-.212,1.194-.411,2.39-.619,3.582-.118.679-.253,1.357-.367,2.036-.034.212-.11.3-.343.3q-2.392-.018-4.787,0c-.285,0-.3-.114-.262-.347q.544-2.981,1.076-5.965.568-3.192,1.128-6.387c.353-2.014.693-4.027,1.044-6.041.07-.409.178-.814.226-1.226.028-.236.12-.29.339-.288C387.408,472.877,388.217,472.871,389.027,472.871Z" transform="translate(-367.203 -472.858)" fill="#fff"/>
      <path id="Path_1894" data-name="Path 1894" d="M397.692,493.117c-.785,0-1.573-.006-2.358,0-.257,0-.351-.042-.295-.343.441-2.42.864-4.843,1.288-7.263.4-2.282.789-4.566,1.188-6.848.321-1.839.653-3.675.972-5.514.036-.2.11-.286.319-.286q2.413.009,4.823,0c.244,0,.295.086.25.323q-.5,2.771-.982,5.546c-.3,1.745-.6,3.49-.908,5.236-.258,1.461-.535,2.921-.793,4.384s-.5,2.925-.747,4.39c-.044.268-.142.387-.437.379C399.238,493.1,398.465,493.117,397.692,493.117Z" transform="translate(-354.904 -472.857)" fill="#fff"/>
      <g id="Group_982" data-name="Group 982" transform="translate(12.081 23.173)">
        <path id="Path_1895" data-name="Path 1895" d="M403.321,493.75c.16-.874.313-1.687.457-2.5.164-.922.319-1.845.483-2.767.214-1.214.451-2.426.639-3.645.05-.335.178-.4.479-.4,1.525.012,3.05.016,4.572,0,.339,0,.417.112.361.417-.162.862-.315,1.727-.467,2.591-.18,1.028-.355,2.058-.539,3.086-.212,1.19-.437,2.38-.647,3.571-.166.934-.321,1.869-.485,2.8-.168.958-.345,1.914-.513,2.871-.164.934-.317,1.869-.481,2.8-.11.619-.254,1.23-.315,1.857-.012.14-.08.266-.241.26a12.662,12.662,0,0,1-2.629-.1,2.9,2.9,0,0,1-1.919-1.709q-1.779-3.616-3.574-7.223c-.046-.094-.056-.269-.218-.23-.122.028-.1.174-.116.276l-.974,5.476c-.188,1.064-.383,2.128-.559,3.194-.04.254-.148.326-.4.325q-2.356-.012-4.714,0c-.293,0-.331-.112-.281-.375.234-1.27.445-2.545.673-3.817.17-.944.377-1.883.523-2.833.136-.878.3-1.751.457-2.627q.267-1.491.529-2.979c.158-.912.31-1.825.473-2.737.22-1.252.449-2.5.673-3.751.056-.316.122-.631.166-.948.02-.15.084-.2.228-.2a21.293,21.293,0,0,1,2.32.03,2.634,2.634,0,0,1,2.1,1.471c.677,1.324,1.328,2.661,1.986,4,.583,1.182,1.158,2.37,1.741,3.552A1.684,1.684,0,0,0,403.321,493.75Z" transform="translate(-370.799 -484.427)" fill="#fff"/>
        <path id="Path_1896" data-name="Path 1896" d="M406.72,504.7c-2.144,0-4.288-.01-6.432.008-.371,0-.433-.108-.371-.441.208-1.12.393-2.246.593-3.368.206-1.158.425-2.314.633-3.472q.442-2.455.874-4.915c.3-1.731.6-3.466.9-5.2.15-.856.313-1.707.453-2.563.038-.236.138-.313.375-.313q6.555.006,13.112,0c.309,0,.365.13.317.393q-.325,1.752-.639,3.5c-.05.28-.1.563-.142.844a.376.376,0,0,1-.437.357c-2.537-.01-5.073,0-7.61-.016-.341,0-.469.124-.509.433-.05.377-.116.751-.178,1.128-.076.465-.076.471.377.471h5.61c.094,0,.19,0,.285,0,.218,0,.25.1.212.3-.182.976-.353,1.956-.527,2.935-.1.537-.2,1.074-.283,1.611-.034.2-.184.2-.321.206-.321.012-.643.008-.964.01-1.657,0-3.312,0-4.967-.006-.3,0-.441.066-.487.4-.1.729-.248,1.453-.379,2.178-.076.411-.04.459.377.459q3.718,0,7.431,0c.487,0,.523.022.437.5-.162.924-.369,1.837-.513,2.763-.074.481-.178.958-.238,1.441-.036.288-.182.359-.455.357C411.078,504.7,408.9,504.7,406.72,504.7Z" transform="translate(-362.094 -484.42)" fill="#fff"/>
        <path id="Path_1897" data-name="Path 1897" d="M387.843,504.7c-1.286,0-2.573-.022-3.857.006a2.836,2.836,0,0,1-2.885-2.17,3.151,3.151,0,0,1,0-1.312q.763-4.376,1.535-8.75c.347-1.966.705-3.929,1.056-5.895.11-.621.218-1.24.313-1.863.03-.19.11-.268.3-.268q2.447,0,4.893-.008c.2,0,.238.108.21.277-.114.667-.224,1.334-.343,2-.168.946-.343,1.891-.511,2.837s-.325,1.869-.487,2.805c-.172.982-.341,1.964-.517,2.943-.214,1.2-.417,2.408-.657,3.609-.142.715-.156.733.555.731,1.857,0,3.715-.012,5.57-.02.248,0,.369.064.315.359q-.415,2.224-.791,4.454c-.046.272-.208.27-.409.27q-2.143,0-4.286,0Z" transform="translate(-381.029 -484.418)" fill="#fff"/>
        <path id="Path_1898" data-name="Path 1898" d="M390.309,504.7c-.775,0-1.549-.006-2.322,0-.268,0-.377-.042-.321-.363.593-3.312,1.166-6.628,1.751-9.942.543-3.079,1.11-6.153,1.629-9.237.136-.819.124-.723.892-.725,1.395,0,2.787,0,4.18,0,.3,0,.457.022.381.4-.21,1.046-.379,2.1-.561,3.15-.2,1.158-.4,2.316-.6,3.474q-.394,2.227-.792,4.452c-.212,1.206-.419,2.412-.631,3.619-.287,1.637-.579,3.274-.86,4.915-.044.25-.2.252-.391.252C391.88,504.7,391.094,504.7,390.309,504.7Z" transform="translate(-374.383 -484.419)" fill="#fff"/>
        <path id="Path_1899" data-name="Path 1899" d="M409.282,494.6a1.167,1.167,0,0,0-.054.485c-.012.1.044.24-.12.242s-.16-.136-.158-.258c0-.263,0-.523,0-.785,0-.122.028-.295-.19-.245-.16.036-.417-.076-.4.251.008.262,0,.525,0,.787,0,.122.006.264-.162.258s-.156-.15-.158-.27c0-.178-.008-.359,0-.537.012-.264.022-.517-.363-.483-.078.006-.142-.032-.128-.128a.162.162,0,0,1,.178-.14,8.114,8.114,0,0,1,.857.006,1.663,1.663,0,0,0,.589,0c.174-.046.287.082.311.263a.769.769,0,0,0,.118.369c.056.076,0,.252.16.224.118-.02.118-.162.152-.262.054-.156.108-.313.16-.471.042-.132.15-.136.261-.134.15,0,.162.112.164.226,0,.369.006.737,0,1.106,0,.09.016.212-.118.222a.16.16,0,0,1-.192-.16c0-.07-.022-.148-.114-.152s-.116.068-.132.14c-.026.12-.092.194-.222.176s-.166-.11-.2-.22A1.14,1.14,0,0,0,409.282,494.6Z" transform="translate(-354.422 -475.056)" fill="#fff"/>
      </g>
    </g>
  </g>
</svg>
