<svg xmlns="http://www.w3.org/2000/svg" xmlns:xlink="http://www.w3.org/1999/xlink" width="140" height="140" viewBox="0 0 140 140">
  <defs>
    <clipPath id="clip-path">
      <rect id="Rectángulo_1059" data-name="Rectángulo 1059" width="140" height="140" transform="translate(4090.5 2260.5)" fill="none" stroke="#707070" stroke-width="1"/>
    </clipPath>
  </defs>
  <g id="microsoft" transform="translate(-4090.5 -2260.5)" clip-path="url(#clip-path)">
    <g id="microsoft-2" data-name="microsoft" transform="translate(4095.898 2316.338)">
      <path id="Trazado_1931" data-name="Trazado 1931" d="M381.507,42.785v-2.3h-2.862V36.9l-.1.03-2.688.823-.053.016v2.715h-4.243V38.968a2.4,2.4,0,0,1,.468-1.6,1.65,1.65,0,0,1,1.311-.536,3.055,3.055,0,0,1,1.244.283l.106.047V34.733l-.05-.018a4.849,4.849,0,0,0-1.59-.212,4.66,4.66,0,0,0-2.255.542,3.854,3.854,0,0,0-1.547,1.53,4.559,4.559,0,0,0-.548,2.244V40.48H366.71v2.3H368.7V52.5h2.861v-9.71h4.243v6.171c0,2.541,1.2,3.829,3.563,3.829a5.844,5.844,0,0,0,1.215-.135,3.356,3.356,0,0,0,.885-.281l.038-.022V50.021l-.116.077a2,2,0,0,1-.575.251,2.186,2.186,0,0,1-.565.1A1.533,1.533,0,0,1,379.033,50a2.389,2.389,0,0,1-.388-1.544V42.785Zm-21.187,7.66a3.035,3.035,0,0,1-2.434-1.023,4.343,4.343,0,0,1-.875-2.888,4.514,4.514,0,0,1,.875-2.965,2.987,2.987,0,0,1,2.411-1.039,2.941,2.941,0,0,1,2.347.993,4.426,4.426,0,0,1,.857,2.941,4.719,4.719,0,0,1-.806,2.977,2.869,2.869,0,0,1-2.375,1m.127-10.255a6.275,6.275,0,0,0-4.677,1.725,6.47,6.47,0,0,0-1.69,4.71,6.127,6.127,0,0,0,1.65,4.5,5.984,5.984,0,0,0,4.427,1.661,6.1,6.1,0,0,0,4.584-1.749,6.452,6.452,0,0,0,1.689-4.663,6.3,6.3,0,0,0-1.585-4.53,5.838,5.838,0,0,0-4.4-1.651m-10.979,0a5.172,5.172,0,0,0-3.314,1.024,3.268,3.268,0,0,0-1.291,2.666,3.729,3.729,0,0,0,.278,1.49A2.993,2.993,0,0,0,346,46.488a7.441,7.441,0,0,0,1.739.973,12.957,12.957,0,0,1,1.446.674,2.011,2.011,0,0,1,.637.523,1.174,1.174,0,0,1,.177.681c0,.807-.6,1.2-1.848,1.2a5.081,5.081,0,0,1-1.564-.286,5.876,5.876,0,0,1-1.6-.812l-.119-.085v2.755l.044.02a7.087,7.087,0,0,0,1.517.468,8.135,8.135,0,0,0,1.62.187,5.492,5.492,0,0,0,3.5-1.03,3.332,3.332,0,0,0,1.3-2.729,3.139,3.139,0,0,0-.7-2.064,6.009,6.009,0,0,0-2.382-1.516,6.141,6.141,0,0,1-1.7-.882,1.235,1.235,0,0,1-.342-.925,1.031,1.031,0,0,1,.434-.856,1.951,1.951,0,0,1,1.218-.344,4.984,4.984,0,0,1,1.449.223,4.658,4.658,0,0,1,1.266.587l.117.08V40.715l-.045-.019a6.243,6.243,0,0,0-1.285-.359,7.847,7.847,0,0,0-1.409-.146M337.4,50.446a3.035,3.035,0,0,1-2.434-1.023,4.342,4.342,0,0,1-.874-2.888,4.513,4.513,0,0,1,.875-2.965,2.985,2.985,0,0,1,2.41-1.039,2.942,2.942,0,0,1,2.347.993,4.425,4.425,0,0,1,.857,2.941,4.719,4.719,0,0,1-.806,2.977,2.869,2.869,0,0,1-2.375,1m.128-10.255a6.274,6.274,0,0,0-4.677,1.725,6.471,6.471,0,0,0-1.69,4.71,6.126,6.126,0,0,0,1.65,4.5,5.984,5.984,0,0,0,4.427,1.661,6.1,6.1,0,0,0,4.584-1.749,6.454,6.454,0,0,0,1.689-4.663,6.294,6.294,0,0,0-1.585-4.53,5.838,5.838,0,0,0-4.4-1.651m-10.71,2.37V40.48H324V52.5h2.826V46.349a4.283,4.283,0,0,1,.7-2.552,2.161,2.161,0,0,1,1.828-.965,3.319,3.319,0,0,1,.85.125,2.149,2.149,0,0,1,.659.266l.119.086V40.46l-.046-.02a2.926,2.926,0,0,0-1.107-.168,2.9,2.9,0,0,0-1.89.678,3.828,3.828,0,0,0-1.087,1.612Zm-7.887-2.37a6.976,6.976,0,0,0-3.437.826,5.567,5.567,0,0,0-2.267,2.331,7.424,7.424,0,0,0-.779,3.453,6.37,6.37,0,0,0,.757,3.1,5.317,5.317,0,0,0,2.115,2.138,6.3,6.3,0,0,0,3.09.751,6.765,6.765,0,0,0,3.409-.8l.037-.021V49.376l-.119.087a5.313,5.313,0,0,1-1.383.72,4.178,4.178,0,0,1-1.354.262,3.48,3.48,0,0,1-2.645-1.031,4.011,4.011,0,0,1-.976-2.857,4.161,4.161,0,0,1,1.017-2.933,3.461,3.461,0,0,1,2.651-1.094,4.539,4.539,0,0,1,2.691.936l.119.086V40.824l-.038-.022a4.663,4.663,0,0,0-1.307-.442,7.81,7.81,0,0,0-1.58-.17m-8.428.29H307.68V52.5h2.826Zm-1.384-5.118a1.7,1.7,0,0,0-1.2.472,1.558,1.558,0,0,0-.5,1.178,1.514,1.514,0,0,0,.5,1.155,1.721,1.721,0,0,0,1.21.46,1.743,1.743,0,0,0,1.215-.46,1.508,1.508,0,0,0,.506-1.156,1.588,1.588,0,0,0-.492-1.166,1.686,1.686,0,0,0-1.229-.485m-7.052,4.232V52.5h2.884V35.73h-3.992l-5.074,12.452L290.964,35.73H286.81V52.495h2.71v-12.9h.093l5.2,12.9h2.045l5.118-12.9h.093Z" transform="translate(-250.448 -30.128)" fill="#fff"/>
      <path id="Trazado_1932" data-name="Trazado 1932" d="M13.3,13.3H0V0H13.3Z" fill="#fff"/>
      <path id="Trazado_1933" data-name="Trazado 1933" d="M129.083,13.3H115.788V0h13.295Z" transform="translate(-101.108)" fill="#fff"/>
      <path id="Trazado_1934" data-name="Trazado 1934" d="M13.295,129.123H0v-13.3H13.295Z" transform="translate(0 -101.143)" fill="#fff"/>
      <path id="Trazado_1935" data-name="Trazado 1935" d="M129.083,129.123H115.788v-13.3h13.295Z" transform="translate(-101.108 -101.143)" fill="#fff"/>
    </g>
  </g>
</svg>
