<svg xmlns="http://www.w3.org/2000/svg" xmlns:xlink="http://www.w3.org/1999/xlink" width="140" height="140" viewBox="0 0 140 140">
  <defs>
    <clipPath id="clip-path">
      <rect id="Rectángulo_1064" data-name="Rectángulo 1064" width="140" height="140" transform="translate(4502.5 2574.5)" fill="none" stroke="#707070" stroke-width="1"/>
    </clipPath>
  </defs>
  <g id="newegg" transform="translate(-4502.5 -2574.5)" clip-path="url(#clip-path)">
    <g id="Grupo_1203" data-name="Grupo 1203" transform="translate(3205.772 2429.714)">
      <g id="layer8" transform="translate(1341.735 206.585)">
        <g id="g4693" transform="translate(0 0)">
          <path id="path4703" d="M1394.623,229.517l-.443,1.356a5.047,5.047,0,0,1,1.5-1.224,3.8,3.8,0,0,1,1.723-.415,2.456,2.456,0,0,1,1.731.525,1.743,1.743,0,0,1,.581,1.365,13.266,13.266,0,0,1-.509,2.753L1396.54,244.2l-4.477.037,2.64-10.205a10.543,10.543,0,0,0,.387-1.852c-.009-.222-.159-.332-.459-.329a.751.751,0,0,0-.681.388,11.186,11.186,0,0,0-.653,2.049l-2.577,9.959-4.475.039,3.811-14.732,4.568-.038Z" transform="translate(-1386.245 -228.707)" fill="#fff"/>
          <path id="path4705" d="M1429.082,231.6a2.717,2.717,0,0,0-1.225-1.88,5.109,5.109,0,0,0-2.915-.689,7.1,7.1,0,0,0-2.871.619,5.244,5.244,0,0,0-2.145,1.72,9.115,9.115,0,0,0-1.305,3.052l-1.114,4.29a10.52,10.52,0,0,0-.415,2.5,3.169,3.169,0,0,0,.429,1.563,2.722,2.722,0,0,0,1.4,1.114,6.108,6.108,0,0,0,2.385.388,7.04,7.04,0,0,0,2.537-.435,5.7,5.7,0,0,0,1.917-1.262,6.088,6.088,0,0,0,1.208-1.573,11.365,11.365,0,0,0,.713-2.1l.281-1.088-4.25.037-.5,1.944a5.434,5.434,0,0,1-.552,1.489.9.9,0,0,1-.766.385q-.406,0-.472-.281a3.674,3.674,0,0,1,.191-1.288l.827-3.189,5.772-.047.509-1.951A8.761,8.761,0,0,0,1429.082,231.6Zm-4.45,1.844-.281,1.084-1.3.01.281-1.084a6.952,6.952,0,0,1,.509-1.536.706.706,0,0,1,.646-.288.345.345,0,0,1,.4.331A5.328,5.328,0,0,1,1424.632,233.448Z" transform="translate(-1404.391 -228.589)" fill="#fff"/>
          <path id="path4707" d="M1462.943,229.231l-5.609,14.744-4.81.043q.3-2.7.92-7.144-.742,1.97-1.579,3.945l-1.289,3.212-4.808.044,1.918-14.716,3.822-.034q-.082.573-1.2,8.462.322-.842,3.212-8.478l3.646-.032-1.264,8.462q1.19-3.736,3.214-8.478l3.828-.031Z" transform="translate(-1421.259 -228.705)" fill="#fff"/>
          <path id="path4709" d="M1495.327,230.962a2.707,2.707,0,0,0-1.224-1.881,5.084,5.084,0,0,0-2.915-.689,7.029,7.029,0,0,0-2.871.619,5.239,5.239,0,0,0-2.142,1.72,9.2,9.2,0,0,0-1.312,3.052l-1.108,4.29a10.428,10.428,0,0,0-.415,2.5,3.123,3.123,0,0,0,.428,1.566,2.744,2.744,0,0,0,1.4,1.111,6.177,6.177,0,0,0,2.386.392,7.07,7.07,0,0,0,2.54-.439,5.632,5.632,0,0,0,1.917-1.261,6.185,6.185,0,0,0,1.208-1.573,11.134,11.134,0,0,0,.709-2.1l.285-1.087-4.25.037-.505,1.944a5.2,5.2,0,0,1-.549,1.489.9.9,0,0,1-.77.388c-.271,0-.425-.093-.472-.284a3.74,3.74,0,0,1,.194-1.292l.823-3.182,5.772-.05.509-1.954A8.664,8.664,0,0,0,1495.327,230.962Zm-4.447,1.847-.281,1.081-1.3.01.284-1.084a7.177,7.177,0,0,1,.5-1.536.723.723,0,0,1,.653-.288.348.348,0,0,1,.4.331A5.642,5.642,0,0,1,1490.88,232.809Z" transform="translate(-1443.36 -228.211)" fill="#fff"/>
          <path id="path4711" d="M1519.253,228.432l-.6,1.121a2.54,2.54,0,0,0-.977-1.024,2.836,2.836,0,0,0-1.439-.331,3.616,3.616,0,0,0-2.527.937,6.218,6.218,0,0,0-1.539,3.021l-1.382,5.344a6.472,6.472,0,0,0-.288,2.252,1.749,1.749,0,0,0,.74,1.272,3.064,3.064,0,0,0,1.864.472,4.067,4.067,0,0,0,1.409-.278,6.039,6.039,0,0,0,1.416-.8l-.291,1.128a3.878,3.878,0,0,1-.5,1.275.938.938,0,0,1-.756.311c-.485,0-.636-.328-.462-.994l-4.343.04q-.512,2.133.6,2.858a5.953,5.953,0,0,0,3.249.7,9.956,9.956,0,0,0,2.978-.425,5.591,5.591,0,0,0,2.075-1.155,4.234,4.234,0,0,0,1.121-1.432,27.1,27.1,0,0,0,.883-2.971l2.938-11.354Zm-1.322,3.908-1.185,4.568a6.994,6.994,0,0,1-.552,1.613.752.752,0,0,1-.669.358c-.261,0-.405-.091-.435-.291a4.165,4.165,0,0,1,.214-1.279l1.282-4.959a3.875,3.875,0,0,1,.485-1.252.767.767,0,0,1,.633-.321c.258,0,.4.091.438.275A4.154,4.154,0,0,1,1517.931,232.34Z" transform="translate(-1458.7 -228.097)" fill="#fff"/>
          <path id="path4713" d="M1547.832,228.185l-.606,1.124a2.488,2.488,0,0,0-.974-1.024,2.8,2.8,0,0,0-1.439-.331,3.6,3.6,0,0,0-2.53.94,6.186,6.186,0,0,0-1.539,3.018l-1.382,5.344a6.783,6.783,0,0,0-.284,2.255,1.748,1.748,0,0,0,.74,1.272,3.108,3.108,0,0,0,1.864.469,3.959,3.959,0,0,0,1.405-.278,5.961,5.961,0,0,0,1.419-.8l-.294,1.128a3.872,3.872,0,0,1-.5,1.275.927.927,0,0,1-.756.311c-.485,0-.632-.328-.462-.991l-4.343.034c-.338,1.429-.14,2.375.6,2.858a5.867,5.867,0,0,0,3.243.7,9.816,9.816,0,0,0,2.978-.418,5.679,5.679,0,0,0,2.082-1.161,4.261,4.261,0,0,0,1.114-1.426,26.419,26.419,0,0,0,.88-2.975l2.941-11.354Zm-1.325,3.912-1.184,4.567a6.8,6.8,0,0,1-.556,1.613.737.737,0,0,1-.662.358c-.261,0-.408-.094-.435-.288a4.445,4.445,0,0,1,.211-1.281l1.285-4.959a4.091,4.091,0,0,1,.479-1.248.787.787,0,0,1,.639-.324c.258,0,.405.087.435.274A4.159,4.159,0,0,1,1546.507,232.1Z" transform="translate(-1475.51 -227.953)" fill="#fff"/>
          <path id="path4715" d="M1576.915,230.682a.773.773,0,0,0-.137-.17c-.023-.02-.033-.017-.077-.04a.445.445,0,0,0,.268-.121.328.328,0,0,0,.077-.231.457.457,0,0,0-.067-.208.275.275,0,0,0-.14-.121.8.8,0,0,0-.254-.033h-.559v1.265h.251v-.5h.11a.143.143,0,0,1,.14.063c.1.134.171.295.268.435h.338Zm-.639-.365v-.355h.314a.189.189,0,0,1,.18.194c0,.09-.1.161-.221.161Z" transform="translate(-1497.881 -229.015)" fill="#fff"/>
          <path id="path4717" d="M1576.831,229.813a1.072,1.072,0,1,1-1.072-1.072A1.072,1.072,0,0,1,1576.831,229.813Z" transform="translate(-1497.094 -228.417)" fill="#fff"/>
        </g>
      </g>
      <path id="Trazado_1944" data-name="Trazado 1944" d="M1356.3,225.2h-5.411a21.729,21.729,0,0,0,4.809,7.69,14.58,14.58,0,0,1-5.5.777c-6.886-.442-15.858-4.484-15.858-14.867,0-7.7,6.271-16.885,13.331-22.1l.034-.023c3.453-2.543,7.09-4.136,10.276-4.136a11.661,11.661,0,0,1,8.871,4.246s-1.479-5.16-8.8-5.16A23.443,23.443,0,0,0,1346.774,195c-1.118-1.493-3.41-3.376-7.834-3.376-12.5,0-28.363,14.958-28.363,28.011,0,9.148,7.854,16.774,17.079,16.774,5.377,0,8.295-1.529,9.791-2.8a17.035,17.035,0,0,0,9.319,2.8c5.321,0,8.232-1.5,9.744-2.76,9.249,8.058,23.7,2.346,29.216-8.449C1375.665,236.337,1362.24,236.109,1356.3,225.2Zm-25.211,8.466c-6.89-.442-15.857-4.484-15.857-14.867,0-11.474,13.937-26.261,23.641-26.261a11.455,11.455,0,0,1,7.4,2.757c-8.891,5.24-16.581,15.252-16.581,24.34a16.734,16.734,0,0,0,6.793,13.287A14.452,14.452,0,0,1,1331.087,233.67Z" transform="translate(0 0)" fill="#fff"/>
    </g>
  </g>
</svg>
