<svg xmlns="http://www.w3.org/2000/svg" xmlns:xlink="http://www.w3.org/1999/xlink" width="139" height="139" viewBox="0 0 139 139">
  <defs>
    <clipPath id="clip-path">
      <rect id="Rect치ngulo_1063" data-name="Rect치ngulo 1063" width="139" height="139" transform="translate(0 0.5)" fill="none"/>
    </clipPath>
  </defs>
  <g id="nike_snkrs" transform="translate(-127.996 -49.138)">
    <g id="Grupo_1200" data-name="Grupo 1200" transform="translate(127.996 48.638)" clip-path="url(#clip-path)">
      <g id="Enmascarar_grupo_120" data-name="Enmascarar grupo 120" transform="translate(32.484 43.703)">
        <g id="Grupo_27" data-name="Grupo 27">
          <path id="Exclusi칩n_11" data-name="Exclusi칩n 11" d="M200.418,108.1a14.92,14.92,0,0,1-3.133-.265l.039.071h-7.153l-3.722-10.02c.013.395.026.8.045,1.185h0c.026.783.065,1.592.065,2.389V107.9H174.222l-3.987-10.389V107.9h-6.557V83.656h6.557v7.01l3.321-7.043h12.739a14.248,14.248,0,0,1,6.033,1.049,6.149,6.149,0,0,1,3.437,3.987A7.061,7.061,0,0,1,202.8,83.4a10.434,10.434,0,0,1,4.7,1v7.379a5.312,5.312,0,0,0-3.878-2.6,1.646,1.646,0,0,0-1.715,1.489,2.108,2.108,0,0,0,.634,1.34,5.705,5.705,0,0,0,.764.66c.155.123.3.233.427.343a12.163,12.163,0,0,1,3.243,2.978,6.878,6.878,0,0,1,1.2,4.214,8.041,8.041,0,0,1-2.155,5.638,7.2,7.2,0,0,1-2.453,1.664A8.333,8.333,0,0,1,200.418,108.1Zm-20.5-23.264-4.544,9.392,4.544,10.881Zm15.917,9.095h0a6.036,6.036,0,0,1-1.236,2.3,5.848,5.848,0,0,1-2.233,1.573l3.055,6.259V99.716a5.6,5.6,0,0,0,4.175,2.68,1.779,1.779,0,0,0,1.935-1.605,1.813,1.813,0,0,0-.518-1.34,6.991,6.991,0,0,0-1.081-.926,16.18,16.18,0,0,1-3.282-3.094,6.523,6.523,0,0,1-.816-1.489Zm-9.153-5.107h-.207v6l.414.039a2.839,2.839,0,0,0,2.693-2.965l-.013-.129a2.657,2.657,0,0,0-2.337-2.945,3.122,3.122,0,0,0-.55-.006ZM138.775,108.1a12.819,12.819,0,0,1-4.958-.79v-7.6a5.568,5.568,0,0,0,4.175,2.68,1.716,1.716,0,0,0,1.411-2.939,4.145,4.145,0,0,0-1.081-.932,15.963,15.963,0,0,1-3.269-3.1,7.149,7.149,0,0,1-1.308-4.246,8.734,8.734,0,0,1,1.6-4.939,6.66,6.66,0,0,1,2.285-2,7.438,7.438,0,0,1,3.534-.809,10.44,10.44,0,0,1,4.324,1.042v6.816a5.02,5.02,0,0,0-3.5-2.084,1.638,1.638,0,0,0-1.715,1.489,2.077,2.077,0,0,0,.634,1.34,4.946,4.946,0,0,0,.764.66c.149.123.3.233.427.35a12.034,12.034,0,0,1,3.243,2.971,5.827,5.827,0,0,1,1.01,2.278V83.643h6.894l3.126,10.881V83.643h6.324V107.9H157.3l-4.589-11.884V107.9h-6.37v-5.949a7.526,7.526,0,0,1-2.563,4.428,7.7,7.7,0,0,1-5,1.722ZM152.66,73.662h0a5.561,5.561,0,0,1-5.094-2.492,5.638,5.638,0,0,1-.537-4.182,14.578,14.578,0,0,1,2.143-4.945,45.642,45.642,0,0,1,4.835-5.923,14.089,14.089,0,0,0-1.761,4.324,4.712,4.712,0,0,0,1.651,5.1,5.438,5.438,0,0,0,3.2.829,15.116,15.116,0,0,0,3.69-.531l36.333-9.574L160.357,71.733a20.841,20.841,0,0,1-7.69,1.922Z" transform="translate(-133.745 -56.12)" fill="#fff"/>
        </g>
      </g>
    </g>
  </g>
</svg>
