<svg xmlns="http://www.w3.org/2000/svg" xmlns:xlink="http://www.w3.org/1999/xlink" width="140" height="140" viewBox="0 0 140 140">
  <defs>
    <clipPath id="clip-path">
      <rect id="Rectángulo_1065" data-name="Rectángulo 1065" width="140" height="140" transform="translate(4728.5 2574.5)" fill="none" stroke="#707070" stroke-width="1"/>
    </clipPath>
  </defs>
  <g id="panini" transform="translate(-4728.5 -2574.5)" clip-path="url(#clip-path)">
    <g id="Grupo_1204" data-name="Grupo 1204" transform="translate(5341.65 2707.93)">
      <path id="Trazado_1945" data-name="Trazado 1945" d="M-556.462-60.191a.456.456,0,0,1-.419.189l-1.459.007a.571.571,0,0,1-.365-.115.559.559,0,0,1-.189-.338c0-.027-.007-.054-.007-.081a.75.75,0,0,1,.014-.115l1.108-3.985a.1.1,0,0,1,.189-.034c.412,1.344.79,2.681,1.189,4.019A.468.468,0,0,1-556.462-60.191Z" transform="translate(-15.175 -2.993)" fill="#fff" fill-rule="evenodd"/>
      <path id="Trazado_1946" data-name="Trazado 1946" d="M-582.931-65.611v4a.886.886,0,0,1-.074.351.815.815,0,0,1-.2.3.916.916,0,0,1-.648.27h-1.337a.46.46,0,0,1-.331-.128.473.473,0,0,1-.142-.331v-4.9a.48.48,0,0,1,.135-.331.476.476,0,0,1,.338-.142h1.337a.9.9,0,0,1,.351.068.968.968,0,0,1,.3.2A.9.9,0,0,1-582.931-65.611Z" transform="translate(-6.489 -2.402)" fill="#fff" fill-rule="evenodd"/>
      <path id="Trazado_1947" data-name="Trazado 1947" d="M-481.071-73.525a1.393,1.393,0,0,0-.446-.3,1.314,1.314,0,0,0-.527-.108H-604.272a1.383,1.383,0,0,0-.973.405,1.45,1.45,0,0,0-.3.446,1.406,1.406,0,0,0-.1.527v18.506a1.383,1.383,0,0,0,.405.973,1.323,1.323,0,0,0,.446.3,1.269,1.269,0,0,0,.527.108h122.229a1.394,1.394,0,0,0,.973-.405,1.322,1.322,0,0,0,.3-.446,1.412,1.412,0,0,0,.108-.527V-72.552A1.383,1.383,0,0,0-481.071-73.525ZM-584.415-63.279a1.887,1.887,0,0,1-.081.581,1.734,1.734,0,0,1-.257.527,2.016,2.016,0,0,1-.412.419,1.836,1.836,0,0,1-1.094.365h-4.964a1.015,1.015,0,0,0-.351.068.97.97,0,0,0-.3.2.916.916,0,0,0-.27.648v1.324a1.184,1.184,0,0,0,.088.439,1.191,1.191,0,0,0,.25.378,1.157,1.157,0,0,0,.811.331h1.283v1.607h-10.334V-58h1.418a1.108,1.108,0,0,0,.439-.088,1.219,1.219,0,0,0,.371-.243,1.179,1.179,0,0,0,.338-.817v-8.632a1.183,1.183,0,0,0-.088-.439,1.092,1.092,0,0,0-.25-.371,1.135,1.135,0,0,0-.81-.338h-1.351v-1.648l13.718.007a1.775,1.775,0,0,1,.567.081,1.81,1.81,0,0,1,.513.25,1.744,1.744,0,0,1,.405.4,1.815,1.815,0,0,1,.358,1.074Zm21.66,6.889h-9.55a.288.288,0,0,1-.257-.189c-.02-.358-.007-.7-.007-1.054a.3.3,0,0,1,.209-.284c.29-.027.574-.007.865-.014a1.237,1.237,0,0,0,.837-.317,1.187,1.187,0,0,0,.277-.358,1.222,1.222,0,0,0,.081-.892l-.358-1.182a.952.952,0,0,0-.331-.473.95.95,0,0,0-.554-.182h-2.641a.919.919,0,0,0-.75.392.951.951,0,0,0-.128.263l-.358,1.175a1.355,1.355,0,0,0-.054.358,1.22,1.22,0,0,0,.405.9,1.26,1.26,0,0,0,.385.236,1.306,1.306,0,0,0,.453.081h.824a.271.271,0,0,1,.155.054.266.266,0,0,1,.122.243v.952a.3.3,0,0,1-.02.108.3.3,0,0,1-.263.182h-9.557v-1.58h1.371a1.423,1.423,0,0,0,.838-.27,1.416,1.416,0,0,0,.317-.317,1.477,1.477,0,0,0,.2-.4l3.418-11.624,7.923.007,3.411,11.617a1.353,1.353,0,0,0,.486.709,1.4,1.4,0,0,0,.385.2,1.375,1.375,0,0,0,.432.068h1.432ZM-539.831-68.9H-541.2a1.241,1.241,0,0,0-.439.088,1.161,1.161,0,0,0-.371.25,1.135,1.135,0,0,0-.338.811V-59.1a1.109,1.109,0,0,0,.088.439,1.241,1.241,0,0,0,.25.371,1.164,1.164,0,0,0,.81.338h1.364v1.567h-7.092l-5.241-5.525a.512.512,0,0,0-.331-.149.538.538,0,0,0-.358.176.475.475,0,0,0-.1.29V-59.1a1.112,1.112,0,0,0,.216.675,1.127,1.127,0,0,0,.932.473h1.276l.007,1.567h-9.449v-1.587l1.324.007a1.241,1.241,0,0,0,.439-.088,1.127,1.127,0,0,0,.371-.25,1.149,1.149,0,0,0,.338-.8l.007-8.645a1.176,1.176,0,0,0-.088-.432,1.162,1.162,0,0,0-.25-.371,1.157,1.157,0,0,0-.811-.331h-1.337v-1.682h6.727l5.687,6a.49.49,0,0,0,.331.155.526.526,0,0,0,.358-.176.475.475,0,0,0,.1-.29l-.007-2.87v-.034a1.128,1.128,0,0,0-.2-.655,1.121,1.121,0,0,0-.939-.473h-1.31V-70.58h9.408Zm14.9.007h-1.4a1.108,1.108,0,0,0-.439.088,1.126,1.126,0,0,0-.372.25,1.117,1.117,0,0,0-.331.81V-59.1a1.18,1.18,0,0,0,.081.439,1.316,1.316,0,0,0,.25.378,1.168,1.168,0,0,0,.81.331h1.4v1.567h-10.739v-1.56h1.324a1.183,1.183,0,0,0,.439-.088,1.092,1.092,0,0,0,.372-.25,1.147,1.147,0,0,0,.338-.81v-8.645a1.063,1.063,0,0,0-.088-.439,1,1,0,0,0-.25-.371,1.135,1.135,0,0,0-.81-.338h-1.378v-1.682h10.793ZM-501.3-68.9h-1.364a1.24,1.24,0,0,0-.439.088,1.24,1.24,0,0,0-.371.25,1.164,1.164,0,0,0-.338.811V-59.1a1.241,1.241,0,0,0,.088.439,1.161,1.161,0,0,0,.25.371,1.164,1.164,0,0,0,.81.338h1.364v1.567h-7.092l-5.234-5.525a.512.512,0,0,0-.331-.149.522.522,0,0,0-.365.182.443.443,0,0,0-.1.284V-59.1a1.158,1.158,0,0,0,.216.675,1.13,1.13,0,0,0,.939.473h1.276v1.567h-9.449v-1.587l1.324.007a1.24,1.24,0,0,0,.439-.088,1.22,1.22,0,0,0,.372-.243,1.147,1.147,0,0,0,.338-.81l.007-8.645a1.053,1.053,0,0,0-.088-.432,1.161,1.161,0,0,0-.25-.371,1.156,1.156,0,0,0-.81-.331h-1.337v-1.682h6.727l5.687,6a.49.49,0,0,0,.331.155.526.526,0,0,0,.358-.176.475.475,0,0,0,.1-.29v-2.9a1.153,1.153,0,0,0-.209-.655,1.113,1.113,0,0,0-.939-.473h-1.31v-1.662l9.409-.007Zm14.886.007h-1.4a1.108,1.108,0,0,0-.439.088,1.126,1.126,0,0,0-.371.25,1.152,1.152,0,0,0-.338.81V-59.1a1.184,1.184,0,0,0,.088.439,1.19,1.19,0,0,0,.25.378,1.156,1.156,0,0,0,.81.331h1.4v1.567h-10.739v-1.56h1.324a1.211,1.211,0,0,0,.439-.088,1.162,1.162,0,0,0,.371-.25,1.176,1.176,0,0,0,.338-.81v-8.645a1.183,1.183,0,0,0-.088-.439,1.091,1.091,0,0,0-.25-.371,1.135,1.135,0,0,0-.81-.338h-1.378v-1.682h10.793Z" fill="#fff" fill-rule="evenodd"/>
    </g>
  </g>
</svg>
