<svg xmlns="http://www.w3.org/2000/svg" xmlns:xlink="http://www.w3.org/1999/xlink" width="140" height="140" viewBox="0 0 140 140">
  <defs>
    <clipPath id="clip-path">
      <rect width="140" height="140" fill="none"/>
    </clipPath>
  </defs>
  <g id="Repeat_Grid_1" data-name="Repeat Grid 1" clip-path="url(#clip-path)">
    <g id="Group_971" data-name="Group 971" transform="translate(-0.143 -0.014)">
      <g id="Group_934" data-name="Group 934" transform="translate(44.217 45.091)">
        <path id="Path_1837" data-name="Path 1837" d="M2429.623-835.541a25.248,25.248,0,0,1-25.973,25.306,24.473,24.473,0,0,1-17.207-7.376,24.692,24.692,0,0,1-7.431-18.894,25.277,25.277,0,0,1,26.151-24.34A25.265,25.265,0,0,1,2429.623-835.541Zm-42.468,1.857c-1.946,0-3.892.006-5.837-.007-.267,0-.323.074-.295.324a25.04,25.04,0,0,0,.479,2.776,24.8,24.8,0,0,0,1.171,3.786,22.386,22.386,0,0,0,2.447,4.581,23.918,23.918,0,0,0,4.093,4.527,22.958,22.958,0,0,0,4.737,3.107,23.06,23.06,0,0,0,6.086,2.024,25.785,25.785,0,0,0,3.264.368,24.23,24.23,0,0,0,3.144-.08c.824-.065,1.635-.19,2.443-.324a15.536,15.536,0,0,0,2.31-.584,25.5,25.5,0,0,0,3.717-1.522,23.374,23.374,0,0,0,6.746-5.171,22.628,22.628,0,0,0,3.471-5.06,24.648,24.648,0,0,0,1.847-5.019c.1-.4.208-.8.284-1.2.125-.662.217-1.33.341-1.992.083-.445.025-.534-.421-.534h-11.618a.229.229,0,0,0-.264.217,11.918,11.918,0,0,1-.353,1.359,11.405,11.405,0,0,1-2.826,4.492,11.716,11.716,0,0,1-3.588,2.443,10.654,10.654,0,0,1-3.565.909,9.365,9.365,0,0,1-2.664-.2,11.981,11.981,0,0,1-2.672-.929,11.659,11.659,0,0,1-3.942-3.16,10.565,10.565,0,0,1-2.248-4.546c-.122-.581-.125-.58-.65-.58Zm-.02-3.706v.012c1.936,0,3.873-.007,5.81.007.293,0,.4-.105.442-.372a9.108,9.108,0,0,1,.74-2.3,11.6,11.6,0,0,1,3.6-4.44,11.168,11.168,0,0,1,5.695-2.28,9.543,9.543,0,0,1,3.108.2,11.543,11.543,0,0,1,3.339,1.368,12.022,12.022,0,0,1,2.257,1.755,11.26,11.26,0,0,1,2.067,2.738,9.566,9.566,0,0,1,1,2.705c.116.61.113.611.737.611h11.331c.067,0,.135,0,.2,0,.128.01.168-.059.164-.173a5.1,5.1,0,0,0-.1-.873c-.134-.612-.229-1.232-.362-1.844a23.976,23.976,0,0,0-.629-2.39,25.735,25.735,0,0,0-1.684-4,22.664,22.664,0,0,0-3.384-4.753,22.82,22.82,0,0,0-4.34-3.651,22.515,22.515,0,0,0-2.5-1.438,22.481,22.481,0,0,0-3.847-1.479,18.467,18.467,0,0,0-1.928-.483l-1.4-.218c-.733-.113-1.47-.143-2.2-.187a17.225,17.225,0,0,0-2.807.052,8.682,8.682,0,0,0-.878.059c-.708.15-1.428.217-2.137.374-.676.15-1.353.3-2.008.511a24.138,24.138,0,0,0-3.712,1.517,23.341,23.341,0,0,0-6.762,5.187,22.941,22.941,0,0,0-3.711,5.586,25.78,25.78,0,0,0-1.163,2.959,24.223,24.223,0,0,0-.764,3.027c-.12.638-.225,1.278-.3,1.924-.023.206.015.285.249.284C2383.225-837.394,2385.18-837.39,2387.135-837.39Zm24.622,1.98a10.033,10.033,0,0,0-.084-1.782,4.264,4.264,0,0,0-.147-.542,7.439,7.439,0,0,0-2.772-3.907,7.242,7.242,0,0,0-2.543-1.231,8.811,8.811,0,0,0-2.46-.192,6.246,6.246,0,0,0-1.365.207,7.048,7.048,0,0,0-2.875,1.511,6.924,6.924,0,0,0-2.607,5.008,9.451,9.451,0,0,0,.08,2.484,7.252,7.252,0,0,0,1.346,2.894,7.181,7.181,0,0,0,5.186,2.942,7.59,7.59,0,0,0,2.954-.257,7.444,7.444,0,0,0,4.022-2.931A6.423,6.423,0,0,0,2411.757-835.41Z" transform="translate(-2378.998 860.856)" fill="#fff"/>
        <path id="Path_1838" data-name="Path 1838" d="M2684.345-488.515c-1.987-.485-3.979-.855-5.974-1.185a9.346,9.346,0,0,1,1.207-.291c.569-.142,1.143-.276,1.721-.374.375-.064.751-.127,1.121-.211.622-.14,1.252-.219,1.873-.368.34-.081.693-.128,1.037-.2.446-.093.9-.17,1.342-.266.307-.065.322-.061.283.229a19.459,19.459,0,0,1-1.107,4.229,21.57,21.57,0,0,1-2.705,5.053,21.731,21.731,0,0,1-4.266,4.477,22.162,22.162,0,0,1-5.517,3.165,19.232,19.232,0,0,1-3.1.934c-.878.189-1.763.308-2.654.413a28.726,28.726,0,0,1-4.474.06,4.738,4.738,0,0,1-1.35-.183,4.752,4.752,0,0,1,1.041-.305c.714-.162,1.427-.33,2.144-.476.579-.118,1.163-.2,1.743-.312.606-.115,1.209-.247,1.815-.366.373-.073.748-.132,1.123-.2.606-.116,1.216-.213,1.815-.371.239-.063.488-.09.731-.136.1-.018.213-.059.207-.161s-.134-.075-.212-.09l-2.531-.455c-.57-.1-1.141-.2-1.71-.313a6.5,6.5,0,0,1-.963-.265c.429-.078.859-.147,1.284-.238.79-.168,1.584-.324,2.377-.475.877-.167,1.749-.358,2.632-.5.638-.1,1.268-.254,1.9-.367.459-.082.923-.149,1.387-.2a5.246,5.246,0,0,1,.847-.127c.061,0,.146,0,.135-.1a.157.157,0,0,0-.131-.135c-.4-.1-.793-.2-1.188-.3-1-.254-2-.461-3.011-.639-.666-.117-1.326-.264-2-.345a4.1,4.1,0,0,1-.777-.194c.635-.137,1.274-.252,1.9-.417.56-.147,1.132-.235,1.7-.364.87-.2,1.757-.328,2.635-.495.617-.117,1.228-.256,1.844-.373q.883-.168,1.771-.309a3.548,3.548,0,0,1,.674-.126.147.147,0,0,0,.149-.148c0-.076-.1-.073-.161-.086-.922-.187-1.842-.381-2.765-.56-1.065-.207-2.133-.4-3.2-.6a6.959,6.959,0,0,1-.881-.238c3.052-.6,6.115-1.133,9.14-1.918-2.1-.409-4.193-.81-6.335-1.217C2679.417-487.535,2681.9-487.91,2684.345-488.515Z" transform="translate(-2640.065 519.814)" fill="#fff"/>
        <path id="Path_1839" data-name="Path 1839" d="M2429.417-797.3l6.224-1.184a.113.113,0,0,0,.1-.111c-1.929-.5-3.9-.817-5.866-1.186,2.5-.776,5.106-1.044,7.618-1.718l-.012-.086-6.174-1.168,0-.081c.635-.134,1.271-.27,1.907-.4.773-.161,1.545-.332,2.322-.476.946-.175,1.9-.327,2.845-.487.291-.049.583-.094.873-.14.071-.011.151-.041.154-.109,0-.091-.093-.069-.154-.083-.786-.187-1.568-.387-2.363-.531q-.927-.166-1.852-.343c-.542-.1-1.084-.207-1.623-.328-.158-.036-.316-.058-.484-.113,2.952-.676,5.943-1.157,8.885-1.866v-.074c-.159-.037-.315-.085-.475-.11-.7-.11-1.4-.2-2.089-.325-.891-.161-1.777-.351-2.665-.526-.28-.055-.56-.1-.84-.156-.073-.013-.173.008-.184-.094s.087-.117.159-.131c.551-.1,1.1-.2,1.655-.308.587-.116,1.169-.252,1.756-.368.57-.112,1.143-.205,1.713-.316.6-.116,1.192-.248,1.789-.366q.842-.166,1.685-.314a2.341,2.341,0,0,0,.538-.152,4.324,4.324,0,0,0-1.029-.257q-.876-.192-1.757-.358c-.627-.118-1.258-.219-1.886-.33-.271-.047-.542-.095-.812-.151-.055-.011-.151-.013-.127-.116.015-.068.083-.066.138-.078,1.072-.226,2.141-.462,3.214-.676.888-.177,1.78-.327,2.671-.489.946-.173,1.892-.344,2.837-.523a.511.511,0,0,0,.331-.152,38.78,38.78,0,0,0-3.85-.794,5.034,5.034,0,0,1,1.067-.359,18.772,18.772,0,0,1,2.377-.478c.549-.074,1.1-.119,1.657-.138a10.751,10.751,0,0,1,1.368-.073c1,.093,2,.1,2.993.25a22.627,22.627,0,0,1,2.929.626,22.035,22.035,0,0,1,4.688,1.985,21.491,21.491,0,0,1,4.932,3.825,22.141,22.141,0,0,1,3.243,4.34,21.91,21.91,0,0,1,1.984,4.622,17.256,17.256,0,0,1,.629,2.929c.015.126.03.213-.16.21-1.2-.021-2.4-.036-3.593-.038-1.716,0-3.432.006-5.148.013a.242.242,0,0,1-.284-.207,12.571,12.571,0,0,0-1.681-3.7,13.128,13.128,0,0,0-3.3-3.46,12.526,12.526,0,0,0-3.693-1.825,12.2,12.2,0,0,0-3.888-.558,13.468,13.468,0,0,0-3.325.507,12.851,12.851,0,0,0-3.591,1.633,12.491,12.491,0,0,0-3.929,4.141,15.752,15.752,0,0,0-1.429,3.285c-.047.148-.12.224-.286.211-.986-.078-1.973-.037-2.959-.041-1.678-.007-3.355,0-5.032,0A3.371,3.371,0,0,1,2429.417-797.3Z" transform="translate(-2425.545 819.387)" fill="#fff"/>
        <path id="Path_1840" data-name="Path 1840" d="M2650.409-585.64a4.555,4.555,0,0,1,4.6-4.508,4.553,4.553,0,0,1,4.516,4.621,4.557,4.557,0,0,1-4.615,4.5A4.556,4.556,0,0,1,2650.409-585.64Zm6.489-2.984a3.511,3.511,0,0,0-3.681-.206,3.8,3.8,0,0,0-1.961,4.081c.186,1.076,1.2,2.421,1.929,2.512a3.82,3.82,0,0,1-.514-4.553A3.8,3.8,0,0,1,2656.9-588.624Z" transform="translate(-2629.565 610.937)" fill="#fff"/>
      </g>
      <rect id="Rectangle_818" data-name="Rectangle 818" width="140" height="140" transform="translate(0.143 0.014)" fill="none"/>
    </g>
  </g>
</svg>
