<svg xmlns="http://www.w3.org/2000/svg" xmlns:xlink="http://www.w3.org/1999/xlink" width="140" height="140" viewBox="0 0 140 140">
  <defs>
    <clipPath id="clip-path">
      <rect id="Rectangle_832" data-name="Rectangle 832" width="140" height="140" transform="translate(0.061 0.014)" fill="#1c1c21"/>
    </clipPath>
  </defs>
  <g id="Mask_Group_205" data-name="Mask Group 205" transform="translate(-0.062 -0.014)" clip-path="url(#clip-path)">
    <g id="Grupo_24" data-name="Grupo 24" transform="translate(44.732 43.684)">
      <path id="Exclusión_8" data-name="Exclusión 8" d="M46.719,253.442a26.638,26.638,0,1,1,10.4-2.1A26.543,26.543,0,0,1,46.719,253.442ZM27.685,240.005a5.542,5.542,0,0,0,.941.064c1.746,0,5.2-.525,8.724-4.051,4.421-4.425,7.461-12.035,9.034-22.618H40.194v.005a51.214,51.214,0,0,1-2.086,10.2,21.923,21.923,0,0,1-3.525,7.015,7.616,7.616,0,0,1-6,3.191H28.5l-.812,6.2Zm19.9-26.664L43.3,239.287h8.825c8.561,0,13.569-6.7,14.6-12.929a11.921,11.921,0,0,0-2.213-9.691,10.239,10.239,0,0,0-8.113-3.326Zm4.026,20.071h0a9.831,9.831,0,0,1-1.354-.084l2.335-14.2h.005a10.86,10.86,0,0,1,1.2-.062c1.482,0,4.2.269,5.717,2.075a6.045,6.045,0,0,1,.978,5.1,7.964,7.964,0,0,1-3.9,5.975,10.3,10.3,0,0,1-4.983,1.192Z" transform="translate(-20 -200)" fill="#fff"/>
    </g>
  </g>
</svg>
