<svg xmlns="http://www.w3.org/2000/svg" width="140" height="140" viewBox="0 0 140 140">
  <g id="Group_974" data-name="Group 974" transform="translate(-0.095 -0.014)">
    <g id="Group_938" data-name="Group 938" transform="translate(45.871 41.423)">
      <path id="Path_1857" data-name="Path 1857" d="M693.489,423.7c.181.793.365,1.571.536,2.352a35.146,35.146,0,0,1,.816,9.395,7.12,7.12,0,0,0,.468,3.6,5.974,5.974,0,0,0,1.3,1.789,2.235,2.235,0,0,0,3.071-.056,5.357,5.357,0,0,0,1.553-2.6c.48-1.519.9-3.06,1.439-4.556a15.731,15.731,0,0,1,1.2-2.295,2.632,2.632,0,0,1,.543-.62c.9-.816,1.829-.684,2.245.449a9.068,9.068,0,0,1,.572,2.868,20.185,20.185,0,0,1-5,13.848c-.8.946-1.7,1.806-2.6,2.671a9.342,9.342,0,0,0-3.092,5.052,11.454,11.454,0,0,0,.334,4.683c.045.19.092.38.153.632h-.565c-3.886,0-7.773-.007-11.659.01-.4,0-.546-.147-.741-.48a19.017,19.017,0,0,0-2.13-3.312,16.315,16.315,0,0,1-4.021-9.274c-.078-.606-.187-1.207-.27-1.811a6.269,6.269,0,0,0-2.01-3.783c-1-.95-1.977-1.928-2.958-2.9a3.783,3.783,0,0,1-.534-.628,1.578,1.578,0,0,1,1.847-2.365,3.384,3.384,0,0,1,.97.545c.961.787,1.881,1.624,2.848,2.4a4.256,4.256,0,0,0,1.3.767,1.066,1.066,0,0,0,1.376-1.369,2.18,2.18,0,0,0-1.14-1.371c-.6-.333-1.25-.594-1.823-.97a2.825,2.825,0,0,1,.142-4.932,2.128,2.128,0,0,1,2.8.342,6.459,6.459,0,0,1,.96,1.473c.347.683.6,1.413.926,2.107.355.754.825,1.11,1.257.942.651-.253.653-.855.6-1.4a10.148,10.148,0,0,0-2.254-5.431,18.8,18.8,0,0,1-1.214-1.6,2.476,2.476,0,0,1-.408-1.917,2.137,2.137,0,0,1,2.663-1.456,4.524,4.524,0,0,1,2.969,2.347,14.54,14.54,0,0,1,1.532,4.507c.111.539.211,1.083.366,1.61a2.284,2.284,0,0,0,.46.944,1.58,1.58,0,0,0,1,.558,1.151,1.151,0,0,0,.785-.733,5.656,5.656,0,0,0,.211-2.143c-.346-2.314-.827-4.608-1.208-6.918-.1-.582-.374-.748-.906-.833a9.156,9.156,0,0,1-7.534-6.069,9.575,9.575,0,0,1,7.244-12.961,12.522,12.522,0,0,1,6.652.325,9.522,9.522,0,0,1,6.419,9.75,9.631,9.631,0,0,1-6.982,8.653C693.839,423.578,693.694,423.633,693.489,423.7Zm-.194-.691a6.325,6.325,0,0,0,4.14-4.015,14.463,14.463,0,0,0,.6-7.108c-.7-4.463-3.858-7.073-8.331-6.739A6.247,6.247,0,0,0,684.576,408a11.081,11.081,0,0,0-1.68,7.905,9.571,9.571,0,0,0,2.8,5.728,6.347,6.347,0,0,0,3.035,1.627c-.333-1-.673-1.9-.93-2.82a2.2,2.2,0,0,1,.985-2.661,2.171,2.171,0,0,1,2.75.831,5.383,5.383,0,0,1,.681,1.3C692.592,420.9,692.916,421.912,693.294,423.012Z" transform="translate(-671.865 -403.825)" fill="#fff"/>
      <path id="Path_1858" data-name="Path 1858" d="M756.027,411.493h3.921v1.193H756.07c0,.365,0,.573,0,.782q.012,3.254.026,6.509a5.627,5.627,0,0,0,.046.707c.147,1.1.4,1.379,1.489,1.588.463.089.94.114,1.4.209.155.032.283.192.424.293-.145.085-.29.243-.436.245q-3.282.027-6.564.009c-.152,0-.3-.136-.455-.21.13-.114.244-.3.391-.331,2.2-.465,1.776-.623,1.791-2.29.019-2.169-.026-4.339-.026-6.509,0-.427-.11-.667-.582-.665a10.375,10.375,0,0,1-1.179-.074,1.617,1.617,0,0,1-.406-.16c.089-.14.145-.33.272-.41a5.547,5.547,0,0,1,.949-.476,1.405,1.405,0,0,0,.962-1.4c.023-.608.137-1.212.206-1.819A6.845,6.845,0,0,1,756.117,405a5.331,5.331,0,0,1,5.452-1.731c.927.175,1.384.735,1.221,1.368s-.887.937-1.77.666c-.544-.167-1.067-.4-1.6-.6a2.347,2.347,0,0,0-3.247,1.913c-.141,1.249-.1,2.518-.142,3.778C756.019,410.723,756.027,411.054,756.027,411.493Z" transform="translate(-712.386 -403.126)" fill="#fff"/>
      <path id="Path_1859" data-name="Path 1859" d="M736.052,411.491h3.918V412.7H736.1c0,1.889-.01,3.6,0,5.317.008.945.015,1.894.1,2.834.075.883.409,1.207,1.275,1.375.56.109,1.129.165,1.69.274.119.023.213.173.318.264-.123.089-.245.256-.368.256-2.305.014-4.611.009-6.917.006a1.694,1.694,0,0,1-.282-.1c.21-.187.335-.374.505-.435.386-.139.8-.2,1.193-.322a.8.8,0,0,0,.6-.846q-.025-3.875-.033-7.75c0-.329-.09-.517-.457-.525-.432-.01-.865-.046-1.295-.094a1.633,1.633,0,0,1-.406-.16c.088-.14.144-.333.27-.41a9.651,9.651,0,0,1,1.106-.558,1.233,1.233,0,0,0,.786-1.142c.049-.667.153-1.33.227-1.995a6.832,6.832,0,0,1,1.773-3.728,5.325,5.325,0,0,1,5.411-1.69c.931.175,1.383.73,1.224,1.366s-.885.94-1.768.669c-.544-.167-1.067-.4-1.6-.6a2.35,2.35,0,0,0-3.25,1.908c-.134,1.19-.1,2.4-.141,3.6C736.042,410.6,736.052,410.991,736.052,411.491Z" transform="translate(-702.234 -403.127)" fill="#fff"/>
    </g>
    <rect id="Rectangle_824" data-name="Rectangle 824" width="140" height="140" transform="translate(0.095 0.014)" fill="none"/>
  </g>
</svg>
