<svg xmlns="http://www.w3.org/2000/svg" width="140" height="140" viewBox="0 0 140 140">
  <g id="Group_972" data-name="Group 972" transform="translate(-0.128 -0.014)">
    <g id="Group_950" data-name="Group 950" transform="translate(0.128 0.014)">
      <g id="Group_933" data-name="Group 933" transform="translate(40.906 48.582)">
        <g id="Group_932" data-name="Group 932" transform="translate(0 0)">
          <path id="Path_1832" data-name="Path 1832" d="M931,422.669v40.7l9.21,2.922V432.154c0-1.6.713-2.667,1.865-2.3,1.5.417,1.795,1.891,1.795,3.489v13.633c5.742,2.772,10.257,0,10.257-7.317,0-7.509-2.642-10.843-10.442-13.515A110.111,110.111,0,0,0,931,422.669" transform="translate(-909.863 -422.669)" fill="#fbfbfc"/>
          <path id="Path_1833" data-name="Path 1833" d="M943.6,464.393l14.813-5.276c1.684-.6,1.939-1.458.575-1.9a10.016,10.016,0,0,0-5.515.283l-9.873,3.479v-5.536l.575-.193a33.968,33.968,0,0,1,6.857-1.451,29.33,29.33,0,0,1,12.779,1.523c4.342,1.373,4.831,3.394,3.727,4.787a10.584,10.584,0,0,1-3.808,2.387l-20.13,7.232Z" transform="translate(-911.511 -426.72)" fill="#fbfbfc"/>
          <path id="Path_1834" data-name="Path 1834" d="M910.926,463.486c-4.458-1.257-5.2-3.871-3.171-5.377a21.8,21.8,0,0,1,5.078-2.442l13.2-4.692v5.349l-9.5,3.4c-1.684.606-1.938,1.457-.574,1.9a10.053,10.053,0,0,0,5.519-.282l4.553-1.655v4.786c-.289.054-.61.1-.909.155a29.909,29.909,0,0,1-14.2-1.143" transform="translate(-906.682 -426.371)" fill="#fbfbfc"/>
        </g>
      </g>
      <rect id="Rectangle_817" data-name="Rectangle 817" width="140" height="140" fill="none"/>
    </g>
  </g>
</svg>
