<svg xmlns="http://www.w3.org/2000/svg" width="140" height="140" viewBox="0 0 140 140">
  <g id="Group_975" data-name="Group 975" transform="translate(-0.074 -0.014)">
    <path id="Path_1787" data-name="Path 1787" d="M0,14.1v14.1H66.287V0H0ZM8.617,8.433c0,2.084.022,3.793.059,3.793s1.34-1.709,2.917-3.793L14.458,4.64h2.276c1.245,0,2.268.015,2.268.037s-1.208,1.635-2.681,3.587l-2.688,3.55.118.221c.066.125,1.458,2.755,3.093,5.848s2.968,5.634,2.968,5.649-1,.029-2.224.022l-2.217-.022-2.217-4.25c-1.223-2.342-2.239-4.25-2.261-4.235s-.552.641-1.156,1.414l-1.112,1.4-.007,2.85v2.858H4.64V4.64H8.617ZM27.178,14.1v9.464H23.2V4.64h3.977ZM43.9,6.334V8.028H39.036V23.569H35.058V8.028H30.271V4.64H43.9Zm7.218,1.952v3.646H57.67V4.64h3.977V23.569H57.6V15.614H51.115v7.954H47.137V4.64h3.977Z" transform="translate(38.448 56.865)" fill="#fff"/>
    <rect id="Rectangle_806" data-name="Rectangle 806" width="140" height="140" transform="translate(0.074 0.014)" fill="none"/>
  </g>
</svg>
