<svg xmlns="http://www.w3.org/2000/svg" width="140" height="140" viewBox="0 0 140 140">
  <g id="Group_978" data-name="Group 978" transform="translate(-0.007 -0.014)">
    <g id="Group_936" data-name="Group 936" transform="translate(15.189 60.214)">
      <path id="Path_1841" data-name="Path 1841" d="M578.224,455.579a3.848,3.848,0,0,1-.149,1.412.672.672,0,0,1-.641.268.7.7,0,0,1-.693-.342,4.078,4.078,0,0,1-.175-1.523,4.735,4.735,0,0,1,.2-1.568,3.65,3.65,0,0,1,1.458-1.359Zm-1.659-6.8a5.542,5.542,0,0,1,.13-1.587c.087-.2.306-.3.661-.3a.7.7,0,0,1,.667.364,3.789,3.789,0,0,1,.2,1.554,2.83,2.83,0,0,1-.184,1.263,9.207,9.207,0,0,1-2.8,1.2,9.181,9.181,0,0,0-3.066,1.449,3.291,3.291,0,0,0-.618,2.318v1.251q0,2.3,1.163,2.983a4.983,4.983,0,0,0,2.556.678,3.877,3.877,0,0,0,1.833-.406,3.149,3.149,0,0,0,1.256-1.228v1.357h5.184v-7.635a27.887,27.887,0,0,0-.277-4.98,3.278,3.278,0,0,0-1.645-2.037,9.951,9.951,0,0,0-7.727-.1,4.068,4.068,0,0,0-1.877,1.692,6.381,6.381,0,0,0-.466,2.729v.675h5.011Z" transform="translate(-557.403 -440.705)" fill="#fff"/>
      <path id="Path_1842" data-name="Path 1842" d="M613.516,444.472l-.1,1.449a4.085,4.085,0,0,1,1.48-1.3,4.3,4.3,0,0,1,1.957-.43,3.918,3.918,0,0,1,3.37,1.725,4.587,4.587,0,0,1,1.514-1.3,4.494,4.494,0,0,1,4.115.143,2.565,2.565,0,0,1,1.14,1.4,10.436,10.436,0,0,1,.248,2.7v10.8h-5.183v-9.913a11.1,11.1,0,0,0-.149-2.406.652.652,0,0,0-.7-.468.682.682,0,0,0-.721.462,10.194,10.194,0,0,0-.163,2.413v9.913H615.14v-9.662a15.293,15.293,0,0,0-.126-2.676.627.627,0,0,0-.693-.448.884.884,0,0,0-.883.812q-.027.335-.026,1.443v10.533h-5.184V444.472Z" transform="translate(-580.791 -440.705)" fill="#fff"/>
      <path id="Path_1843" data-name="Path 1843" d="M669.568,449.863v-1.1a5.222,5.222,0,0,1,.134-1.577c.09-.194.323-.29.7-.29a.592.592,0,0,1,.606.342,4.828,4.828,0,0,1,.147,1.525v1.1Zm6.912.469a8.123,8.123,0,0,0-.588-3.438,4.336,4.336,0,0,0-2.046-1.96,8.181,8.181,0,0,0-3.7-.738,8.072,8.072,0,0,0-3.247.613,4.012,4.012,0,0,0-2.032,1.768,6.669,6.669,0,0,0-.62,3.145v4.431a9.2,9.2,0,0,0,.277,2.591,4.052,4.052,0,0,0,1,1.629,4.841,4.841,0,0,0,2.013,1.16,9.617,9.617,0,0,0,2.983.422,8.469,8.469,0,0,0,2.9-.427,4.634,4.634,0,0,0,1.908-1.283,4.2,4.2,0,0,0,.956-1.61,8.788,8.788,0,0,0,.205-2.163v-1.119h-5.046v1.992a3.731,3.731,0,0,1-.206,1.52.84.84,0,0,1-.82.393.708.708,0,0,1-.667-.3,3.137,3.137,0,0,1-.173-1.323v-3.289h6.912Z" transform="translate(-616.516 -440.705)" fill="#fff"/>
      <path id="Path_1844" data-name="Path 1844" d="M744.3,439.327V441.2h1.452v2.42H744.3v8.649a3.806,3.806,0,0,0,.181,1.677,3.41,3.41,0,0,0,1.513.17v2.454h-2.154a18.515,18.515,0,0,1-2.6-.126,2.882,2.882,0,0,1-1.375-.606,2,2,0,0,1-.738-1.1,16.526,16.526,0,0,1-.147-2.883v-8.241h-1.139V441.2h1.139v-1.876Z" transform="translate(-663.451 -437.6)" fill="#fff"/>
      <path id="Path_1845" data-name="Path 1845" d="M769.486,455.677a3.324,3.324,0,0,1-.155,1.285.656.656,0,0,1-.64.3.635.635,0,0,1-.633-.329,3.786,3.786,0,0,1-.162-1.4V448.67a3.984,3.984,0,0,1,.162-1.476.663.663,0,0,1,.647-.3.633.633,0,0,1,.632.3,4.326,4.326,0,0,1,.149,1.476Zm5.064-8.277a4.145,4.145,0,0,0-.957-1.537,4.979,4.979,0,0,0-1.988-1.207,9.205,9.205,0,0,0-3.085-.46,7.567,7.567,0,0,0-3.516.718,4,4,0,0,0-1.9,1.912,8.392,8.392,0,0,0-.528,3.317v3.9a10.811,10.811,0,0,0,.291,2.909,3.861,3.861,0,0,0,.971,1.649,4.234,4.234,0,0,0,1.911,1.014,11.511,11.511,0,0,0,3,.337,9.113,9.113,0,0,0,2.809-.4,4.634,4.634,0,0,0,2-1.226,4.025,4.025,0,0,0,1.018-1.787,13.6,13.6,0,0,0,.239-3.013v-3.719a8.406,8.406,0,0,0-.258-2.413" transform="translate(-679.222 -440.705)" fill="#fff"/>
      <path id="Path_1846" data-name="Path 1846" d="M712.606,444.825a15.721,15.721,0,0,0-4.664-3.169,4.171,4.171,0,0,1-1.573-1.136,2.568,2.568,0,0,1-.3-1.388,1.842,1.842,0,0,1,.255-1.073.874.874,0,0,1,.756-.354.767.767,0,0,1,.657.264,2.37,2.37,0,0,1,.2,1.223v1.381h5.15v-.739a7.167,7.167,0,0,0-.494-3.138,3.719,3.719,0,0,0-2.013-1.53,9.931,9.931,0,0,0-3.679-.606,9.117,9.117,0,0,0-3.369.554,4.064,4.064,0,0,0-2.02,1.543,6.027,6.027,0,0,0-.625,3.126,5.779,5.779,0,0,0,.44,2.427,4.077,4.077,0,0,0,1.112,1.491,24.992,24.992,0,0,0,2.737,1.729,17.106,17.106,0,0,1,2.593,1.69,3.159,3.159,0,0,1,.514,2.147,1.943,1.943,0,0,1-.269,1.12.935.935,0,0,1-.821.382.886.886,0,0,1-.768-.3,2.66,2.66,0,0,1-.217-1.353V447.2h-5.15v.876a8.487,8.487,0,0,0,.488,3.235,3.86,3.86,0,0,0,2.064,1.868,8.972,8.972,0,0,0,3.8.732,9.257,9.257,0,0,0,3.559-.633,4.017,4.017,0,0,0,2.063-1.576,6.153,6.153,0,0,0,.533-2.921,6.441,6.441,0,0,0-.964-3.957" transform="translate(-639.882 -434.559)" fill="#fff"/>
      <path id="Path_1847" data-name="Path 1847" d="M806.715,455.411a5.6,5.6,0,0,1-.123,1.535q-.124.313-.629.313a.66.66,0,0,1-.674-.345,5.51,5.51,0,0,1-.155-1.715v-6.285a5.42,5.42,0,0,1,.149-1.661.647.647,0,0,1,.669-.345c.353,0,.57.1.647.3a6.8,6.8,0,0,1,.117,1.707Zm-6.962-10.9v17.314h5.38v-3.481a4.8,4.8,0,0,0,1.548,1.184,4.291,4.291,0,0,0,1.84.4,4.133,4.133,0,0,0,2.124-.517,2.484,2.484,0,0,0,1.165-1.392,10.611,10.611,0,0,0,.284-2.944v-6.378a10.049,10.049,0,0,0-.224-2.553,2.467,2.467,0,0,0-1.133-1.326,3.923,3.923,0,0,0-2.149-.577,4.425,4.425,0,0,0-1.88.4,4.8,4.8,0,0,0-1.575,1.208l.091-1.335Z" transform="translate(-702.933 -440.732)" fill="#fff"/>
      <path id="Path_1848" data-name="Path 1848" d="M545.418,441.782h-5.565V440.1a7.28,7.28,0,0,0-.159-1.994.893.893,0,0,0-1.454-.051,4.912,4.912,0,0,0-.184,1.759v8.912a4.656,4.656,0,0,0,.185,1.649.737.737,0,0,0,.741.394.83.83,0,0,0,.825-.449,4.563,4.563,0,0,0,.218-1.739v-2.2H538.92v-2.523h6.5v9.676h-3.51l-.517-1.319a3.592,3.592,0,0,1-1.433,1.279,4.614,4.614,0,0,1-2.04.421,5.959,5.959,0,0,1-2.62-.587,4.773,4.773,0,0,1-1.856-1.464,4.319,4.319,0,0,1-.792-1.834,19.068,19.068,0,0,1-.159-2.87v-5.514a16.21,16.21,0,0,1,.33-3.872,4.053,4.053,0,0,1,1.9-2.212,7.4,7.4,0,0,1,4.05-1,8.47,8.47,0,0,1,4.058.87,4.35,4.35,0,0,1,2.1,2.068,9.616,9.616,0,0,1,.489,3.481Z" transform="translate(-532.492 -434.559)" fill="#fff"/>
      <g id="Group_935" data-name="Group 935" transform="translate(109.798 3.544)">
        <path id="Path_1849" data-name="Path 1849" d="M836.55,444.342a.98.98,0,1,1-.974.978.965.965,0,0,1,.974-.978Zm0,.152a.829.829,0,1,0,.787.83.806.806,0,0,0-.787-.83Zm-.183,1.4h-.174V444.8a1.944,1.944,0,0,1,.309-.026.571.571,0,0,1,.339.083.262.262,0,0,1,.1.226.272.272,0,0,1-.213.265v.009c.1.017.16.1.183.265a.9.9,0,0,0,.069.27h-.182a.8.8,0,0,1-.074-.278.2.2,0,0,0-.234-.191h-.122Zm0-.6h.126c.143,0,.265-.052.265-.187,0-.1-.069-.191-.265-.191a.834.834,0,0,0-.126.009Z" transform="translate(-835.576 -444.342)" fill="#fff"/>
      </g>
    </g>
    <rect id="Rectangle_819" data-name="Rectangle 819" width="140" height="140" transform="translate(0.007 0.014)" fill="none"/>
  </g>
</svg>
