<svg xmlns="http://www.w3.org/2000/svg" width="140" height="140" viewBox="0 0 140 140">
  <g id="Group_976" data-name="Group 976" transform="translate(-0.048 -0.014)">
    <path id="Path_5" data-name="Path 5" d="M122.368,28.659V8.635h-3.108V17.1H108.977V8.635h-3.108V28.659h3.108V19.792h10.283v8.867Zm4.76,5.44c3.039,0,4.468-1.138,5.717-4.677l5.481-15.362h-3.164l-3.705,11.879h-.042L127.71,14.061h-3.247l5.273,14.612c0,.014-.264.874-.264.9-.458,1.5-1.193,2.082-2.595,2.082a5.545,5.545,0,0,1-.971-.056v2.428A11.783,11.783,0,0,0,127.128,34.1Zm20.552-20.274a5.057,5.057,0,0,0-4.649,2.748h-.056V14.061h-2.9V33.488h3v-7.23h.069a4.977,4.977,0,0,0,4.593,2.65c3.664,0,6.092-2.928,6.092-7.549S151.384,13.825,147.679,13.825Zm-.791,12.545c-2.3,0-3.83-1.971-3.83-5.01,0-3.011,1.54-5.01,3.83-5.01,2.373,0,3.858,1.957,3.858,5.01S149.261,26.369,146.888,26.369Zm15.348-10.158a3.585,3.585,0,0,1,3.58,3.8h-7.3A3.764,3.764,0,0,1,162.236,16.212Zm3.566,8.16a3.309,3.309,0,0,1-3.372,2.137c-2.4,0-3.927-1.679-3.927-4.219v-.18h10.311V21.082c0-4.427-2.526-7.285-6.578-7.285-4.121,0-6.758,3.053-6.758,7.632,0,4.607,2.595,7.507,6.883,7.507,3.344,0,5.87-1.9,6.286-4.565Zm5.329,4.288h3V19.917c0-2.068,1.193-3.358,3.122-3.358a4.291,4.291,0,0,1,1.346.167V13.936a5.469,5.469,0,0,0-1.027-.111,3.517,3.517,0,0,0-3.511,2.72h-.069V14.061h-2.859Z" transform="translate(-70.944 49.263)" fill="#fff"/>
    <rect id="Rectangle_804" data-name="Rectangle 804" width="140" height="140" transform="translate(0.048 0.014)" fill="none"/>
  </g>
</svg>
