<svg xmlns="http://www.w3.org/2000/svg" width="140" height="140" viewBox="0 0 140 140">
  <g id="Group_973" data-name="Group 973" transform="translate(-0.108 -0.014)">
    <g id="Group_919" data-name="Group 919" transform="translate(24.163 58.76)">
      <path id="Path_3" data-name="Path 3" d="M321.837,385.134c3.037,0,5.839,1.647,5.455,5.753-.454,4.868-3.078,7.579-7.2,7.59h-3.6c-.519,0-.768.422-.9,1.29l-.695,4.431c-.1.669-.447,1-.956,1h-3.352c-.535,0-.721-.341-.6-1.106l2.771-17.76c.136-.873.47-1.2,1.063-1.2Zm-5.461,9.507h2.731c1.707-.064,2.842-1.246,2.956-3.38a2.061,2.061,0,0,0-2.235-2.253l-2.571.012-.881,5.621Zm20.029,9.2c.306-.278.619-.423.573-.08l-.109.823c-.057.429.114.658.514.658h2.978c.5,0,.746-.2.869-.979l1.835-11.519c.092-.579-.048-.863-.487-.863h-3.274c-.3,0-.439.166-.516.617l-.121.709c-.063.37-.233.434-.39.062-.556-1.316-1.973-1.906-3.96-1.865-4.594.094-7.691,3.582-8.022,8.052a5.536,5.536,0,0,0,5.487,6.173,5.92,5.92,0,0,0,4.623-1.789Zm-2.492-1.77a2.992,2.992,0,0,1-3.068-3.511,4.277,4.277,0,0,1,4.113-3.511,2.991,2.991,0,0,1,3.068,3.511,4.277,4.277,0,0,1-4.112,3.511ZM348.9,391.841h-3.009c-.624,0-.877.456-.679,1.037l3.749,10.981-3.694,5.222c-.308.436-.071.835.365.835h3.395a1.039,1.039,0,0,0,1.009-.5l11.532-16.542c.356-.51.188-1.043-.394-1.043l-3.21,0c-.551,0-.772.217-1.088.676l-4.81,6.979-2.14-6.991A.925.925,0,0,0,348.9,391.841Z" transform="translate(-309.944 -385.134)" fill="#fff" fill-rule="evenodd"/>
      <path id="Path_4" data-name="Path 4" d="M544.5,385.134c3.038,0,5.839,1.647,5.456,5.753-.455,4.868-3.078,7.579-7.2,7.59h-3.6c-.519,0-.768.422-.9,1.29l-.695,4.431c-.1.669-.447,1-.956,1h-3.352c-.535,0-.721-.341-.6-1.106l2.771-17.76c.136-.873.47-1.2,1.063-1.2Zm-5.461,9.507h2.731c1.707-.064,2.842-1.246,2.956-3.38a2.062,2.062,0,0,0-2.236-2.253l-2.571.012-.881,5.621Zm20.029,9.2c.306-.278.619-.423.573-.08l-.109.823c-.057.429.114.658.514.658h2.978c.5,0,.746-.2.869-.979l1.836-11.519c.092-.579-.048-.863-.488-.863h-3.274c-.3,0-.438.166-.516.617l-.122.709c-.063.37-.233.434-.39.062-.556-1.316-1.973-1.906-3.96-1.865-4.594.094-7.691,3.582-8.022,8.052a5.536,5.536,0,0,0,5.487,6.173,5.919,5.919,0,0,0,4.623-1.789Zm-2.492-1.77a2.991,2.991,0,0,1-3.068-3.511,4.277,4.277,0,0,1,4.112-3.511,2.991,2.991,0,0,1,3.068,3.511,4.276,4.276,0,0,1-4.112,3.511Zm13.737,3.192h-3.437a.405.405,0,0,1-.421-.475l3.023-19.133a.593.593,0,0,1,.572-.476h3.437a.406.406,0,0,1,.421.476l-3.023,19.133A.593.593,0,0,1,570.319,405.259Z" transform="translate(-480.88 -385.134)" fill="#fff" fill-rule="evenodd"/>
    </g>
    <rect id="Rectangle_803" data-name="Rectangle 803" width="140" height="140" transform="translate(0.108 0.014)" fill="none"/>
  </g>
</svg>
