<svg xmlns="http://www.w3.org/2000/svg" xmlns:xlink="http://www.w3.org/1999/xlink" width="140" height="140" viewBox="0 0 140 140">
  <defs>
    <clipPath id="clip-path">
      <rect id="Rectangle_833" data-name="Rectangle 833" width="140" height="140" transform="translate(0.04 0.014)" fill="#1c1c21"/>
    </clipPath>
  </defs>
  <g id="Mask_Group_206" data-name="Mask Group 206" transform="translate(-0.04 -0.014)" clip-path="url(#clip-path)">
    <g id="Grupo_31" data-name="Grupo 31" transform="translate(24.469 61.436)">
      <g id="Group">
        <g id="Group-2">
          <path id="Path" d="M277.5,477.9h3.206v5.861h6.1V477.9h3.206v15.172h-3.206V486.7h-6.1v6.379H277.5Z" transform="translate(-277.5 -477.901)" fill="#fff"/>
          <path id="Path-2" d="M287.226,477.9h3.2v15.172h-3.2Z" transform="translate(-270.797 -477.901)" fill="#fff"/>
          <path id="Shape" d="M297.321,493.077h-5.915V477.905h5.574a10.363,10.363,0,0,1,2.818.323,4.643,4.643,0,0,1,1.75.869,2.782,2.782,0,0,1,.882,1.3,4.907,4.907,0,0,1,.248,1.615,3.889,3.889,0,0,1-.387,1.68,3.24,3.24,0,0,1-1.471,1.344,5.773,5.773,0,0,1,1.13.746,3.234,3.234,0,0,1,.7.841,3.017,3.017,0,0,1,.339.916,4.776,4.776,0,0,1,.093.931,5.317,5.317,0,0,1-.294,1.8,3.461,3.461,0,0,1-.976,1.465,4.94,4.94,0,0,1-1.78.976A8.664,8.664,0,0,1,297.321,493.077Zm-2.789-6.593V490.6h2.711v-.015h.01a4.542,4.542,0,0,0,1.306-.152,2.125,2.125,0,0,0,.851-.428,1.391,1.391,0,0,0,.449-.669,2.977,2.977,0,0,0,.138-.869,1.949,1.949,0,0,0-.542-1.482,2.792,2.792,0,0,0-1.9-.5Zm2.818-2.581v.015h.005a2.469,2.469,0,0,0,1.747-.471,1.775,1.775,0,0,0,.48-1.344,1.428,1.428,0,0,0-.62-1.329,4.035,4.035,0,0,0-2.074-.4h-2.323V483.9Z" transform="translate(-267.917 -477.902)" fill="#fff"/>
          <path id="Shape-2" d="M306.029,493.077h-5.915l.03-15.171h5.544a10.356,10.356,0,0,1,2.817.323,4.645,4.645,0,0,1,1.75.869,2.8,2.8,0,0,1,.883,1.3,4.951,4.951,0,0,1,.248,1.615,3.866,3.866,0,0,1-.388,1.68,3.24,3.24,0,0,1-1.471,1.344,5.779,5.779,0,0,1,1.132.746,3.222,3.222,0,0,1,.7.841,2.819,2.819,0,0,1,.339.916,4.652,4.652,0,0,1,.093.931,5.237,5.237,0,0,1-.294,1.8,3.353,3.353,0,0,1-.975,1.465,4.945,4.945,0,0,1-1.782.976A8.657,8.657,0,0,1,306.029,493.077Zm-2.8-6.593V490.6h2.709v-.015h.01a4.524,4.524,0,0,0,1.3-.152,2.122,2.122,0,0,0,.853-.428,1.408,1.408,0,0,0,.449-.671,2.974,2.974,0,0,0,.138-.869,1.945,1.945,0,0,0-.542-1.48,2.792,2.792,0,0,0-1.9-.5Zm2.818-2.581v.015h.005a2.463,2.463,0,0,0,1.745-.471,1.762,1.762,0,0,0,.48-1.344,1.425,1.425,0,0,0-.62-1.329,4.029,4.029,0,0,0-2.074-.4h-2.321V483.9Z" transform="translate(-261.916 -477.902)" fill="#fff"/>
          <path id="Path-3" d="M321.061,480.644h-4.63v-2.731h12.495v2.731H324.3v12.424h-3.22V480.644Z" transform="translate(-250.671 -477.895)" fill="#fff"/>
          <path id="Path-4" d="M329.733,480.644H325.1v-2.731H337.6v2.731h-4.632v12.424h-3.219V480.644Z" transform="translate(-244.695 -477.895)" fill="#fff"/>
        </g>
        <path id="Path-5" d="M308.832,477.9H319.36v2.7h-7.309v3.328h6.873v2.731h-6.873v3.755h7.294v2.7H308.832Z" transform="translate(-255.908 -477.901)" fill="#fff"/>
      </g>
      <g id="Group-3" transform="translate(20.842 21.246)">
        <path id="Path-6" d="M291.371,493.946a.657.657,0,0,0,.2.4.808.808,0,0,0,.512.136.668.668,0,0,0,.4-.092.335.335,0,0,0,.14-.258.275.275,0,0,0-.093-.213,1.105,1.105,0,0,0-.341-.138l-.65-.123a2.33,2.33,0,0,1-1.208-.516,1.2,1.2,0,0,1-.372-.934,1.54,1.54,0,0,1,.139-.671,1.505,1.505,0,0,1,.4-.488,1.594,1.594,0,0,1,.635-.29,3.482,3.482,0,0,1,.851-.091,2.824,2.824,0,0,1,.867.121,2.149,2.149,0,0,1,.62.306,1.61,1.61,0,0,1,.372.471,1.731,1.731,0,0,1,.154.566l-1.471.137a.6.6,0,0,0-.2-.351.718.718,0,0,0-.385-.088.774.774,0,0,0-.387.077.282.282,0,0,0-.123.228.21.21,0,0,0,.093.183.859.859,0,0,0,.34.123l.635.137a3.842,3.842,0,0,1,.745.226,1.424,1.424,0,0,1,.495.306,1.307,1.307,0,0,1,.279.4,1.34,1.34,0,0,1,.078.516,1.409,1.409,0,0,1-.542,1.176,2.54,2.54,0,0,1-1.579.411,3.2,3.2,0,0,1-.914-.122,1.819,1.819,0,0,1-.649-.323,1.518,1.518,0,0,1-.4-.529,1.908,1.908,0,0,1-.171-.7Z" transform="translate(-289.839 -490.662)" fill="#fff"/>
        <path id="Shape-3" d="M296.923,495.447h-1.456v-4.7h1.858a2.835,2.835,0,0,1,.944.137,1.29,1.29,0,0,1,.6.351,1.061,1.061,0,0,1,.311.518,2.152,2.152,0,0,1,.093.639,2.068,2.068,0,0,1-.093.643,1.283,1.283,0,0,1-.311.516,1.6,1.6,0,0,1-.6.351,3.254,3.254,0,0,1-.946.14h-.4v1.405Zm.015-3.538v.974h.4a.667.667,0,0,0,.465-.121.6.6,0,0,0,0-.733.706.706,0,0,0-.465-.12Z" transform="translate(-285.961 -490.608)" fill="#fff"/>
        <path id="Shape-4" d="M303.177,495.625a3.007,3.007,0,0,1-1.022-.168,1.908,1.908,0,0,1-.743-.488,2.211,2.211,0,0,1-.465-.779,3.5,3.5,0,0,1-.154-1.022,3.182,3.182,0,0,1,.154-1.037,2.027,2.027,0,0,1,1.221-1.3,2.746,2.746,0,0,1,1.056-.168,2.926,2.926,0,0,1,1.022.168,2.052,2.052,0,0,1,.742.488,2.278,2.278,0,0,1,.466.764,3.5,3.5,0,0,1,.154,1.022,3.089,3.089,0,0,1-.154,1.037,2.227,2.227,0,0,1-.466.793,2.161,2.161,0,0,1-.758.5A2.736,2.736,0,0,1,303.177,495.625Zm.015-3.633c-.554,0-.836.395-.836,1.175.017.791.291,1.175.836,1.175s.836-.4.836-1.175S303.754,491.992,303.192,491.992Z" transform="translate(-282.29 -490.663)" fill="#fff"/>
        <path id="Shape-5" d="M308.2,495.448h-1.424v-4.7h2.044a3.031,3.031,0,0,1,.914.122,1.636,1.636,0,0,1,.6.323,1.123,1.123,0,0,1,.328.488,2.76,2.76,0,0,1,.078.611,1.7,1.7,0,0,1-.184.809,1.575,1.575,0,0,1-.512.549l.988,1.8h-1.549l-.758-1.51H308.2v1.51Zm-.015-3.6v1.009h.51a.765.765,0,0,0,.481-.123.459.459,0,0,0,.139-.381.516.516,0,0,0-.139-.381.687.687,0,0,0-.481-.123Z" transform="translate(-278.165 -490.608)" fill="#fff"/>
        <path id="Path-7" d="M313.463,492.028h-1.331v-1.282h4.181v1.282H314.98v3.418h-1.517Z" transform="translate(-274.476 -490.608)" fill="#fff"/>
        <path id="Path-8" d="M319.1,493.946a.658.658,0,0,0,.2.4.81.81,0,0,0,.512.136.665.665,0,0,0,.4-.092.335.335,0,0,0,.14-.258.275.275,0,0,0-.093-.213,1.088,1.088,0,0,0-.341-.138l-.65-.122a2.326,2.326,0,0,1-1.208-.518,1.2,1.2,0,0,1-.372-.934,1.376,1.376,0,0,1,.542-1.159,1.6,1.6,0,0,1,.635-.29,3.441,3.441,0,0,1,.836-.091,2.826,2.826,0,0,1,.867.121,2.17,2.17,0,0,1,.62.306,1.611,1.611,0,0,1,.372.471,1.734,1.734,0,0,1,.154.566l-1.471.137a.6.6,0,0,0-.2-.351.725.725,0,0,0-.385-.088.776.776,0,0,0-.387.077.288.288,0,0,0-.125.228.215.215,0,0,0,.095.183.85.85,0,0,0,.34.123l.635.137a3.882,3.882,0,0,1,.745.226,1.423,1.423,0,0,1,.495.307,1.307,1.307,0,0,1,.279.4,1.343,1.343,0,0,1,.078.516,1.409,1.409,0,0,1-.542,1.176,2.543,2.543,0,0,1-1.579.411,3.2,3.2,0,0,1-.914-.122,1.826,1.826,0,0,1-.65-.323,1.539,1.539,0,0,1-.4-.529,2.3,2.3,0,0,1-.169-.7Z" transform="translate(-270.742 -490.662)" fill="#fff"/>
      </g>
      <path id="Shape-6" d="M320.709,491.753a.5.5,0,0,1-.51-.495v-.008a.511.511,0,1,1,.51.5Zm0-.962a.453.453,0,0,0-.464.438v.02a.449.449,0,0,0,.439.458h.01a.47.47,0,0,0,.464-.458.447.447,0,0,0-.441-.456l-.008,0Zm-.108.7h-.093v-.518h.232a.242.242,0,0,1,.155.061.143.143,0,0,1,.047.107.153.153,0,0,1-.125.15l.139.2h-.123l-.123-.183H320.6v.185Z" transform="translate(-248.075 -469.361)" fill="#fff"/>
      <g id="Grupo_30" data-name="Grupo 30" transform="translate(72.433 21.614)">
        <path id="Path-9" d="M320.382,490.884h.232a.229.229,0,0,1,.155.06.134.134,0,0,1,.047.107h0a.149.149,0,0,1-.123.157l.139.193h-.122l-.127-.182h-.108v.182h-.093Z" transform="translate(-320.382 -490.884)" fill="#fff"/>
        <path id="Path-10" d="M320.576,491.1c.062,0,.108-.03.108-.077h0c0-.045-.046-.075-.108-.075h-.138v.168h.138Z" transform="translate(-320.344 -490.841)" fill="#fff"/>
      </g>
    </g>
  </g>
</svg>
