<svg xmlns="http://www.w3.org/2000/svg" width="140" height="140" viewBox="0 0 140 140">
  <g id="Group_977" data-name="Group 977" transform="translate(-0.021 -0.014)">
    <g id="Group_942" data-name="Group 942" transform="translate(12.741 59.886)">
      <path id="Path_1881" data-name="Path 1881" d="M7.968.314h7.147a4.778,4.778,0,0,1,.1.59,5.92,5.92,0,0,1,.041.692,8.076,8.076,0,0,1-.428,2.647,6.132,6.132,0,0,1-1.344,2.219,6.744,6.744,0,0,1-2.341,1.608,8.018,8.018,0,0,1-3.115.57,7.883,7.883,0,0,1-2.993-.57A7.451,7.451,0,0,1,2.593,6.484,7.621,7.621,0,0,1,.944,4.071,7.5,7.5,0,0,1,.333,1.027,7.5,7.5,0,0,1,.944-2.017,7.621,7.621,0,0,1,2.593-4.43,7.451,7.451,0,0,1,5.036-6.018a7.883,7.883,0,0,1,2.993-.57,7.818,7.818,0,0,1,3.166.611,7.09,7.09,0,0,1,2.392,1.69L11.694-2.434a5.052,5.052,0,0,0-1.588-1.15,5.05,5.05,0,0,0-2.1-.4,5.076,5.076,0,0,0-1.894.356A4.747,4.747,0,0,0,4.548-2.618,4.8,4.8,0,0,0,3.479-1.04a5.2,5.2,0,0,0-.4,2.067,5.2,5.2,0,0,0,.4,2.067A4.727,4.727,0,0,0,4.558,4.671,4.862,4.862,0,0,0,6.136,5.679a5.131,5.131,0,0,0,1.914.356A5.1,5.1,0,0,0,10.014,5.7a4.6,4.6,0,0,0,1.374-.865,3.3,3.3,0,0,0,.7-.926,5.253,5.253,0,0,0,.458-1.252H7.968Zm12.848-2.3a5.551,5.551,0,0,1,2.128.4,5.037,5.037,0,0,1,1.67,1.1,5.012,5.012,0,0,1,1.1,1.68,5.628,5.628,0,0,1,.4,2.138,5.628,5.628,0,0,1-.4,2.138,5.012,5.012,0,0,1-1.1,1.68,5.037,5.037,0,0,1-1.67,1.1,5.9,5.9,0,0,1-4.255,0,5.037,5.037,0,0,1-1.67-1.1,5.012,5.012,0,0,1-1.1-1.68,5.628,5.628,0,0,1-.4-2.138,5.628,5.628,0,0,1,.4-2.138,5.012,5.012,0,0,1,1.1-1.68,5.037,5.037,0,0,1,1.67-1.1A5.551,5.551,0,0,1,20.816-1.986Zm0,8.165a2.612,2.612,0,0,0,.987-.193,2.518,2.518,0,0,0,.845-.56,2.654,2.654,0,0,0,.58-.9,3.185,3.185,0,0,0,.214-1.2,3.185,3.185,0,0,0-.214-1.2,2.654,2.654,0,0,0-.58-.9A2.518,2.518,0,0,0,21.8.671a2.643,2.643,0,0,0-1.985,0,2.545,2.545,0,0,0-.835.56,2.654,2.654,0,0,0-.58.9,3.185,3.185,0,0,0-.214,1.2,3.185,3.185,0,0,0,.214,1.2,2.654,2.654,0,0,0,.58.9,2.545,2.545,0,0,0,.835.56A2.587,2.587,0,0,0,20.816,6.178Zm10.71-8.165a5.551,5.551,0,0,1,2.128.4,5.037,5.037,0,0,1,1.67,1.1,5.012,5.012,0,0,1,1.1,1.68,5.628,5.628,0,0,1,.4,2.138,5.628,5.628,0,0,1-.4,2.138,5.012,5.012,0,0,1-1.1,1.68,5.037,5.037,0,0,1-1.67,1.1,5.9,5.9,0,0,1-4.255,0,5.036,5.036,0,0,1-1.67-1.1,5.012,5.012,0,0,1-1.1-1.68,5.628,5.628,0,0,1-.4-2.138,5.628,5.628,0,0,1,.4-2.138,5.012,5.012,0,0,1,1.1-1.68,5.037,5.037,0,0,1,1.67-1.1A5.551,5.551,0,0,1,31.525-1.986Zm0,8.165a2.612,2.612,0,0,0,.987-.193,2.518,2.518,0,0,0,.845-.56,2.654,2.654,0,0,0,.58-.9,3.185,3.185,0,0,0,.214-1.2,3.185,3.185,0,0,0-.214-1.2,2.654,2.654,0,0,0-.58-.9,2.518,2.518,0,0,0-.845-.56,2.643,2.643,0,0,0-1.985,0,2.545,2.545,0,0,0-.835.56,2.654,2.654,0,0,0-.58.9,3.185,3.185,0,0,0-.214,1.2,3.185,3.185,0,0,0,.214,1.2,2.654,2.654,0,0,0,.58.9,2.545,2.545,0,0,0,.835.56A2.587,2.587,0,0,0,31.525,6.178ZM42.113,13.04a5.947,5.947,0,0,1-1.883-.275,5.352,5.352,0,0,1-1.435-.713,4.792,4.792,0,0,1-1.018-.967,3.773,3.773,0,0,1-.59-1.059l2.545-1.018a2.422,2.422,0,0,0,.937,1.232,2.741,2.741,0,0,0,3.441-.381A3.261,3.261,0,0,0,44.841,7.6V6.911h-.163a3.266,3.266,0,0,1-1.232,1.028,4.03,4.03,0,0,1-1.8.377A4.37,4.37,0,0,1,39.9,7.953a4.565,4.565,0,0,1-1.5-1.038,5.309,5.309,0,0,1-1.466-3.74,5.384,5.384,0,0,1,.407-2.127A5.323,5.323,0,0,1,38.407-.585a4.565,4.565,0,0,1,1.5-1.038,4.37,4.37,0,0,1,1.741-.363,4.03,4.03,0,0,1,1.8.377A3.266,3.266,0,0,1,44.678-.582h.163V-1.661h2.545V7.6A6.3,6.3,0,0,1,47,9.874a4.9,4.9,0,0,1-1.079,1.71,4.684,4.684,0,0,1-1.659,1.079A5.874,5.874,0,0,1,42.113,13.04Zm.1-7.126a2.729,2.729,0,0,0,.967-.18,2.47,2.47,0,0,0,.845-.53,2.638,2.638,0,0,0,.59-.86,2.883,2.883,0,0,0,.224-1.17A2.954,2.954,0,0,0,44.617,2a2.613,2.613,0,0,0-.59-.87A2.47,2.47,0,0,0,43.182.6a2.729,2.729,0,0,0-.967-.18,2.648,2.648,0,0,0-.957.18,2.42,2.42,0,0,0-.835.54,2.757,2.757,0,0,0-.59.87,2.882,2.882,0,0,0-.224,1.169,2.883,2.883,0,0,0,.224,1.17,2.638,2.638,0,0,0,.59.86,2.493,2.493,0,0,0,.835.53A2.648,2.648,0,0,0,42.215,5.913Zm6.434,2.4V-6.262h2.667V8.316Zm13.275-2.4a5.59,5.59,0,0,1-1.863,1.975,5.178,5.178,0,0,1-2.861.753,5.5,5.5,0,0,1-2.107-.4A5.027,5.027,0,0,1,52.3,5.455a5.551,5.551,0,0,1-.4-2.128,5.458,5.458,0,0,1,.387-2.046,5.164,5.164,0,0,1,2.718-2.84A5.012,5.012,0,0,1,57.1-1.986a5.434,5.434,0,0,1,2.138.4A4.361,4.361,0,0,1,60.8-.49a4.731,4.731,0,0,1,.957,1.659,6.406,6.406,0,0,1,.326,2.077v.244a1.37,1.37,0,0,0-.02.224,1.144,1.144,0,0,0-.02.224H54.533a2.806,2.806,0,0,0,.336,1.049,2.544,2.544,0,0,0,.631.733,2.454,2.454,0,0,0,.825.428,3.217,3.217,0,0,0,.916.132,2.6,2.6,0,0,0,1.517-.417A3.046,3.046,0,0,0,59.7,4.814ZM59.5,2.045a1.727,1.727,0,0,0-.173-.59A2.079,2.079,0,0,0,58.88.844a2.345,2.345,0,0,0-.733-.468A2.709,2.709,0,0,0,57.1.192a2.443,2.443,0,0,0-1.507.489,2.58,2.58,0,0,0-.916,1.364Zm8.938.02V8.316H66.566V-6.262h8.511V-4.47H68.439V.314h5.986V2.065Zm6.23,1.262A5.278,5.278,0,0,1,76.115-.48,4.927,4.927,0,0,1,79.8-1.986,4.861,4.861,0,0,1,83.465-.48a5.237,5.237,0,0,1,1.466,3.807,5.194,5.194,0,0,1-1.466,3.807A4.861,4.861,0,0,1,79.8,8.642a4.927,4.927,0,0,1-3.685-1.507A5.278,5.278,0,0,1,74.67,3.328Zm1.873,0a3.653,3.653,0,0,0,.937,2.606,3.2,3.2,0,0,0,4.642,0,3.653,3.653,0,0,0,.937-2.606A3.625,3.625,0,0,0,82.122.742a3.155,3.155,0,0,0-4.642,0A3.625,3.625,0,0,0,76.543,3.328Zm10.75,4.988H85.42V-1.661h1.792V-.032h.081a2.7,2.7,0,0,1,1.171-1.354,3.249,3.249,0,0,1,1.741-.56,3.51,3.51,0,0,1,1.385.244L91.019.111a3.1,3.1,0,0,0-1.1-.143,2.424,2.424,0,0,0-1.843.855,2.86,2.86,0,0,0-.784,2Zm6.373,0H91.793V-1.661h1.792V-.276h.081A3.331,3.331,0,0,1,94.979-1.5a3.621,3.621,0,0,1,1.761-.489,3.641,3.641,0,0,1,1.934.509A3,3,0,0,1,99.9-.073a3.893,3.893,0,0,1,3.441-1.914A3.373,3.373,0,0,1,106-.928a4.4,4.4,0,0,1,.937,3.013v6.23h-1.873V2.371a3.2,3.2,0,0,0-.509-2.026,2.1,2.1,0,0,0-1.71-.621,2.237,2.237,0,0,0-1.812.916A3.351,3.351,0,0,0,100.3,2.8V8.316H98.431V2.371A3.2,3.2,0,0,0,97.922.345a2.1,2.1,0,0,0-1.71-.621A2.237,2.237,0,0,0,94.4.64,3.351,3.351,0,0,0,93.666,2.8Zm21.989-2.769a2.7,2.7,0,0,1-1.14,2.2,4.5,4.5,0,0,1-2.871.9A4.557,4.557,0,0,1,109,7.858a4.322,4.322,0,0,1-1.629-2.067l1.67-.713a3.1,3.1,0,0,0,1.069,1.395,2.6,2.6,0,0,0,1.537.5,2.71,2.71,0,0,0,1.5-.387,1.1,1.1,0,0,0,.6-.916q0-.957-1.466-1.4l-1.71-.428q-2.912-.733-2.912-2.81a2.6,2.6,0,0,1,1.11-2.189A5.088,5.088,0,0,1,114-1.355a3.43,3.43,0,0,1,1.5,1.69l-1.67.692A2.1,2.1,0,0,0,112.9.039a2.905,2.905,0,0,0-1.435-.356,2.407,2.407,0,0,0-1.313.366,1.056,1.056,0,0,0-.58.9q0,.855,1.608,1.222l1.507.387Q115.656,3.287,115.656,5.547Z" transform="translate(-0.333 6.588)" fill="#fff"/>
    </g>
    <rect id="Rectangle_821" data-name="Rectangle 821" width="140" height="140" transform="translate(0.021 0.014)" fill="none"/>
  </g>
</svg>
