<svg xmlns="http://www.w3.org/2000/svg" width="140" height="140" viewBox="0 0 140 140">
  <g id="Group_968" data-name="Group 968" transform="translate(-0.047 -0.027)">
    <g id="Group_918" data-name="Group 918" transform="translate(32.302 55.453)">
      <path id="Path_1" data-name="Path 1" d="M5.4,12.521c0-.832.683-1.152,1.813-1.152a11.9,11.9,0,0,1,5.29,1.365V7.721A14.067,14.067,0,0,0,7.21,6.74C2.88,6.74,0,9,0,12.777c0,5.887,8.105,4.949,8.105,7.487,0,.981-.853,1.3-2.048,1.3A13.278,13.278,0,0,1,.235,19.858v5.077a14.786,14.786,0,0,0,5.823,1.216c4.437,0,7.487-2.2,7.487-6.015C13.523,13.779,5.4,14.91,5.4,12.521ZM19.816,2.474l-5.2,1.109L14.59,20.669a5.36,5.36,0,0,0,5.525,5.482,8.238,8.238,0,0,0,3.733-.7v-4.33c-.683.277-4.053,1.258-4.053-1.9V11.646h4.053V7.1H19.794ZM30.481,8.681,30.139,7.1H25.532V25.767h5.333V13.118a3.762,3.762,0,0,1,4.053-1.109V7.1A3.62,3.62,0,0,0,30.481,8.681ZM36.218,7.1h5.354V25.767H36.218Zm0-1.621L41.572,4.33V0L36.218,1.131ZM52.706,6.74A6.025,6.025,0,0,0,48.526,8.4l-.277-1.322H43.556V31.952l5.332-1.131.021-6.036a6.006,6.006,0,0,0,3.775,1.344c3.818,0,7.295-3.072,7.295-9.833C59.959,10.11,56.439,6.74,52.706,6.74Zm-1.28,14.7a3.188,3.188,0,0,1-2.517-1l-.021-7.914a3.175,3.175,0,0,1,2.538-1.045c1.941,0,3.285,2.176,3.285,4.97C54.712,19.3,53.389,21.437,51.427,21.437Zm25.361-4.927c0-5.461-2.645-9.769-7.7-9.769-5.077,0-8.148,4.309-8.148,9.727,0,6.42,3.626,9.662,8.831,9.662a11.894,11.894,0,0,0,5.908-1.386V20.477a11.325,11.325,0,0,1-5.226,1.173c-2.069,0-3.9-.725-4.138-3.242h10.43C76.746,18.131,76.788,17.021,76.788,16.509ZM66.251,14.483c0-2.41,1.472-3.413,2.816-3.413,1.3,0,2.688,1,2.688,3.413Z" fill="#fff"/>
    </g>
    <rect id="Rectangle_802" data-name="Rectangle 802" width="140" height="140" transform="translate(0.047 0.027)" fill="none"/>
  </g>
</svg>
