<svg xmlns="http://www.w3.org/2000/svg" xmlns:xlink="http://www.w3.org/1999/xlink" width="140" height="140" viewBox="0 0 140 140">
  <defs>
    <clipPath id="clip-path">
      <rect id="Rectángulo_891" data-name="Rectángulo 891" width="140" height="140" transform="translate(-4483 3021)" fill="none"/>
    </clipPath>
  </defs>
  <g id="titan22" transform="translate(4483 -3021)" clip-path="url(#clip-path)">
    <path id="Trazado_1914" data-name="Trazado 1914" d="M-6003.187,2511.82l.961,1.492a3.792,3.792,0,0,1,1.905-1.893,3.517,3.517,0,0,1,2.636-.416c.148-1.321,1.1-1.97,2.1-2.6a3.257,3.257,0,0,1,3.365-.156,3.107,3.107,0,0,1,2.073-2.314,3.533,3.533,0,0,1,3.2-.251c.4-1.307,1.479-1.755,2.615-2.176a3,3,0,0,1,3.729,1.135c.8,1.187,1.591,2.385,2.415,3.622l16.875-7.932c.819,1.23,1.624,2.417,2.394,3.625a1.132,1.132,0,0,1,.065.676c-.121,1.05-.264,2.1-.417,3.285l15.052-6.871,3.506,5.582-29.427,18.932-2.006-3.082c-.065.232-.106.351-.132.473a20.982,20.982,0,0,1-4.1,8.856,2.956,2.956,0,0,1-.708.706,1.481,1.481,0,0,0-.663,1.494c.023,4.7.013,9.406.013,14.109v.746c-.238.014-.427.033-.616.034-4,0-8-.006-11.994.012a.921.921,0,0,1-.9-.492c-.606-.966-1.271-1.9-1.879-2.861a1.733,1.733,0,0,1-.264-.869q-.018-5.135.011-10.271a3.015,3.015,0,0,0-.589-1.983c-.457-.585-.836-1.231-1.277-1.892-.222.105-.414.193-.6.287q-8.427,4.207-16.846,8.427c-.475.239-.7.183-.969-.264-.573-.94-1.192-1.854-1.828-2.753a1.481,1.481,0,0,1-.248-1.159c.163-1.127.287-2.259.442-3.52l-16.3,7.373-3.6-5.514Zm21.309,7.835c-.771.125-1.436.2-2.085.344-1.892.421-2.514,1.551-1.947,3.407a11.566,11.566,0,0,1,.734,4.4,8.787,8.787,0,0,1-.994,3.55c-.039-.087-.057-.107-.053-.123.054-.29.115-.578.166-.869a11.563,11.563,0,0,0-.923-7.305,1.362,1.362,0,0,0-2.182-.675c-2.183,1.178-4.356,2.374-6.541,3.548a.5.5,0,0,0-.3.7,7.5,7.5,0,0,0,1.957,3.322,5.684,5.684,0,0,1,1.823,4.44c-.016,3.031-.011,6.061-.015,9.092v.642h10.948v-.721c0-4.684,0-9.368.013-14.052a1.2,1.2,0,0,1,.306-.737,22.836,22.836,0,0,0,1.931-1.961,20.039,20.039,0,0,0,3.048-6.674,8.286,8.286,0,0,0,.248-2.217,3.285,3.285,0,0,0-1.4-2.723,15.761,15.761,0,0,1-4.1-4.516c-.964-1.594-2.023-1.8-3.687-.947-1.5.767-3.076,1.385-4.6,2.11-1.31.624-2.6,1.289-3.88,1.973a1.338,1.338,0,0,0-.65,1.362,2.369,2.369,0,0,0,2.254,2.321c2.653.2,5.11-.284,6.971-2.422.2-.227.409-.44.613-.66C-5985.043,2516.738-5983.883,2518.337-5981.878,2519.655Zm-51.042,13.74.062.107,19.581-8.813c-.386,3.139-.757,6.154-1.146,9.321l30.373-15.164a2.9,2.9,0,0,1-.924-2.465,10.2,10.2,0,0,1-8.616,1.313c.221,1.182-.535,1.708-1.312,2.215-.263.172-.536.331-.812.483-1.43.789-2.125.687-3.213-.524a.532.532,0,0,0-.75-.146c-1.726.816-3.463,1.61-5.2,2.409-.189.087-.383.163-.681.289.362-2.787.709-5.465,1.08-8.314Zm52.736-22.9a16.941,16.941,0,0,0,3.722,4.048.7.7,0,0,0,.887.1c1.609-.831,3.232-1.633,4.853-2.442.129-.064.271-.1.5-.186-.34,2.593-.668,5.094-1.013,7.727l25.291-16.436-.077-.134-17.69,8.057,1.146-9.017Zm-14.132,7.144a2.973,2.973,0,0,0-.209-.613c-.735-1.3-1.489-2.589-2.233-3.884a2.1,2.1,0,0,0-1.431-1.045,2.433,2.433,0,0,0-1.776.474,2.1,2.1,0,0,0-.856,3.3q.964,1.622,1.932,3.241a1.9,1.9,0,0,0,2.075,1.106c.906-.245,2.456-1.133,2.458-2.118C-5994.357,2517.98-5994.337,2517.863-5994.316,2517.634Zm13.688-7.938c-.25-1.287-.49-2.575-.753-3.86a1.772,1.772,0,0,0-2.4-1.287c-.33.129-.657.262-.99.382a1.77,1.77,0,0,0-1.091,1.159c-.354,1.005.243,1.8.516,2.671C-5983.052,2507.887-5982.35,2508.04-5980.629,2509.7Zm-14.442,4.913c.577-1.927,2.346-2.344,3.767-3.189-.286-.493-.548-.953-.817-1.409a1.883,1.883,0,0,0-2.737-.68c-.285.175-.556.371-.834.557a1.773,1.773,0,0,0-.757,2.158C-5996.069,2512.933-5995.537,2513.757-5995.071,2514.608Zm9.261-5.418c-.292-.611-.507-1.072-.734-1.526a2.463,2.463,0,0,0-.259-.393,1.718,1.718,0,0,0-1.929-.649,14.122,14.122,0,0,0-1.354.577,1.755,1.755,0,0,0-.888,2.284,7.636,7.636,0,0,0,.567,1.227.6.6,0,0,0,.53.215C-5988.535,2510.379-5987.209,2509.794-5985.81,2509.19Z" transform="translate(1575.196 566.67)" fill="#fff"/>
  </g>
</svg>