<svg xmlns="http://www.w3.org/2000/svg" xmlns:xlink="http://www.w3.org/1999/xlink" width="140" height="140" viewBox="0 0 140 140">
  <defs>
    <clipPath id="clip-path">
      <rect id="Rectangle_829" data-name="Rectangle 829" width="140" height="140" transform="translate(0.027 0.027)" fill="#1c1c21"/>
    </clipPath>
  </defs>
  <g id="Mask_Group_202" data-name="Mask Group 202" transform="translate(-0.027 -0.027)" clip-path="url(#clip-path)">
    <g id="Grupo_19" data-name="Grupo 19" transform="translate(20.508 58.265)">
      <path id="Exclusión_6" data-name="Exclusión 6" d="M165.5,53.633a4.23,4.23,0,0,1-2.006-.467,5.1,5.1,0,0,1-1.7-1.4l-.385,1.511H155.69V28.8h6.125v5.851a4.456,4.456,0,0,1,1.677-1.318,4.653,4.653,0,0,1,2.032-.441,5.854,5.854,0,0,1,2.17.385,3.253,3.253,0,0,1,1.978,2.47c.054.467.082,1.447.082,2.913V47.7a13.687,13.687,0,0,1-.3,3.27,3.443,3.443,0,0,1-1.375,1.867A4.133,4.133,0,0,1,165.5,53.633Zm-2.857-17.2a.709.709,0,0,0-.741.413,7.61,7.61,0,0,0-.164,2.088v8.6a7.608,7.608,0,0,0,.192,2.086.791.791,0,0,0,.767.467c.425,0,.661-.144.767-.467a8.679,8.679,0,0,0,.192-2.252V38.968a6.152,6.152,0,0,0-.22-2.032.781.781,0,0,0-.793-.5Zm-55.568,17.2a9.6,9.6,0,0,1-3.981-.713,4.276,4.276,0,0,1-2.28-1.95,8.646,8.646,0,0,1-.633-3.737v-.962h5.412v1.264a6.537,6.537,0,0,0,.218,2.086.787.787,0,0,0,.8.495,1.072,1.072,0,0,0,.906-.329,2.545,2.545,0,0,0,.248-1.374,3.015,3.015,0,0,0-.331-1.813,36.974,36.974,0,0,0-3.542-2.142c-1.821-1.036-2.889-1.935-3.268-2.747a6.97,6.97,0,0,1-.605-2.939,8.116,8.116,0,0,1,.631-3.6,3.978,3.978,0,0,1,2.144-1.757,9.511,9.511,0,0,1,3.542-.631,9.386,9.386,0,0,1,3.378.493,5.666,5.666,0,0,1,2.144,1.346,3.5,3.5,0,0,1,.906,1.535,10.789,10.789,0,0,1,.166,2.228v1.18h-5.412V38.493a5.7,5.7,0,0,0-.164-1.785c-.108-.24-.369-.357-.8-.357a.907.907,0,0,0-.769.357,1.692,1.692,0,0,0-.246,1.016,5.3,5.3,0,0,0,.138,1.374,2.18,2.18,0,0,0,.767.934,14.394,14.394,0,0,0,2.637,1.511,9.222,9.222,0,0,1,3.488,2.444,5.754,5.754,0,0,1,.823,3.35,8.75,8.75,0,0,1-.6,3.709,4.084,4.084,0,0,1-2.116,1.919A8.861,8.861,0,0,1,107.071,53.633Zm39.637-.026a10.056,10.056,0,0,1-3.406-.551,5.175,5.175,0,0,1-2.3-1.511,5.446,5.446,0,0,1-1.152-2.142A13.074,13.074,0,0,1,139.517,46V40.173a9.571,9.571,0,0,1,.715-4.145,4.934,4.934,0,0,1,2.334-2.334,8.315,8.315,0,0,1,3.707-.8,8.128,8.128,0,0,1,4.26.962A5.212,5.212,0,0,1,152.9,36.44a12.419,12.419,0,0,1,.659,4.53h-.028v2.611h-7.91v4.34a4.556,4.556,0,0,0,.22,1.759.826.826,0,0,0,.767.383.909.909,0,0,0,.936-.521,6.454,6.454,0,0,0,.218-2.006V44.873h5.8v1.483a12.656,12.656,0,0,1-.22,2.857,6.229,6.229,0,0,1-1.1,2.114,5.135,5.135,0,0,1-2.2,1.7,8.227,8.227,0,0,1-3.33.577Zm-.11-17.2c-.437,0-.711.134-.8.385a7.541,7.541,0,0,0-.166,2.088v1.459h1.813V38.882a7.33,7.33,0,0,0-.164-2.006.662.662,0,0,0-.687-.467Zm32.166,17.141a11.5,11.5,0,0,1-3.434-.439,4.643,4.643,0,0,1-2.2-1.346,5.665,5.665,0,0,1-1.1-2.17,16.186,16.186,0,0,1-.329-3.819V40.641a12.957,12.957,0,0,1,.6-4.368,5.024,5.024,0,0,1,2.17-2.527,7.945,7.945,0,0,1,4.011-.936,9.2,9.2,0,0,1,3.542.633,5.5,5.5,0,0,1,2.28,1.593,5.928,5.928,0,0,1,1.1,2.032,11.528,11.528,0,0,1,.3,3.188l-.028,4.839a19.491,19.491,0,0,1-.272,3.953,5.316,5.316,0,0,1-1.152,2.362,5.085,5.085,0,0,1-2.28,1.621,9.6,9.6,0,0,1-3.216.519Zm-.028-17.113c-.4,0-.637.122-.741.385a6.524,6.524,0,0,0-.192,1.95v9.01a6.222,6.222,0,0,0,.192,1.843.678.678,0,0,0,.713.439.711.711,0,0,0,.715-.385A4.936,4.936,0,0,0,179.615,48V38.774a6.856,6.856,0,0,0-.164-1.95.709.709,0,0,0-.715-.387ZM122.042,53.551a11.351,11.351,0,0,1-3.432-.439,4.633,4.633,0,0,1-2.2-1.346,5.641,5.641,0,0,1-1.1-2.17,16.293,16.293,0,0,1-.329-3.819V40.641a12.959,12.959,0,0,1,.6-4.368,5.043,5.043,0,0,1,2.17-2.527,7.945,7.945,0,0,1,4.011-.936,9.2,9.2,0,0,1,3.544.633,5.5,5.5,0,0,1,2.278,1.593,5.929,5.929,0,0,1,1.1,2.032,11.532,11.532,0,0,1,.3,3.188l-.028,4.839a19.351,19.351,0,0,1-.274,3.953,5.264,5.264,0,0,1-1.152,2.362,5.07,5.07,0,0,1-2.28,1.621A9.6,9.6,0,0,1,122.042,53.551Zm-.054-17.113c-.4,0-.637.122-.743.385a6.524,6.524,0,0,0-.19,1.95v9.01a6.157,6.157,0,0,0,.19,1.843.681.681,0,0,0,.715.439.712.712,0,0,0,.715-.385A4.987,4.987,0,0,0,122.867,48V38.774a6.858,6.858,0,0,0-.166-1.95.707.707,0,0,0-.713-.387Zm83.941,17.087a3.192,3.192,0,0,1-3.16-3.162,2.961,2.961,0,0,1,.495-1.649,2.881,2.881,0,0,1,1.208-1.1,3.081,3.081,0,0,1,3.653.577,3.1,3.1,0,0,1,.908,2.2,3,3,0,0,1-.908,2.2,2.933,2.933,0,0,1-2.2.936Zm.056-5.66a2.5,2.5,0,0,0-1.867.767,2.462,2.462,0,0,0-.715,1.759,2.413,2.413,0,0,0,.741,1.785,2.5,2.5,0,0,0,1.785.741,2.323,2.323,0,0,0,1.705-.741,2.5,2.5,0,0,0,.741-1.785,2.372,2.372,0,0,0-.357-1.318,2.264,2.264,0,0,0-.936-.906,2.142,2.142,0,0,0-1.1-.3Zm-14.174,5.414H186.7l2.665-10.467L186.7,33.224h5.109c.878,4.224,1.276,6.51,1.346,6.979.631-3.592,1.06-5.808,1.346-6.979h5.41L197.5,42.811l2.939,10.465H194.5c-.573-2.5-1.026-4.8-1.346-6.84-.447,2.585-.886,4.821-1.346,6.84Zm-54.442,0h-6.263V28.8h6.263V53.278Zm67.846-1.264h-.659V48.692h1.565a1.131,1.131,0,0,1,.852.275.92.92,0,0,1,.246.659.907.907,0,0,1-.218.631,1.086,1.086,0,0,1-.659.331.76.76,0,0,1,.329.218c.024.036.058.092.1.17.062.1.144.236.252.407l.411.631h-.823l-.275-.521a2.516,2.516,0,0,0-.439-.661.735.735,0,0,0-.495-.19h-.19v1.372Zm-.028-2.719V50.2h.551a1.026,1.026,0,0,0,.549-.108.424.424,0,0,0,.19-.359.385.385,0,0,0-.164-.329,1.108,1.108,0,0,0-.493-.11Z" transform="translate(-100 -28.802)" fill="#fff"/>
    </g>
  </g>
</svg>
