<svg xmlns="http://www.w3.org/2000/svg" xmlns:xlink="http://www.w3.org/1999/xlink" width="140" height="140" viewBox="0 0 140 140">
  <defs>
    <clipPath id="clip-path">
      <rect id="Rectangle_827" data-name="Rectangle 827" width="140" height="140" transform="translate(0.128 0.027)" fill="#1c1c21"/>
    </clipPath>
  </defs>
  <g id="Mask_Group_200" data-name="Mask Group 200" transform="translate(-0.128 -0.027)" clip-path="url(#clip-path)">
    <g id="Group_966" data-name="Group 966" transform="translate(29.19 59.545)">
      <path id="Path_1882" data-name="Path 1882" d="M387.427,122.969v5.843h.565q3.516,0,7.029,0c.627,0,.749.118.751.735,0,.713-.01,1.425,0,2.138.01.479-.21.657-.677.655-2.342-.01-4.684,0-7.027,0h-.635v5.849h.6q3.82,0,7.64,0c.687,0,.787.1.787.8q0,.968,0,1.936c0,.655-.136.787-.815.789q-2.927,0-5.855,0-2.6,0-5.2,0c-.667,0-.785-.114-.785-.757q0-10.387,0-20.775c0-.587.136-.727.711-.727q5.6,0,11.2,0c.569,0,.733.16.735.709,0,.713,0,1.427,0,2.138,0,.525-.168.679-.711.679l-7.7-.006Z" transform="translate(-366.159 -119.434)" fill="#fff"/>
      <path id="Path_1883" data-name="Path 1883" d="M395.445,132.336v5.849h8.2c.737,0,.844.108.844.858,0,.627-.006,1.254-.006,1.879s-.156.785-.771.787q-3.54,0-7.081,0c-1.358,0-2.717,0-4.075,0-.579,0-.723-.144-.723-.721q0-10.417,0-20.834c0-.575.138-.7.733-.7q5.578,0,11.154,0c.621,0,.765.15.767.783,0,.661,0,1.322,0,1.982,0,.623-.144.763-.785.761l-7.958,0c-.082,0-.164.01-.28.016v5.821H396q3.513,0,7.029,0c.647,0,.771.124.771.773q0,1.019,0,2.038c0,.587-.132.713-.715.713h-7.636Z" transform="translate(-358.108 -119.434)" fill="#fff"/>
      <path id="Path_1884" data-name="Path 1884" d="M408.968,128.81c.551,0,1.022.006,1.495,0,.447-.006.649.206.645.651-.006.747,0,1.493,0,2.24,0,.441-.184.649-.643.643-.968-.016-1.935-.022-2.9.008a.754.754,0,0,0-.561.295c-.946,1.761-1.863,3.54-2.787,5.316a.807.807,0,0,0-.014.17h.529l7.3,0c.687,0,.819.134.821.834s-.006,1.391,0,2.086a.569.569,0,0,1-.645.657q-5.854,0-11.711,0c-.5,0-.673-.186-.679-.673a.436.436,0,0,0,0-.052,6.338,6.338,0,0,1,1.076-4.266c.769-1.254,1.4-2.593,2.094-3.9.07-.13.124-.266.224-.485-.5,0-.932-.01-1.366,0-.463.014-.689-.182-.681-.663.014-.729.006-1.459,0-2.19,0-.455.2-.683.673-.677.952.012,1.9.014,2.851-.008a.649.649,0,0,0,.489-.23c.966-1.789,1.907-3.592,2.853-5.392.014-.026,0-.064,0-.162h-.587q-3.207,0-6.416,0c-.659,0-.8-.14-.8-.809,0-.693.006-1.386,0-2.082-.006-.469.216-.677.677-.677q5.425,0,10.848,0a.56.56,0,0,1,.643.651c-.006.627.016,1.256-.01,1.883a1.65,1.65,0,0,1-.192.669c-1,1.923-2.022,3.839-3.033,5.758C409.106,128.513,409.06,128.62,408.968,128.81Z" transform="translate(-350.144 -119.435)" fill="#fff"/>
      <path id="Path_1885" data-name="Path 1885" d="M382.377,127.626c1.2-2.619,2.364-5.127,3.506-7.644a.771.771,0,0,1,.811-.535c.832.022,1.665,0,2.5.008.531,0,.711.3.491.785q-2.672,5.885-5.338,11.769a1.8,1.8,0,0,0-.146.733c-.01,2.733-.006,5.468-.008,8.2,0,.647-.122.767-.777.771-.7,0-1.392,0-2.088,0-.6,0-.723-.128-.723-.719,0-2.733.006-5.468-.01-8.2a2.463,2.463,0,0,0-.218-.972q-2.63-5.818-5.29-11.623c-.208-.457-.022-.741.493-.745.8,0,1.6.03,2.394-.012a.944.944,0,0,1,1.032.679c1.034,2.362,2.1,4.707,3.16,7.057C382.215,127.3,382.275,127.414,382.377,127.626Z" transform="translate(-375 -119.441)" fill="#fff"/>
      <path id="Path_1886" data-name="Path 1886" d="M415,127.615c.805-1.757,1.591-3.464,2.374-5.171.389-.848.779-1.7,1.158-2.547a.684.684,0,0,1,.713-.451c.848.016,1.7,0,2.547.006.553,0,.733.279.509.775q-2.636,5.813-5.266,11.629a2.6,2.6,0,0,0-.23,1.018c-.02,2.681-.01,5.364-.012,8.046,0,.691-.1.789-.8.791s-1.39,0-2.088,0c-.535,0-.691-.16-.691-.7,0-2.7.01-5.4-.012-8.1a3.093,3.093,0,0,0-.267-1.214c-1.713-3.8-3.45-7.592-5.179-11.387-.286-.629-.128-.866.569-.866.781,0,1.563.018,2.344-.008a.822.822,0,0,1,.894.565c1.074,2.436,2.174,4.861,3.266,7.287C414.876,127.387,414.928,127.473,415,127.615Z" transform="translate(-342.255 -119.438)" fill="#fff"/>
    </g>
  </g>
</svg>
