<svg xmlns="http://www.w3.org/2000/svg" xmlns:xlink="http://www.w3.org/1999/xlink" width="140" height="140" viewBox="0 0 140 140">
  <defs>
    <clipPath id="clip-path">
      <rect id="Rectangle_830" data-name="Rectangle 830" width="140" height="140" transform="translate(0.013 0.027)" fill="#1c1c21"/>
    </clipPath>
  </defs>
  <g id="Mask_Group_203" data-name="Mask Group 203" transform="translate(-0.014 -0.027)" clip-path="url(#clip-path)">
    <g id="Group_969" data-name="Group 969" transform="translate(35.255 58.876)">
      <g id="Group_6-2" data-name="Group 6-2">
        <path id="Fill_1" data-name="Fill 1" d="M66.373,123.4c.01-1.383-.018-2.767.026-4.149a1.723,1.723,0,0,0-1.644-1.734c-1.672-.013-3.342,0-5.015-.008a3.036,3.036,0,0,0-.711.057,1.71,1.71,0,0,0-1.307,1.6c-.018,1.672,0,3.342-.008,5.01a2.288,2.288,0,0,0,.184,1.072,1.721,1.721,0,0,0,1.491.952c1.642,0,3.282,0,4.924,0a3.084,3.084,0,0,0,.842-.062,1.7,1.7,0,0,0,1.166-1.149,6.59,6.59,0,0,0,.049-1.588" transform="translate(15.703 -117.51)" fill="#fff"/>
        <path id="Fill_3" data-name="Fill 3" d="M33.609,119.457a6.34,6.34,0,0,0-.057-1.284.775.775,0,0,0-.818-.56c-.847.028-1.7-.049-2.543.034a.711.711,0,0,0-.539.686c-.016.662,0,1.327-.008,1.992a1.232,1.232,0,0,0,.122.721.788.788,0,0,0,.713.346c.777,0,1.557.008,2.333,0a.767.767,0,0,0,.764-.645,9.4,9.4,0,0,0,.034-1.291" transform="translate(-2.323 -117.447)" fill="#fff"/>
        <path id="Fill_4" data-name="Fill 4" d="M33.227,146.536h0c-.007-4.19-.007-8.451-.007-12.566v-10.6a5.658,5.658,0,0,1,1.251-3.455,5.813,5.813,0,0,1,4.675-2.353,5.633,5.633,0,0,1,3.19.97A6.438,6.438,0,0,1,44.52,121a7.452,7.452,0,0,1,.509,2.535v11.826a6.83,6.83,0,0,1-1.051,3.9,5.072,5.072,0,0,1-2.048,1.824,5.877,5.877,0,0,1-2.511.521c-.094,0-.19,0-.286,0a2.762,2.762,0,0,1-2.025-1.059c0,1.023,0,2.061,0,3.066,0,.957,0,1.946,0,2.918H34.9c-.458,0-1.062,0-1.67,0ZM39.1,121.759a1.788,1.788,0,0,0-.35.033,1.949,1.949,0,0,0-1.634,1.834c0,2.562,0,5.167,0,7.69v4.4a1.866,1.866,0,0,0,1.1,1.7,2.25,2.25,0,0,0,.91.192,2.081,2.081,0,0,0,1.3-.44,2.007,2.007,0,0,0,.727-1.626V124.235a3.173,3.173,0,0,0-.14-1.2A2.064,2.064,0,0,0,39.1,121.759Z" transform="translate(-0.019 -117.478)" fill="#fff"/>
        <path id="Fill_5" data-name="Fill 5" d="M23.64,128.25a6.455,6.455,0,0,0-4.578-2.312,2.328,2.328,0,0,1-1.683-.745,2.264,2.264,0,0,1,.241-3.135,2.288,2.288,0,0,1,2.314-.2,1.987,1.987,0,0,1,1,1.429c1.284,0,2.57,0,3.854,0a5.318,5.318,0,0,0-.977-3.148,6.182,6.182,0,0,0-4.41-2.486,5.291,5.291,0,0,0-1.535.057,5.69,5.69,0,0,0-3.509,2.12,6.4,6.4,0,0,0,.475,8.429,5.585,5.585,0,0,0,3.982,1.676,2.506,2.506,0,0,1,1.532.414,1.662,1.662,0,0,1,.591,1.351c0,1.123,0,2.246,0,3.369a2.151,2.151,0,0,1-1.13,2.2,2.435,2.435,0,0,1-2.148-.186,2.059,2.059,0,0,1-.773-1.665V132.24c-1.294,0-2.589-.007-3.885,0,0,1.145,0,2.287,0,3.432a6.474,6.474,0,0,0,3.353,5.112,5.637,5.637,0,0,0,3.585.545,5.468,5.468,0,0,0,3.616-2.03,5.779,5.779,0,0,0,1.253-3.714V131.7a5.429,5.429,0,0,0-1.169-3.447" transform="translate(-13.001 -117.438)" fill="#fff"/>
      </g>
      <path id="Fill_7" data-name="Fill 7" d="M47.345,141.423h0a5.828,5.828,0,0,1-3.2-.892,5.694,5.694,0,0,1-2.524-3.7,6.508,6.508,0,0,1-.108-1.493v-12a5.758,5.758,0,0,1,.678-2.77,5.545,5.545,0,0,1,3.24-2.691,6.569,6.569,0,0,1,1.878-.276,5.921,5.921,0,0,1,4.836,2.429,5.417,5.417,0,0,1,1.177,3.223c.013.557.011,1.123.008,1.672v1.007c0,.452,0,.911,0,1.356,0,.755.01,1.537-.021,2.3H45.335v5.755a2.059,2.059,0,0,0,.961,1.75,2,2,0,0,0,1.087.3,2.612,2.612,0,0,0,.864-.153,1.9,1.9,0,0,0,1.151-1.814v-.854c0-.747,0-1.519.007-2.279H51.7c.639,0,1.133,0,1.6-.015-.008.814-.008,1.64-.007,2.44v.964a5.886,5.886,0,0,1-1.565,3.923,5.671,5.671,0,0,1-3.176,1.708A7.067,7.067,0,0,1,47.345,141.423Zm.016-19.783a1.873,1.873,0,0,0-.791.151,2.052,2.052,0,0,0-1.233,1.81v1.051c0,.415,0,.844,0,1.266.741,0,1.5,0,2.228,0h1.924v-2.228a2.1,2.1,0,0,0-1.624-2.01,3.94,3.94,0,0,0-.5-.038Z" transform="translate(5.301 -117.451)" fill="#fff"/>
      <path id="Fill_8" data-name="Fill 8" d="M60.429,128.406a6.391,6.391,0,0,0-3.87-2.36,8.322,8.322,0,0,1-1.816-.33,2.079,2.079,0,0,1-1.176-1.453,2.533,2.533,0,0,1,.177-1.484,1.83,1.83,0,0,1,1.25-1.067,2.213,2.213,0,0,1,2.071.493,2.7,2.7,0,0,1,.547,1.089c1.277-.01,2.555,0,3.834-.007a5.327,5.327,0,0,0-.624-2.608,6.152,6.152,0,0,0-2.8-2.522,5.786,5.786,0,0,0-7.512,2.414,6.592,6.592,0,0,0-.744,4.333,5.851,5.851,0,0,0,1.448,3.067,5.685,5.685,0,0,0,4.212,1.965,2.4,2.4,0,0,1,1.686.507,1.868,1.868,0,0,1,.507,1.435c-.008,1.179,0,2.361-.007,3.542a2.1,2.1,0,0,1-1.057,1.814,2.44,2.44,0,0,1-2.209-.14,1.987,1.987,0,0,1-.782-1.677c.007-1.057,0-2.117,0-3.174-1.292,0-2.586,0-3.878,0v2.133a9.086,9.086,0,0,0,.131,2.243,6.515,6.515,0,0,0,2.644,3.819,5.237,5.237,0,0,0,3.128.969,5.781,5.781,0,0,0,4.2-1.619,5.719,5.719,0,0,0,1.693-4.031c.007-1.322,0-2.645,0-3.965a5.6,5.6,0,0,0-1.057-3.384" transform="translate(10.538 -117.438)" fill="#fff"/>
      <path id="Fill_9" data-name="Fill 9" d="M32.346,120.7a6.537,6.537,0,0,0-3.1-2.67,5.848,5.848,0,0,0-3.747-.14,6.364,6.364,0,0,0-3.2,2.381,5.677,5.677,0,0,0-1.048,3.471q0,8.7,0,17.391c1.287.013,2.575,0,3.864.007q0-8.7,0-17.4a2.1,2.1,0,0,1,1.55-2.01,2.045,2.045,0,0,1,1.606.281A2.265,2.265,0,0,1,29.237,124c.01,5.714,0,11.428.007,17.143,1.277,0,2.557,0,3.836,0v-17.66a5.354,5.354,0,0,0-.734-2.782" transform="translate(-7.705 -117.42)" fill="#fff"/>
      <path id="Fill_10" data-name="Fill 10" d="M29.636,121.432q0,8.64,0,17.281c1.284,0,2.566,0,3.851,0q.01-8.643,0-17.284H29.636" transform="translate(-2.32 -114.992)" fill="#fff"/>
    </g>
  </g>
</svg>
