<svg xmlns="http://www.w3.org/2000/svg" xmlns:xlink="http://www.w3.org/1999/xlink" width="140" height="140" viewBox="0 0 140 140">
  <defs>
    <clipPath id="clip-path">
      <rect id="Rectangle_831" data-name="Rectangle 831" width="140" height="140" transform="translate(0 0.027)" fill="#1c1c21"/>
    </clipPath>
  </defs>
  <g id="Mask_Group_204" data-name="Mask Group 204" transform="translate(0 -0.027)" clip-path="url(#clip-path)">
    <g id="Group_970" data-name="Group 970" transform="translate(19.731 56.412)">
      <path id="Exclusi贸n_14" data-name="Exclusi贸n 14" d="M297.179,211.1a1.11,1.11,0,0,0-.275.042l-.844.274a5.211,5.211,0,0,0-.4-.992,2.832,2.832,0,0,0-2.529-1.749.562.562,0,0,0-.19.022h-.02c-.042-.042-.064-.084-.106-.106a2.1,2.1,0,0,0-1.665-.717h-.084c-1.348.044-2.719,1.012-3.815,2.763a11.061,11.061,0,0,0-1.519,3.961l-.589.19-.423.126-1.665.527c-.8.232-.821.275-.928,1.012-.042.379-.99,7.756-1.623,12.625-.295,2.234-.505,3.837-.505,3.879l17.283,2.993V211.126A.179.179,0,0,0,297.179,211.1Zm-4.238,1.264-1.306.423-1.561.485a6.711,6.711,0,0,1,1.455-2.847,2.677,2.677,0,0,1,.97-.7A6.24,6.24,0,0,1,292.941,212.369Zm-1.833-3.583h.02a1.445,1.445,0,0,1,.781.21,4.27,4.27,0,0,0-1.054.821,8.08,8.08,0,0,0-1.793,3.753l-.841.275-1.519.463C287.167,212.094,289.02,208.848,291.108,208.786Zm-2.657,12.434c.084,1.477,3.921,1.771,4.132,5.185.168,2.7-1.413,4.532-3.709,4.68a5.7,5.7,0,0,1-4.28-1.455l.591-2.488a5.173,5.173,0,0,0,2.739,1.076,1.066,1.066,0,0,0,1.054-1.1v-.064c-.1-1.9-3.224-1.791-3.434-4.911-.168-2.613,1.559-5.29,5.374-5.522a4.7,4.7,0,0,1,2.214.275l-.866,3.266a5.321,5.321,0,0,0-2.128-.379C288.451,219.894,288.431,220.968,288.451,221.221ZM294,212.052l-.148.042a7.727,7.727,0,0,0-.4-2.486c1.032.21,1.537,1.39,1.749,2.066Zm7.461.992h-.317v.02h.317a.192.192,0,0,1,.148.064A.327.327,0,0,0,301.457,213.044Z" transform="translate(-280 -207.877)" fill="#fff"/>
      <g id="Path" transform="translate(17.81 3.648)">
        <path id="Path_1887" data-name="Path 1887" d="M295.846,232.251l-.507.128L288.889,234V209.7c.507.507,1.539,1.5,1.539,1.5h.337c.3,0,.739.022,1.118.022h.337v.02h.317a.192.192,0,0,1,.148.064.263.263,0,0,1,.084.148s.02.1.042.252a1.576,1.576,0,0,0,.042.295c0,.064.02.126.02.19.022.146.042.317.084.527.339,2.338,1.118,7.546,1.771,11.992.042.317.084.633.148.928.042.317.084.591.126.886s.084.591.126.864c.084.569.148,1.076.232,1.561.042.275.084.527.1.779.042.21.064.421.106.633.042.295.084.589.126.822.042.379.084.653.106.844A2.176,2.176,0,0,0,295.846,232.251Z" transform="translate(-288.889 -209.698)" fill="#fff"/>
      </g>
      <path id="Exclusi贸n_13" data-name="Exclusi贸n 13" d="M344.6,211.036h-.042a1.948,1.948,0,0,0-1.9,1.982v.168a1.555,1.555,0,0,0,1.6,1.517h.17a1.926,1.926,0,0,0,1.875-1.96v-.19A1.638,1.638,0,0,0,344.6,211.036Zm-2.446,5.143-2.3,12.036h3.392l2.32-12.036Zm-27.59.547a2.724,2.724,0,0,0-2.044-.822,4.6,4.6,0,0,0-3.6,1.813l-.042-.042,1.306-6.808h-3.394L303.5,228.215h3.394l1.116-5.923a6.48,6.48,0,0,1,1.118-2.657,2.094,2.094,0,0,1,1.581-.97c.675,0,1.054.443,1.054,1.264a8.8,8.8,0,0,1-.148,1.5l-1.284,6.788h3.392l1.328-7.021a12.49,12.49,0,0,0,.252-2.212A3.277,3.277,0,0,0,314.562,216.726Zm39.415-3.33a3.885,3.885,0,0,1,1.1.168l.653-2.655a4.983,4.983,0,0,0-1.833-.295,5.1,5.1,0,0,0-3.33,1.138,6.377,6.377,0,0,0-1.962,3.835l-.1.569h-1.581l-.485,2.573h1.559l-1.791,9.485h3.394l1.813-9.507h2.338l.465-2.551h-2.362l.128-.569C352.143,214.577,352.775,213.4,353.977,213.4Zm-53.621,7.588c-.779-.421-1.306-.822-1.306-1.413,0-.673.631-1.116,1.581-1.116a5.669,5.669,0,0,1,2.128.463l.779-2.4a4.911,4.911,0,0,0-2.865-.569c-2.951,0-5.017,1.665-5.017,4.089a3.765,3.765,0,0,0,2.256,3.12c1.032.589,1.391,1.012,1.391,1.623,0,.7-.591,1.158-1.477,1.158a6.742,6.742,0,0,1-2.781-.737l-.822,2.4a6.568,6.568,0,0,0,3.33.844v-.02a6.132,6.132,0,0,0,3.773-1.076,3.747,3.747,0,0,0,1.475-3.12C302.8,222.988,302,221.934,300.356,220.984Zm26.115-3.6a4.428,4.428,0,0,0-3.5-1.475,6.313,6.313,0,0,0-4.931,2.36,8.636,8.636,0,0,0-1.855,5.438,4.8,4.8,0,0,0,1.2,3.372,4.652,4.652,0,0,0,3.476,1.393,6.3,6.3,0,0,0,4.869-2.34,8.63,8.63,0,0,0,1.855-5.46A5.133,5.133,0,0,0,326.471,217.38Zm-5.165,8.473c-1.032,0-1.643-.821-1.643-2.212,0-1.833.948-5.123,2.845-5.123a1.351,1.351,0,0,1,1.244.655,2.508,2.508,0,0,1,.359,1.391C324.111,222.775,323.035,225.853,321.306,225.853Zm17.642-8.642a3.123,3.123,0,0,0-2.677-1.306,4.67,4.67,0,0,0-3.6,2.024h-.044l.19-1.813h-2.993c-.146,1.2-.421,3.058-.7,4.49l-2.36,12.436h3.394l.928-5.017h.084a4.1,4.1,0,0,0,2,.443,6,6,0,0,0,4.785-2.573,9.516,9.516,0,0,0,1.791-5.648A5.306,5.306,0,0,0,338.948,217.211Zm-5.943,8.684a2.1,2.1,0,0,1-1.391-.485l.569-3.182c.379-2.066,1.475-3.52,2.677-3.52,1.222,0,1.349,1.306,1.349,1.875C336.209,222.713,334.944,225.9,333.005,225.9Zm29.361-9.716c-.022.062-2.13,5.4-3.078,8.261h-.042c-.022-.379-.19-2.044-.8-7.966-.02-.168-.042-.294-.042-.294H354.84l2.046,11.044a.773.773,0,0,1-.084.569,5.9,5.9,0,0,1-1.835,2.046,6.767,6.767,0,0,1-1.917.948l.928,2.887a7.864,7.864,0,0,0,3.308-1.833,22.724,22.724,0,0,0,4.47-6.744l4.151-8.916Z" transform="translate(-265.726 -205.132)" fill="#fff"/>
    </g>
  </g>
</svg>
