<svg xmlns="http://www.w3.org/2000/svg" width="140" height="140" viewBox="0 0 140 140">
  <g id="Group_965" data-name="Group 965" transform="translate(-0.107 -0.027)">
    <g id="Group_929" data-name="Group 929" transform="translate(9.677 56.507)">
      <g id="Group_928" data-name="Group 928" transform="translate(0 0)">
        <g id="Group_927" data-name="Group 927" transform="translate(0)">
          <g id="Group_926" data-name="Group 926">
            <g id="Group_925" data-name="Group 925">
              <path id="Path_1796" data-name="Path 1796" d="M117.879,104.119c0-2.92-1.248-5.488-5.461-5.488A9.98,9.98,0,0,0,107.6,99.78l.685,2.346a7.054,7.054,0,0,1,3.513-.988c2.138,0,2.488,1.211,2.488,1.99v.184c-4.66-.008-7.6,1.606-7.6,4.893a3.88,3.88,0,0,0,4.106,3.889,4.669,4.669,0,0,0,3.748-1.664h.08s.532,2.225,3.464,1.374a19.048,19.048,0,0,1-.2-3.1m-3.478-1.5a2.5,2.5,0,0,1-.087.7,2.443,2.443,0,0,1-2.351,1.647,1.592,1.592,0,0,1-1.731-1.705c0-1.77,1.95-2.258,4.168-2.247Z" transform="translate(-45.282 -87.079)" fill="#fff"/>
              <path id="Path_1797" data-name="Path 1797" d="M18,92.89s3.044,12.475,3.53,14.5c.566,2.364,1.589,3.233,4.536,2.647l1.9-7.734c.483-1.923.805-3.292,1.115-5.246h.055a51.1,51.1,0,0,0,.924,5.252s.773,3.511,1.17,5.356,1.5,3.006,4.389,2.373L40.15,92.89H36.492L34.946,100.3c-.417,2.158-.792,3.845-1.084,5.82h-.052c-.264-1.955-.6-3.575-1.023-5.677l-1.61-7.556H27.364l-1.721,7.365c-.488,2.238-.944,4.045-1.235,5.952h-.052c-.3-1.8-.694-4.067-1.122-6.233,0,0-1.025-5.268-1.383-7.084" transform="translate(-18 -85.313)" fill="#fff"/>
              <path id="Path_1798" data-name="Path 1798" d="M60.028,104.119c0-2.92-1.247-5.488-5.46-5.488a9.984,9.984,0,0,0-4.819,1.149l.687,2.346a7.05,7.05,0,0,1,3.513-.988c2.139,0,2.488,1.211,2.488,1.99v.184c-4.661-.008-7.6,1.606-7.6,4.893a3.879,3.879,0,0,0,4.105,3.889,4.673,4.673,0,0,0,3.749-1.664h.078s.533,2.225,3.467,1.374a18.722,18.722,0,0,1-.2-3.1m-3.479-1.5a2.375,2.375,0,0,1-.087.7,2.44,2.44,0,0,1-2.348,1.647,1.591,1.591,0,0,1-1.73-1.705c0-1.77,1.948-2.258,4.165-2.247Z" transform="translate(-27.485 -87.079)" fill="#fff"/>
              <path id="Path_1799" data-name="Path 1799" d="M71.84,106.4V92.888H68.358v17.15H71.84" transform="translate(-33.492 -85.312)" fill="#fff"/>
              <path id="Path_1800" data-name="Path 1800" d="M139.191,92.89v12.652a5.307,5.307,0,0,0,1.031,3.712,3.853,3.853,0,0,0,2.832,1.075,8.238,8.238,0,0,0,2.521-.373l-.045-2.722a5.3,5.3,0,0,1-1.323.158c-1.185,0-1.583-.76-1.583-2.326v-4.839h3.031V96.944h-3.031V92.89" transform="translate(-55.282 -85.313)" fill="#fff"/>
              <path id="Path_1801" data-name="Path 1801" d="M126.208,98.922V111.8H129.8v-6.6a4.968,4.968,0,0,1,.078-.951,2.713,2.713,0,0,1,2.841-2.264,6.557,6.557,0,0,1,1.034.091V98.711a3.429,3.429,0,0,0-.79-.08,3.79,3.79,0,0,0-3.506,2.72h-.1v-2.43" transform="translate(-51.288 -87.079)" fill="#fff"/>
              <path id="Path_1802" data-name="Path 1802" d="M76.909,98.922V111.8h3.5V104.25a3,3,0,0,1,.165-1.055,2.373,2.373,0,0,1,2.127-1.651c1.412,0,2.074,1.194,2.074,2.918V111.8h3.5v-7.646a3.562,3.562,0,0,1,.147-1.045,2.205,2.205,0,0,1,2.1-1.57c1.433,0,2.119,1.174,2.119,3.2V111.8h3.5v-7.587c0-4-2.032-5.586-4.325-5.586a4.665,4.665,0,0,0-2.542.7,5.429,5.429,0,0,0-1.632,1.6h-.051a3.674,3.674,0,0,0-3.551-2.3,4.057,4.057,0,0,0-3.752,2.041h-.052v-1.75" transform="translate(-36.122 -87.079)" fill="#fff"/>
              <path id="Path_1803" data-name="Path 1803" d="M174.817,91.893a1.267,1.267,0,0,0,1.338-.825l.683-7.732c0-.764-.895-1.39-2.02-1.39s-2.018.627-2.018,1.39l.683,7.732a1.263,1.263,0,0,0,1.338.825" transform="translate(-65.622 -81.946)" fill="#fff"/>
              <path id="Path_1804" data-name="Path 1804" d="M165.687,97.064a1.266,1.266,0,0,0-.046-1.572l-6.355-4.457c-.661-.38-1.651.079-2.215,1.054s-.465,2.062.2,2.444l7.035,3.276a1.272,1.272,0,0,0,1.387-.747" transform="translate(-60.67 -84.701)" fill="#fff"/>
              <path id="Path_1805" data-name="Path 1805" d="M181.645,97.061a1.272,1.272,0,0,0,1.385.747l7.038-3.276c.663-.382.757-1.47.194-2.444s-1.553-1.435-2.214-1.054l-6.355,4.457a1.272,1.272,0,0,0-.045,1.572" transform="translate(-68.269 -84.701)" fill="#fff"/>
              <path id="Path_1806" data-name="Path 1806" d="M174.817,110.26a1.266,1.266,0,0,1,1.338.824l.683,7.732c0,.764-.895,1.393-2.02,1.393s-2.018-.629-2.018-1.393l.683-7.732a1.262,1.262,0,0,1,1.338-.824" transform="translate(-65.622 -90.656)" fill="#fff"/>
              <path id="Path_1807" data-name="Path 1807" d="M181.645,106.425a1.27,1.27,0,0,1,1.385-.748l7.038,3.275c.663.383.757,1.471.194,2.446s-1.553,1.434-2.214,1.053L181.692,108a1.272,1.272,0,0,1-.045-1.572" transform="translate(-68.269 -89.233)" fill="#fff"/>
              <path id="Path_1808" data-name="Path 1808" d="M165.687,106.422a1.267,1.267,0,0,1-.046,1.572l-6.355,4.455c-.661.38-1.651-.08-2.215-1.052s-.465-2.065.2-2.447l7.035-3.274a1.268,1.268,0,0,1,1.387.747" transform="translate(-60.67 -89.233)" fill="#fff"/>
            </g>
          </g>
        </g>
      </g>
    </g>
    <rect id="Rectangle_814" data-name="Rectangle 814" width="140" height="140" transform="translate(0.107 0.027)" fill="none"/>
  </g>
</svg>
