<svg xmlns="http://www.w3.org/2000/svg" xmlns:xlink="http://www.w3.org/1999/xlink" width="140" height="140" viewBox="0 0 140 140">
  <defs>
    <clipPath id="clip-path">
      <rect id="Rectangle_828" data-name="Rectangle 828" width="140" height="140" transform="translate(0.061 0.027)" fill="#1c1c21"/>
    </clipPath>
  </defs>
  <g id="Mask_Group_201" data-name="Mask Group 201" transform="translate(-0.061 -0.027)" clip-path="url(#clip-path)">
    <g id="Grupo_29" data-name="Grupo 29" transform="translate(30.113 56.858)">
      <path id="Exclusión_12" data-name="Exclusión 12" d="M275.145,235.75H195V208.1h80.145v27.65ZM219.8,216.9,217.274,232.9h2.973l1.022-6.542h.04a2.908,2.908,0,0,0,2.571,1.318c3.142,0,5.287-2.889,5.714-5.608a5.253,5.253,0,0,0-.992-4.216,3.678,3.678,0,0,0-2.9-1.286,4.515,4.515,0,0,0-3.08,1.294l.146-.954Zm-20.214,5.758-2.336,1.976a4.673,4.673,0,0,0,4.44,3.124,6.091,6.091,0,0,0,6.137-5.48c.5-3.146-1.567-4.077-3.226-4.827-1.19-.537-2.218-1-2.042-2.12a2.346,2.346,0,0,1,2.252-1.805,2.382,2.382,0,0,1,2.19,1.314l1.8-2.164a5.6,5.6,0,0,0-4.077-1.785,5.711,5.711,0,0,0-5.44,4.8c-.389,2.4.866,3.484,2.867,4.374l.222.09c1.124.453,2.4.97,2.158,2.525a2.928,2.928,0,0,1-.816,1.619,2.307,2.307,0,0,1-1.627.7,2.69,2.69,0,0,1-2.507-2.336Zm69.271-6.1c-3.106,0-5.386,2.166-5.947,5.65a5,5,0,0,0,.9,4.075,4.337,4.337,0,0,0,3.43,1.382,5.827,5.827,0,0,0,5.27-3.25l-2.677-.447a2.642,2.642,0,0,1-2.23,1.425,1.508,1.508,0,0,1-1.2-.491,3.075,3.075,0,0,1-.413-2.316h6.86l.064-.361a5.371,5.371,0,0,0-.854-4.41,4,4,0,0,0-3.2-1.26Zm-26.187,0c-3.1,0-5.386,2.166-5.947,5.65a5,5,0,0,0,.9,4.075,4.349,4.349,0,0,0,3.432,1.384,5.827,5.827,0,0,0,5.268-3.252l-2.677-.445a2.644,2.644,0,0,1-2.23,1.423,1.508,1.508,0,0,1-1.2-.491,3.068,3.068,0,0,1-.413-2.312h6.86l.064-.361a5.367,5.367,0,0,0-.856-4.412,4,4,0,0,0-3.2-1.262Zm-33.3.339-.976,6.137a3.5,3.5,0,0,0,3.929,4.63c3.1,0,4.923-1.557,5.416-4.628l.978-6.139h-2.973l-.892,5.652a4.829,4.829,0,0,1-.569,1.749,1.74,1.74,0,0,1-1.555.86,1.287,1.287,0,0,1-1.032-.4,2.9,2.9,0,0,1-.242-2.214l.892-5.648Zm48.972,2.04a.988.988,0,0,1,.791.315c.459.533.294,1.611.174,2.4l-.028.2-.872,5.482h2.973l1.02-6.5c.26-1.637.1-2.775-.495-3.468a2.67,2.67,0,0,0-2.14-.8,4.31,4.31,0,0,0-3.292,1.637,2.76,2.76,0,0,0-2.739-1.637A3.7,3.7,0,0,0,251,217.838h-.042l.148-.934H248.13l-1.657,10.429h2.975l.807-5.119.016-.108a7.605,7.605,0,0,1,.509-2.006,1.7,1.7,0,0,1,1.579-1.158,1.007,1.007,0,0,1,.813.331c.483.577.274,1.775.136,2.571l-.036.2-.827,5.289h2.973l.807-5.119v-.008a8.167,8.167,0,0,1,.521-2.04,1.752,1.752,0,0,1,1.6-1.222Zm-27.227-2.04-1.657,10.429h2.973l.743-4.695a6.344,6.344,0,0,1,.733-2.326A2.3,2.3,0,0,1,236,219.2h.046a1.865,1.865,0,0,1,1.122.383l.785-2.759a3.026,3.026,0,0,0-1.186-.256,3.568,3.568,0,0,0-2.805,1.423h-.04l.168-1.082Zm-7.471,8.133a1.839,1.839,0,0,1-1.441-.645,2.915,2.915,0,0,1-.555-2.284,3.306,3.306,0,0,1,2.931-2.909,1.851,1.851,0,0,1,1.445.645,2.842,2.842,0,0,1,.551,2.264,3.324,3.324,0,0,1-2.929,2.929Zm46.7-4.29h-3.971a2.643,2.643,0,0,1,2.336-2.1,1.446,1.446,0,0,1,1.076.433,2.3,2.3,0,0,1,.559,1.669Zm-26.187,0h-3.971a2.649,2.649,0,0,1,2.336-2.1,1.441,1.441,0,0,1,1.074.433,2.32,2.32,0,0,1,.559,1.669Z" transform="translate(-195 -208.1)" fill="#fff"/>
    </g>
  </g>
</svg>
