<svg xmlns="http://www.w3.org/2000/svg" width="140" height="140" viewBox="0 0 140 140">
  <g id="Group_967" data-name="Group 967" transform="translate(-0.074 -0.027)">
    <g id="Group_930" data-name="Group 930" transform="translate(17.286 59.92)">
      <path id="Path_1809" data-name="Path 1809" d="M220.009,453.774a3.957,3.957,0,1,0-3.956-3.957,3.958,3.958,0,0,0,3.956,3.957Zm0,3.736a7.62,7.62,0,1,0-7.62-7.621,7.62,7.62,0,0,0,7.62,7.621Zm-11.473-7.621a11.474,11.474,0,1,1,11.473,11.473,11.472,11.472,0,0,1-11.473-11.473Z" transform="translate(-208.536 -438.417)" fill="#fff"/>
      <path id="Path_1810" data-name="Path 1810" d="M265.276,445.305H278.35v3.3h-4.5v13.22h-3.995V448.629h-4.582v-3.323Z" transform="translate(-238.603 -442.067)" fill="#fff"/>
      <path id="Path_1811" data-name="Path 1811" d="M326.528,448.629h-3.665v3.3s2.859.01,3.287,0c1.148-.024,2.036-.536,2.036-1.661a1.48,1.48,0,0,0-1.658-1.636Zm-7.478-3.324h7.759c4.411,0,5.021,3.018,5.021,4.777a4.509,4.509,0,0,1-2.395,3.886,3.144,3.144,0,0,1,1.931,2.908v3.079a2.608,2.608,0,0,0,.891,1.869h-3.152c-1.5-.17-1.479-1.368-1.466-2.052V457.12c-.037-.647-.232-1.369-1.588-1.393h-3.189v6.1h-3.824l.012-16.518Z" transform="translate(-267.091 -442.067)" fill="#fff"/>
      <path id="Path_1812" data-name="Path 1812" d="M382.118,445.305v16.518h11.9v-3.4H386v-3.691h6.842V451.61H386v-2.981h8.015v-3.323Z" transform="translate(-300.518 -442.067)" fill="#fff"/>
      <path id="Path_1813" data-name="Path 1813" d="M408.628,448.629h4.716v13.195h3.909V448.629h4.789v-3.323H408.628v3.323Z" transform="translate(-314.565 -442.067)" fill="#fff"/>
      <path id="Path_1814" data-name="Path 1814" d="M293.33,451.13l-1.405,4.264h2.9l-1.491-4.264Zm-2.215-5.832h4.24l5.776,16.522h-4.109l-1.194-3.433h-4.875l-1.125,3.433h-4.075l5.362-16.522Z" transform="translate(-249.454 -442.063)" fill="#fff"/>
      <path id="Path_1815" data-name="Path 1815" d="M362.348,451.842h-7.1v3.212h3.372a2.814,2.814,0,0,1-.694,2.249,3.486,3.486,0,0,1-2.483,1.025,3.692,3.692,0,0,1-2.547-.887c-1.5-1.272-1.851-3.65-1.851-4.893,0-1.564.622-5.448,4.447-5.608,0,0,2.579-.166,3.251,2.944h3.579a6.9,6.9,0,0,0-6.83-6.011,7.854,7.854,0,0,0-5.642,2.3,9.071,9.071,0,0,0-2.458,6.536,9.514,9.514,0,0,0,2.343,6.673,6.5,6.5,0,0,0,4.976,2.246,7.621,7.621,0,0,0,4.411-1.49l.537.928h2.688v-9.224Z" transform="translate(-282.117 -441.31)" fill="#fff"/>
      <path id="Path_1816" data-name="Path 1816" d="M429.834,477.071h.205c.132,0,.229-.02.229-.161,0-.126-.133-.145-.24-.145h-.195v.306Zm-.231-.487h.44c.292,0,.457.091.457.346a.292.292,0,0,1-.306.312l.311.509h-.242l-.283-.5h-.145v.5H429.6v-1.166Zm.415,1.406a.819.819,0,1,0-.786-.822.791.791,0,0,0,.786.822Zm0-1.861a1.042,1.042,0,1,1-1.07,1.039,1.033,1.033,0,0,1,1.07-1.039Z" transform="translate(-325.333 -458.401)" fill="#fff"/>
    </g>
    <rect id="Rectangle_815" data-name="Rectangle 815" width="140" height="140" transform="translate(0.074 0.027)" fill="none"/>
  </g>
</svg>
