<svg xmlns="http://www.w3.org/2000/svg" xmlns:xlink="http://www.w3.org/1999/xlink" width="140" height="140" viewBox="0 0 140 140">
  <defs>
    <clipPath id="clip-path">
      <rect id="Rectángulo_1060" data-name="Rectángulo 1060" width="140" height="140" transform="translate(4361.5 2260.5)" fill="none" stroke="#707070" stroke-width="1"/>
    </clipPath>
  </defs>
  <g id="topps" transform="translate(-4361.5 -2260.5)" clip-path="url(#clip-path)">
    <g id="Symbols" transform="translate(2695.812 2863.533)">
      <g id="top-banner-1280" transform="translate(1694.188 -552.533)">
        <g id="top-banner">
          <path id="logo" d="M1734.5-532.685h3.153a.523.523,0,0,1,.487.774l-1.258,3.461a1.031,1.031,0,0,1-.885.652h-3.274Zm7.742-4.7-11.887-.193-8.63,23.656h6.329l3.355-8.69h4.6c2.782,0,4.131.217,5.177-2.993l3.294-9.338C1745.284-537.212,1744.808-537.38,1742.241-537.38Zm9.579,4.7h3.152a.524.524,0,0,1,.489.774l-1.258,3.461a1.031,1.031,0,0,1-.885.652h-3.274Zm7.743-4.7-11.887-.193-8.63,23.656h6.329l3.355-8.69h4.6c2.781,0,4.131.217,5.177-2.993l3.294-9.338C1762.606-537.212,1762.128-537.38,1759.563-537.38Zm9.417-.258,8.668.171-1.694,4.806h-6.029l-.954,2.794h3.955c1.325.033,1.482.391.925,2.128l-3.678,11.253a3.6,3.6,0,0,1-3.854,2.772h-17.8l2.114-6.613,14.878-.284,1.179-3.823h-3.911c-1.837-.053-2.12-1.091-1.136-3.6l2.2-6.562c.657-1.86,2.412-3.069,5.138-3.036m-54.047-8.778,2.29-6.117h-8.167c-.855,3.518-2.417,5.878-5.23,6.193h-7.343l-2.294,6.286h10.37L1697.4-520c-1.307,3.333-1.26,6.192,3.3,6.192h18.353l2.386-6.284h-12.572c-3.014,0-2.919-.934-2.018-4.16l4.738-12.671c1.017-2.6,3.087-3.338,6.549-3.226H1746.4l2.477-6.193Zm2.648,13.8h2.5a.634.634,0,0,1,.59.938l-1.056,2.906a1.48,1.48,0,0,1-1.271.937h-2.5a.633.633,0,0,1-.588-.937l1.054-2.906a1.48,1.48,0,0,1,1.271-.938m-1.8-5.073h9.75c1.2,0,1.807.986,1.354,2.192l-4.065,10.835a3.519,3.519,0,0,1-3,2.192h-9.75c-1.2,0-1.806-.987-1.354-2.192l4.065-10.835a3.517,3.517,0,0,1,3-2.192" transform="translate(-1694.188 552.533)" fill="#fff" fill-rule="evenodd"/>
        </g>
      </g>
    </g>
  </g>
</svg>
