<svg id="Capa_1" data-name="Capa 1" xmlns="http://www.w3.org/2000/svg" xmlns:xlink="http://www.w3.org/1999/xlink" viewBox="0 0 1579.19 177.55"><defs><style>.cls-1{fill:none;}.cls-2{fill:#1d1d1b;}.cls-3{fill:#fff;}.cls-4{clip-path:url(#clip-path);}.cls-5{fill:url(#Degradado_sin_nombre_7);}</style><clipPath id="clip-path"><rect class="cls-1" x="-2045" y="-5" width="1510" height="510"/></clipPath><radialGradient id="Degradado_sin_nombre_7" cx="-490.08" cy="750" r="1000" gradientUnits="userSpaceOnUse"><stop offset="0" stop-color="#c20a0b"/><stop offset="1" stop-color="#c20a0b" stop-opacity="0"/></radialGradient></defs><path class="cls-2" d="M254.56,149.32Q243.85,147,237.27,142a28,28,0,0,1-9.47-12.93A56.14,56.14,0,0,1,224.93,110H256.7a33.09,33.09,0,0,0,1.56,8.64,11.43,11.43,0,0,0,4,5.6,18.13,18.13,0,0,0,7.24,3,54.85,54.85,0,0,0,10.86.91,79.11,79.11,0,0,0,12-.74,24.93,24.93,0,0,0,7.33-2.14,7.78,7.78,0,0,0,3.7-3.54,12.08,12.08,0,0,0,1-5.1c0-3.52-1.24-5.82-3.7-6.92a45.85,45.85,0,0,0-9.47-2.8L257.19,99.6a68.69,68.69,0,0,1-13.34-4.12,28.66,28.66,0,0,1-9.29-6.34A24.47,24.47,0,0,1,229,79.93a39.89,39.89,0,0,1-1.81-12.76,34.29,34.29,0,0,1,2.63-13.58,26.47,26.47,0,0,1,8.81-10.79q6.18-4.61,16.3-7.16t25.1-2.55a121.31,121.31,0,0,1,24.12,2q10,2.07,16.38,6.84a28.59,28.59,0,0,1,9.55,12.43q3.13,7.65,3.46,18.85h-30A26.85,26.85,0,0,0,302,64.94a11.53,11.53,0,0,0-4-5.1,16.57,16.57,0,0,0-6.91-2.63,62.5,62.5,0,0,0-10.54-.75,67.84,67.84,0,0,0-11.77.83,24.69,24.69,0,0,0-7,2.14,7.37,7.37,0,0,0-3.37,3.21,8.78,8.78,0,0,0-.91,3.87,7.14,7.14,0,0,0,2.88,6.09q2.88,2.15,10.13,3.46L301,82.15a99.81,99.81,0,0,1,15,3.95,34.39,34.39,0,0,1,10.79,6,22.67,22.67,0,0,1,6.5,9.14,36.4,36.4,0,0,1,2.14,13.33A48.11,48.11,0,0,1,333,130.22a24.92,24.92,0,0,1-8.57,11.69q-6.17,4.77-16.79,7.24t-26.92,2.47A127,127,0,0,1,254.56,149.32Z"/><path class="cls-2" d="M394.66,101.25H383v47.9H352.52V35.56H383V93.18l40.5-57.62h33.91L417.71,87.91l43.46,61.24H424.62Z"/><path class="cls-2" d="M500.52,35.56v70.79q0,11.69,5.76,15.72t17.29,4q11.68,0,17.45-4t5.76-15.72V35.56h30.45V107.5q0,22.56-13.25,33.34t-40.41,10.78q-27.17,0-40.42-10.62T469.9,107.5V35.56Z"/><path class="cls-2" d="M595.51,149.15V35.56H626v87.25h62.89v26.34Z"/><path class="cls-2" d="M702.53,149.15V35.56H733v87.25h62.89v26.34Z"/><path class="cls-2" d="M904.45,113.35q-9.81,11.1-29.89,11.11H840v24.69H809.54V35.56h64.7a60.91,60.91,0,0,1,18.1,2.38,28.64,28.64,0,0,1,12.43,7.49,31.17,31.17,0,0,1,7.17,13.26,74.07,74.07,0,0,1,2.3,19.84Q914.24,102.23,904.45,113.35ZM840,100.09h26.84q8.38,0,12.59-4.61t4.2-16.13a45.25,45.25,0,0,0-.83-9.55,12.93,12.93,0,0,0-2.79-6,10.06,10.06,0,0,0-5.27-3,34.5,34.5,0,0,0-8.23-.83H840Z"/><path class="cls-2" d="M966.1,96.8h17.78q8.89,0,13.83-4.2t4.94-15.06q0-9.87-4.36-13.75t-14.74-3.87H961.16v89.23H930.71V35.56h59.43q22.56,0,32.93,9.13t10.37,30.21a48.51,48.51,0,0,1-1.57,12.51A33,33,0,0,1,1027,98a27.91,27.91,0,0,1-8.65,7.89,37.15,37.15,0,0,1-12.92,4.53l31.12,38.69H999.69Z"/><path class="cls-2" d="M1083.82,148.82q-11.53-2.81-19-9.55t-11.11-18.1q-3.62-11.37-3.62-28.65,0-17.94,3.86-29.47t11.53-18.19a42.54,42.54,0,0,1,19.1-9.22,140.27,140.27,0,0,1,53.25,0A42.54,42.54,0,0,1,1157,44.86q7.65,6.66,11.52,18.19t3.87,29.47q0,17.28-3.61,28.65t-11.12,18.1q-7.49,6.76-19,9.55a117.65,117.65,0,0,1-27.5,2.8A116.69,116.69,0,0,1,1083.82,148.82Zm42-23.87a17.53,17.53,0,0,0,9.46-4.77,20.75,20.75,0,0,0,5-10.21,82.28,82.28,0,0,0,1.49-17.45,86.8,86.8,0,0,0-1.49-18c-1-4.49-2.69-7.92-5.1-10.29a17.79,17.79,0,0,0-9.46-4.61,100.73,100.73,0,0,0-29.15,0,17.33,17.33,0,0,0-9.38,4.61q-3.54,3.56-5,10.21a86.63,86.63,0,0,0-1.48,18,82.37,82.37,0,0,0,1.48,17.45q1.49,6.59,5,10.21a17.5,17.5,0,0,0,9.38,4.77,77.05,77.05,0,0,0,14.57,1.15A78.38,78.38,0,0,0,1125.8,125Z"/><path class="cls-2" d="M1213.71,149.15h-37.37l40.33-57.78-37.53-55.81h36.71l21.89,36.21,22.56-36.21h35.56l-37.37,56,40.33,57.62H1261l-23.71-37.53Z"/><path class="cls-2" d="M1311.17,149.15V35.56h30.46V149.15Z"/><path class="cls-2" d="M1361.39,149.15V35.56h92.19V59.92h-61.74V80h61.08v24.36h-61.08v20.42h61.74v24.36Z"/><path class="cls-2" d="M1498.36,149.32q-10.71-2.31-17.29-7.33a28,28,0,0,1-9.47-12.93,56.14,56.14,0,0,1-2.87-19.09h31.77a32.68,32.68,0,0,0,1.56,8.64,11.43,11.43,0,0,0,4,5.6,18.13,18.13,0,0,0,7.24,3,54.85,54.85,0,0,0,10.86.91,79.11,79.11,0,0,0,12-.74,24.93,24.93,0,0,0,7.33-2.14,7.83,7.83,0,0,0,3.7-3.54,12.08,12.08,0,0,0,1-5.1c0-3.52-1.24-5.82-3.7-6.92a45.85,45.85,0,0,0-9.47-2.8L1501,99.6a68.69,68.69,0,0,1-13.34-4.12,28.66,28.66,0,0,1-9.29-6.34,24.47,24.47,0,0,1-5.52-9.21A39.89,39.89,0,0,1,1471,67.17a34.29,34.29,0,0,1,2.63-13.58,26.47,26.47,0,0,1,8.81-10.79q6.18-4.61,16.3-7.16t25.1-2.55a121.38,121.38,0,0,1,24.12,2q10,2.07,16.38,6.84a28.59,28.59,0,0,1,9.55,12.43q3.13,7.65,3.46,18.85h-30a26.58,26.58,0,0,0-1.64-8.32,11.53,11.53,0,0,0-4-5.1,16.57,16.57,0,0,0-6.91-2.63,62.5,62.5,0,0,0-10.54-.75,67.84,67.84,0,0,0-11.77.83,24.69,24.69,0,0,0-7,2.14,7.37,7.37,0,0,0-3.37,3.21,8.78,8.78,0,0,0-.91,3.87,7.14,7.14,0,0,0,2.88,6.09q2.88,2.15,10.13,3.46l30.45,6.09a99.81,99.81,0,0,1,15,3.95,34.39,34.39,0,0,1,10.79,6,22.67,22.67,0,0,1,6.5,9.14,36.4,36.4,0,0,1,2.14,13.33,47.83,47.83,0,0,1-2.39,15.64,24.83,24.83,0,0,1-8.56,11.69q-6.18,4.77-16.79,7.24t-26.92,2.47A127,127,0,0,1,1498.36,149.32Z"/><g id="Grupo_13" data-name="Grupo 13"><g id="Grupo_12" data-name="Grupo 12"><g id="Grupo_8" data-name="Grupo 8"><path id="Trazado_6" data-name="Trazado 6" class="cls-3" d="M130.55,16.16a85.07,85.07,0,0,0-83.57,0A81.59,81.59,0,0,0,5.2,87.08v25A38.45,38.45,0,0,0,24.89,145.5l4.95,2.78,14.47,8.18a8.35,8.35,0,0,1,4.25,7.22,8.76,8.76,0,0,0,8.86,8.67h0a8.79,8.79,0,0,0,8.72-7.25,1.72,1.72,0,0,1,1.48-1.41h.29a1.69,1.69,0,0,1,1.69,1.48,2.63,2.63,0,0,0,.09.55,8.83,8.83,0,0,0,8.62,6.66h.11a8.86,8.86,0,0,0,8.46-6.7,7.34,7.34,0,0,0,.16-1,1.68,1.68,0,0,1,1.67-1.48h0a1.66,1.66,0,0,1,1.66,1.53,4.6,4.6,0,0,0,.06.52,8.66,8.66,0,0,0,3,5.1,8.93,8.93,0,0,0,5.73,2.06,8.83,8.83,0,0,0,8.37-5.87,8,8,0,0,0,.29-1.36,1.72,1.72,0,0,1,1.72-1.47h.28a1.76,1.76,0,0,1,1.5,1.44,8.79,8.79,0,0,0,.46,1.67,8.63,8.63,0,0,0,3.19,4,8.93,8.93,0,0,0,5.08,1.56,8.76,8.76,0,0,0,8.88-8.65v0a8.29,8.29,0,0,1,4.25-7.22l14.47-8.18,4.95-2.78a39,39,0,0,0,14.43-14.12,38,38,0,0,0,5.27-19.3v-25A81.57,81.57,0,0,0,130.55,16.16ZM54.5,131.36a20.07,20.07,0,0,1-9.9-2.59l-9.83-5.55a19.29,19.29,0,0,1-9.88-16.78,16.12,16.12,0,0,1,16.28-16h0a16.39,16.39,0,0,1,8.1,2.16l15.11,8.55A15.87,15.87,0,0,1,72.51,115a15.66,15.66,0,0,1-2.18,8,16.15,16.15,0,0,1-6,5.83A20.11,20.11,0,0,1,54.5,131.36ZM150,116.11a19.49,19.49,0,0,1-7.22,7.09L133,128.75a20.09,20.09,0,0,1-19.77,0,16.15,16.15,0,0,1-6-5.83,15.6,15.6,0,0,1,0-15.94,16.15,16.15,0,0,1,6-5.83l15.1-8.54a16.34,16.34,0,0,1,8.1-2.16,16.13,16.13,0,0,1,16.29,16h0A19.17,19.17,0,0,1,150,116.11Z"/></g><g id="Grupo_11" data-name="Grupo 11"><g id="Grupo_9" data-name="Grupo 9"><path id="Trazado_7" data-name="Trazado 7" d="M153.05,106.43a19.32,19.32,0,0,1-9.68,16.77l-9.63,5.55a19.32,19.32,0,0,1-19.38,0,15.94,15.94,0,0,1,0-27.6l14.8-8.55a15.89,15.89,0,0,1,23.89,13.79Z"/><path id="Trazado_8" data-name="Trazado 8" d="M71.15,115a16,16,0,0,1-8,13.8,19.32,19.32,0,0,1-19.38,0l-9.63-5.55a19.36,19.36,0,0,1-9.68-16.77,15.89,15.89,0,0,1,23.89-13.8l14.8,8.55A15.94,15.94,0,0,1,71.15,115Z"/></g><g id="Grupo_10" data-name="Grupo 10"><path id="Trazado_9" data-name="Trazado 9" d="M165.65,43.54a88.08,88.08,0,0,0-32.49-31.88,90.31,90.31,0,0,0-88.77,0,88,88,0,0,0-32.5,31.88A86,86,0,0,0,0,87.09v25A43.77,43.77,0,0,0,22.32,150l4.94,2.77L41.72,161a3.12,3.12,0,0,1,1.59,2.69,14,14,0,0,0,14.15,13.88,14.2,14.2,0,0,0,10.43-4.49,14.21,14.21,0,0,0,10.45,4.49h.17A14.14,14.14,0,0,0,88.72,173a14.35,14.35,0,0,0,20.94,0,14.35,14.35,0,0,0,10.43,4.52,14,14,0,0,0,14.15-13.88,3.08,3.08,0,0,1,1.59-2.69l14.45-8.19,4.95-2.77a44.28,44.28,0,0,0,16.33-16,43.27,43.27,0,0,0,6-21.9v-25A85.84,85.84,0,0,0,165.65,43.54Zm6.59,68.55A38,38,0,0,1,167,131.38a38.91,38.91,0,0,1-14.39,14.12l-5,2.81-14.46,8.18a8.3,8.3,0,0,0-4.24,7.22,8.87,8.87,0,0,1-17.11,3.1,9.6,9.6,0,0,1-.46-1.67,1.75,1.75,0,0,0-1.49-1.44h-.29a1.72,1.72,0,0,0-1.72,1.46,8.15,8.15,0,0,1-.29,1.37,8.92,8.92,0,0,1-14.08,3.8,8.63,8.63,0,0,1-3-5.1,4.57,4.57,0,0,1,0-.52,1.68,1.68,0,0,0-1.67-1.53h0a1.66,1.66,0,0,0-1.66,1.48c0,.35-.09.69-.16,1a8.89,8.89,0,0,1-8.46,6.71h-.11a8.84,8.84,0,0,1-8.61-6.66c0-.15-.06-.34-.09-.56A1.68,1.68,0,0,0,68,163.7h-.29a1.72,1.72,0,0,0-1.47,1.41,8.86,8.86,0,0,1-17.57-1.42,8.3,8.3,0,0,0-4.24-7.21l-14.45-8.19L25,145.49A38.5,38.5,0,0,1,5.31,112.07v-25A81.59,81.59,0,0,1,47.05,16.15a84.81,84.81,0,0,1,83.47,0,81.59,81.59,0,0,1,41.72,70.92Z"/></g></g></g><path id="Trazado_10" data-name="Trazado 10" d="M84.36,137.4l-2.46,4.26a5.1,5.1,0,0,0,4.41,7.64h4.91a5.1,5.1,0,0,0,4.41-7.64l-2.46-4.26a5.09,5.09,0,0,0-8.81,0Z"/></g><g class="cls-4"><rect class="cls-5" x="-1490.08" y="-250" width="2000" height="2000"/></g></svg>