<svg width="16" height="16" viewBox="0 0 16 16" fill="none" xmlns="http://www.w3.org/2000/svg">
<path d="M12.897 4.46983C12.0009 3.76559 10.9082 3.35711 9.76995 3.30083L9.61395 3.47883C10.6273 3.74863 11.5718 4.2306 12.385 4.89283C11.3487 4.32135 10.2107 3.95819 9.03495 3.82383C8.28739 3.74172 7.53268 3.74944 6.78695 3.84682C6.72342 3.84845 6.66016 3.85582 6.59795 3.86883C5.72402 3.96767 4.87118 4.20391 4.07095 4.56882C3.65895 4.75782 3.41395 4.89183 3.41395 4.89183C4.27045 4.19594 5.26983 3.69744 6.34095 3.43183L6.22995 3.29883C5.09133 3.3549 3.99827 3.7634 3.10195 4.46783C2.08437 6.48185 1.53729 8.70061 1.50195 10.9568C1.88559 11.4955 2.39581 11.9316 2.98767 12.2266C3.57953 12.5217 4.23487 12.6667 4.89595 12.6488C4.89595 12.6488 5.30795 12.1488 5.64195 11.7248C4.85943 11.5276 4.17041 11.0632 3.69395 10.4118C3.69395 10.4118 3.80496 10.4898 4.00496 10.6008C4.01777 10.614 4.03306 10.6246 4.04995 10.6318C4.08295 10.6538 4.11595 10.6648 4.14995 10.6878C4.41203 10.8325 4.68365 10.9591 4.96295 11.0668C5.4929 11.276 6.04084 11.4363 6.59995 11.5458C7.5516 11.7285 8.52894 11.7322 9.48195 11.5568C10.0369 11.4597 10.5788 11.299 11.097 11.0778C11.5471 10.9079 11.9765 10.6875 12.377 10.4208C11.8827 11.0864 11.1689 11.5558 10.362 11.7458C10.696 12.1688 11.097 12.6458 11.097 12.6458C11.7596 12.6626 12.4162 12.5172 13.0099 12.2224C13.6035 11.9275 14.116 11.492 14.503 10.9538C14.4652 8.6988 13.9161 6.48176 12.897 4.46983ZM5.91795 9.92383C5.60848 9.89739 5.3202 9.75577 5.11013 9.52699C4.90006 9.29821 4.7835 8.99893 4.7835 8.68833C4.7835 8.37773 4.90006 8.07844 5.11013 7.84966C5.3202 7.62088 5.60848 7.47926 5.91795 7.45283C6.22742 7.47926 6.5157 7.62088 6.72577 7.84966C6.93584 8.07844 7.05241 8.37773 7.05241 8.68833C7.05241 8.99893 6.93584 9.29821 6.72577 9.52699C6.5157 9.75577 6.22742 9.89739 5.91795 9.92383ZM9.98095 9.92383C9.73214 9.94497 9.48274 9.89051 9.2654 9.76756C9.04806 9.6446 8.8729 9.4589 8.76286 9.23475C8.65281 9.0106 8.61301 8.75844 8.64865 8.51129C8.68429 8.26414 8.79372 8.0335 8.96262 7.84958C9.13152 7.66565 9.35201 7.53701 9.59523 7.48048C9.83846 7.42394 10.0931 7.44216 10.3258 7.53275C10.5585 7.62333 10.7584 7.78206 10.8994 7.98816C11.0404 8.19426 11.1159 8.43812 11.116 8.68783C11.1274 9.00162 11.0146 9.30727 10.8021 9.53847C10.5897 9.76966 10.2946 9.90777 9.98095 9.92283V9.92383Z" fill="white"/>
</svg>
