<?xml version="1.0" encoding="utf-8"?>
<!-- Generator: Adobe Illustrator 24.2.1, SVG Export Plug-In . SVG Version: 6.00 Build 0)  -->
<svg version="1.1" id="Layer_1" xmlns="http://www.w3.org/2000/svg" xmlns:xlink="http://www.w3.org/1999/xlink" x="0px" y="0px"
	 viewBox="0 0 24 24" style="enable-background:new 0 0 24 24;" xml:space="preserve">
<style type="text/css">
	.st0{fill:#FFFFFF;}
</style>
<path class="st0" d="M12,1C8.7,1,6,3.7,6,7v1c-1.1,0-2,0.9-2,2v10c0,1.1,0.9,2,2,2h12c1.1,0,2-0.9,2-2V10c0-1.1-0.9-2-2-2V7
	C18,3.7,15.3,1,12,1z M12,3c2.3,0,4,1.7,4,4v1H8V7C8,4.7,9.7,3,12,3z M12,13c1.1,0,2,0.9,2,2s-0.9,2-2,2s-2-0.9-2-2S10.9,13,12,13z"
	/>
</svg>
