<svg xmlns="http://www.w3.org/2000/svg" width="259" height="40" viewBox="0 0 259 40">
  <g id="Group_1198" data-name="Group 1198" transform="translate(-220 -14)">
    <text id="SKULLPROXIES" transform="translate(260 46)" fill="#fff" font-size="30" font-family="SegoeUI-Bold, Segoe UI" font-weight="700" letter-spacing="0.025em"><tspan x="0" y="0">SKULLPROXIES</tspan></text>
    <g id="Group_13" data-name="Group 13" transform="translate(2504.75 -2602.64)">
      <g id="Group_12" data-name="Group 12" transform="translate(-2284.75 2621.64)">
        <g id="Group_8" data-name="Group 8" transform="translate(0.938 0.938)">
          <path id="Path_6" data-name="Path 6" d="M-2252.158,2633.617a15.3,15.3,0,0,0-7.531-1.977,15.3,15.3,0,0,0-7.531,1.977,14.7,14.7,0,0,0-7.531,12.778v4.505a6.928,6.928,0,0,0,3.549,6.022l.892.5,2.609,1.475a1.5,1.5,0,0,1,.765,1.3,1.58,1.58,0,0,0,1.6,1.563,1.586,1.586,0,0,0,1.573-1.307.31.31,0,0,1,.266-.255l.007,0,.045,0a.306.306,0,0,1,.305.267c0,.038.01.073.016.1a1.591,1.591,0,0,0,1.554,1.2h.019a1.6,1.6,0,0,0,1.526-1.208,1.4,1.4,0,0,0,.029-.186.3.3,0,0,1,.3-.266h.007a.3.3,0,0,1,.3.275.865.865,0,0,0,.011.094,1.554,1.554,0,0,0,.54.919,1.606,1.606,0,0,0,1.032.371,1.594,1.594,0,0,0,1.51-1.057,1.509,1.509,0,0,0,.051-.246.312.312,0,0,1,.311-.264l.046,0h.005a.316.316,0,0,1,.269.26,1.632,1.632,0,0,0,.083.3,1.562,1.562,0,0,0,.575.724,1.614,1.614,0,0,0,.916.282,1.58,1.58,0,0,0,1.6-1.563,1.493,1.493,0,0,1,.766-1.3l2.609-1.475.892-.5a7.024,7.024,0,0,0,2.6-2.545,6.839,6.839,0,0,0,.951-3.477v-4.505A14.7,14.7,0,0,0-2252.158,2633.617Zm-13.708,20.757a3.615,3.615,0,0,1-1.783-.468l-1.772-1a3.476,3.476,0,0,1-1.781-3.023,2.905,2.905,0,0,1,2.935-2.875,2.951,2.951,0,0,1,1.46.389l2.723,1.54a2.86,2.86,0,0,1,1.465,2.486,2.828,2.828,0,0,1-.393,1.436,2.912,2.912,0,0,1-1.072,1.051A3.622,3.622,0,0,1-2265.866,2654.374Zm17.213-2.748a3.521,3.521,0,0,1-1.3,1.277l-1.772,1a3.617,3.617,0,0,1-1.782.468,3.619,3.619,0,0,1-1.782-.467,2.91,2.91,0,0,1-1.073-1.051,2.83,2.83,0,0,1-.393-1.436,2.832,2.832,0,0,1,.393-1.436,2.906,2.906,0,0,1,1.073-1.05l2.722-1.54a2.95,2.95,0,0,1,1.46-.389,2.905,2.905,0,0,1,2.935,2.875A3.436,3.436,0,0,1-2248.653,2651.626Z" transform="translate(2274.75 -2631.64)" fill="#fff"/>
        </g>
        <g id="Group_11" data-name="Group 11" transform="translate(0)">
          <g id="Group_9" data-name="Group 9" transform="translate(4.415 16.304)">
            <path id="Path_7" data-name="Path 7" d="M-2078.512,2798.265a3.494,3.494,0,0,1-.467,1.746,3.487,3.487,0,0,1-1.277,1.277l-1.736,1a3.485,3.485,0,0,1-1.746.469,3.485,3.485,0,0,1-1.746-.468,2.875,2.875,0,0,1-1.051-1.051,2.87,2.87,0,0,1-.385-1.436,2.872,2.872,0,0,1,.385-1.436,2.874,2.874,0,0,1,1.051-1.05l2.667-1.54a2.844,2.844,0,0,1,1.43-.389A2.874,2.874,0,0,1-2078.512,2798.265Z" transform="translate(2101.682 -2795.39)"/>
            <path id="Path_8" data-name="Path 8" d="M-2229.292,2799.8a2.874,2.874,0,0,1-.385,1.436,2.877,2.877,0,0,1-1.051,1.051,3.489,3.489,0,0,1-1.746.468,3.48,3.48,0,0,1-1.746-.469l-1.736-1a3.489,3.489,0,0,1-1.744-3.023,2.875,2.875,0,0,1,2.875-2.875,2.846,2.846,0,0,1,1.43.389l2.667,1.54A2.87,2.87,0,0,1-2229.292,2799.8Z" transform="translate(2237.7 -2795.39)"/>
          </g>
          <g id="Group_10" data-name="Group 10">
            <path id="Path_9" data-name="Path 9" d="M-2254.894,2629.488a15.871,15.871,0,0,0-5.856-5.745,16.267,16.267,0,0,0-8-2.1,16.266,16.266,0,0,0-8,2.1,15.876,15.876,0,0,0-5.857,5.745,15.482,15.482,0,0,0-2.143,7.846v4.505a7.886,7.886,0,0,0,4.023,6.834l.89.5,2.607,1.475a.562.562,0,0,1,.286.486,2.529,2.529,0,0,0,2.55,2.5,2.566,2.566,0,0,0,1.881-.808,2.565,2.565,0,0,0,1.882.808h.031a2.551,2.551,0,0,0,1.841-.819,2.568,2.568,0,0,0,1.89.819,2.571,2.571,0,0,0,1.883-.814,2.585,2.585,0,0,0,1.88.814,2.529,2.529,0,0,0,2.551-2.5.56.56,0,0,1,.286-.486l2.606-1.475.891-.5a7.98,7.98,0,0,0,2.944-2.888,7.782,7.782,0,0,0,1.079-3.946v-4.505A15.478,15.478,0,0,0-2254.894,2629.488Zm1.188,12.351a6.841,6.841,0,0,1-.95,3.476,7.01,7.01,0,0,1-2.594,2.545l-.891.505-2.606,1.475a1.492,1.492,0,0,0-.765,1.3,1.579,1.579,0,0,1-1.594,1.563,1.6,1.6,0,0,1-.915-.282,1.564,1.564,0,0,1-.575-.723,1.639,1.639,0,0,1-.082-.3.317.317,0,0,0-.269-.26h-.006l-.046,0a.313.313,0,0,0-.311.264,1.433,1.433,0,0,1-.051.246,1.593,1.593,0,0,1-1.509,1.057,1.6,1.6,0,0,1-1.03-.371,1.554,1.554,0,0,1-.54-.92.87.87,0,0,1-.01-.094.3.3,0,0,0-.3-.275h-.007a.3.3,0,0,0-.3.266,1.58,1.58,0,0,1-.029.186,1.6,1.6,0,0,1-1.524,1.208h-.019a1.59,1.59,0,0,1-1.552-1.2c-.005-.026-.011-.061-.016-.1a.306.306,0,0,0-.305-.267l-.045,0-.008,0a.311.311,0,0,0-.265.255,1.584,1.584,0,0,1-1.572,1.307,1.579,1.579,0,0,1-1.594-1.563,1.5,1.5,0,0,0-.764-1.3l-2.606-1.475-.891-.505a6.929,6.929,0,0,1-3.545-6.021v-4.505a14.7,14.7,0,0,1,7.522-12.778,15.262,15.262,0,0,1,7.522-1.978,15.264,15.264,0,0,1,7.522,1.978,14.7,14.7,0,0,1,7.521,12.778Z" transform="translate(2284.75 -2621.64)"/>
          </g>
        </g>
      </g>
      <path id="Path_10" data-name="Path 10" d="M-2131.456,2881.1l-.443.768a.917.917,0,0,0,.794,1.376h.886a.917.917,0,0,0,.794-1.376l-.443-.768A.917.917,0,0,0-2131.456,2881.1Z" transform="translate(-138.089 -234.701)"/>
    </g>
  </g>
</svg>
