<svg width="14" height="13" viewBox="0 0 14 13" fill="none" xmlns="http://www.w3.org/2000/svg">
<path d="M13.8132 2.35799C13.4655 2.82242 13.0451 3.22764 12.5682 3.55799V3.92799C12.5704 5.01772 12.3558 6.097 11.9369 7.10299C11.5179 8.10897 10.903 9.02155 10.128 9.78758C9.3529 10.5536 8.43318 11.1578 7.42236 11.5649C6.41153 11.972 5.32981 12.174 4.24018 12.159C2.96803 12.1631 1.71221 11.8725 0.571182 11.31C0.541211 11.2967 0.515775 11.275 0.498006 11.2474C0.480238 11.2199 0.470914 11.1878 0.471182 11.155V11.081C0.47118 11.0578 0.475772 11.0349 0.484692 11.0136C0.493611 10.9922 0.506681 10.9728 0.523143 10.9565C0.539606 10.9403 0.559135 10.9274 0.580598 10.9187C0.602061 10.9101 0.625033 10.9057 0.648182 10.906C1.89779 10.8639 3.10257 10.4302 4.09218 9.66599C3.5375 9.65481 2.99728 9.48701 2.53387 9.18197C2.07047 8.87692 1.70276 8.44706 1.47318 7.94199C1.46092 7.9142 1.45611 7.88369 1.45921 7.85347C1.46231 7.82325 1.47323 7.79436 1.49089 7.76964C1.50855 7.74492 1.53234 7.72522 1.55991 7.71248C1.58749 7.69975 1.61791 7.69441 1.64818 7.69699C1.99205 7.73162 2.33938 7.6997 2.67118 7.60299C2.06236 7.47666 1.50937 7.16031 1.09189 6.69952C0.674406 6.23872 0.413996 5.65729 0.348182 5.03899C0.34586 5.0091 0.351256 4.97912 0.36385 4.95192C0.376445 4.92471 0.395818 4.9012 0.42011 4.88363C0.444402 4.86607 0.4728 4.85503 0.50258 4.85159C0.532361 4.84816 0.562525 4.85242 0.590182 4.86399C0.925575 5.01348 1.28801 5.09277 1.65518 5.09699C1.12169 4.74722 0.719216 4.23043 0.510766 3.62751C0.302315 3.0246 0.299648 2.36958 0.503182 1.76499C0.524176 1.70552 0.5603 1.65255 0.607995 1.6113C0.65569 1.57004 0.713311 1.54192 0.775181 1.52971C0.837051 1.51749 0.901035 1.52161 0.96083 1.54165C1.02062 1.56169 1.07417 1.59696 1.11618 1.64399C2.59323 3.21645 4.62332 4.15369 6.77818 4.25799C6.72293 4.03763 6.69572 3.81117 6.69718 3.58399C6.70675 3.00209 6.88911 2.43616 7.22108 1.95814C7.55304 1.48012 8.01963 1.11158 8.56154 0.899356C9.10345 0.687136 9.69622 0.640815 10.2645 0.766282C10.8328 0.891748 11.351 1.18334 11.7532 1.60399C12.3139 1.49717 12.856 1.30884 13.3622 1.04499C13.3803 1.03364 13.4013 1.02761 13.4227 1.02761C13.4441 1.02761 13.465 1.03364 13.4832 1.04499C13.4944 1.06317 13.5004 1.08412 13.5004 1.10549C13.5004 1.12686 13.4944 1.14782 13.4832 1.16599C13.238 1.72738 12.8237 2.19826 12.2982 2.51299C12.7595 2.46 13.2128 2.35155 13.6482 2.18999C13.666 2.17791 13.6871 2.17146 13.7087 2.17146C13.7302 2.17146 13.7513 2.17791 13.7692 2.18999C13.7842 2.197 13.7975 2.20717 13.8082 2.21981C13.8189 2.23245 13.8268 2.24725 13.8313 2.2632C13.8357 2.27915 13.8367 2.29588 13.8341 2.31224C13.8315 2.3286 13.8254 2.34421 13.8162 2.35799H13.8132Z" fill="white"/>
</svg>
